<svg width="379" height="286" viewBox="0 0 379 286" fill="none" xmlns="http://www.w3.org/2000/svg">
<rect x="0.75" y="45.75" width="377.5" height="239.5" rx="29.25" fill="white" stroke="#D8B2FC" stroke-width="1.5"/>
<path d="M95.0313 118.8H106.971V133H103.691V121.68H98.3313V133H95.0313V118.8ZM116.476 133.12C115.423 133.12 114.463 132.913 113.596 132.5C112.73 132.087 111.99 131.547 111.376 130.88C110.763 130.2 110.283 129.427 109.936 128.56C109.603 127.693 109.436 126.8 109.436 125.88C109.436 124.947 109.61 124.047 109.956 123.18C110.316 122.313 110.81 121.553 111.436 120.9C112.076 120.233 112.83 119.707 113.696 119.32C114.563 118.92 115.51 118.72 116.536 118.72C117.59 118.72 118.55 118.927 119.416 119.34C120.283 119.753 121.023 120.3 121.636 120.98C122.25 121.66 122.723 122.433 123.056 123.3C123.39 124.167 123.556 125.047 123.556 125.94C123.556 126.873 123.376 127.773 123.016 128.64C122.67 129.507 122.183 130.273 121.556 130.94C120.93 131.593 120.183 132.12 119.316 132.52C118.45 132.92 117.503 133.12 116.476 133.12ZM112.776 125.92C112.776 126.467 112.856 127 113.016 127.52C113.176 128.027 113.41 128.48 113.716 128.88C114.036 129.28 114.43 129.6 114.896 129.84C115.363 130.08 115.896 130.2 116.496 130.2C117.123 130.2 117.67 130.073 118.136 129.82C118.603 129.567 118.99 129.24 119.296 128.84C119.603 128.427 119.83 127.967 119.976 127.46C120.136 126.94 120.216 126.413 120.216 125.88C120.216 125.333 120.136 124.807 119.976 124.3C119.816 123.78 119.576 123.327 119.256 122.94C118.936 122.54 118.543 122.227 118.076 122C117.623 121.76 117.096 121.64 116.496 121.64C115.87 121.64 115.323 121.767 114.856 122.02C114.403 122.26 114.016 122.58 113.696 122.98C113.39 123.38 113.156 123.84 112.996 124.36C112.85 124.867 112.776 125.387 112.776 125.92ZM137.652 129.36C137.652 129.973 137.525 130.507 137.272 130.96C137.018 131.413 136.672 131.793 136.232 132.1C135.792 132.393 135.278 132.62 134.692 132.78C134.105 132.927 133.485 133 132.832 133H125.912V118.8H133.812C134.305 118.8 134.752 118.907 135.152 119.12C135.552 119.333 135.892 119.613 136.172 119.96C136.452 120.293 136.665 120.68 136.812 121.12C136.972 121.547 137.052 121.987 137.052 122.44C137.052 123.12 136.878 123.76 136.532 124.36C136.198 124.96 135.692 125.413 135.012 125.72C135.825 125.96 136.465 126.387 136.932 127C137.412 127.613 137.652 128.4 137.652 129.36ZM134.312 128.7C134.312 128.26 134.185 127.887 133.932 127.58C133.678 127.273 133.358 127.12 132.972 127.12H129.192V130.22H132.832C133.258 130.22 133.612 130.08 133.892 129.8C134.172 129.52 134.312 129.153 134.312 128.7ZM129.192 121.6V124.54H132.412C132.772 124.54 133.092 124.42 133.372 124.18C133.652 123.94 133.792 123.567 133.792 123.06C133.792 122.593 133.665 122.233 133.412 121.98C133.172 121.727 132.878 121.6 132.532 121.6H129.192ZM150.612 121.68H146.292V133H143.012V121.68H138.672V118.8H150.612V121.68ZM158.269 133.12C157.216 133.12 156.256 132.913 155.389 132.5C154.523 132.087 153.783 131.547 153.169 130.88C152.556 130.2 152.076 129.427 151.729 128.56C151.396 127.693 151.229 126.8 151.229 125.88C151.229 124.947 151.403 124.047 151.749 123.18C152.109 122.313 152.603 121.553 153.229 120.9C153.869 120.233 154.623 119.707 155.489 119.32C156.356 118.92 157.303 118.72 158.329 118.72C159.383 118.72 160.343 118.927 161.209 119.34C162.076 119.753 162.816 120.3 163.429 120.98C164.043 121.66 164.516 122.433 164.849 123.3C165.183 124.167 165.349 125.047 165.349 125.94C165.349 126.873 165.169 127.773 164.809 128.64C164.463 129.507 163.976 130.273 163.349 130.94C162.723 131.593 161.976 132.12 161.109 132.52C160.243 132.92 159.296 133.12 158.269 133.12ZM154.569 125.92C154.569 126.467 154.649 127 154.809 127.52C154.969 128.027 155.203 128.48 155.509 128.88C155.829 129.28 156.223 129.6 156.689 129.84C157.156 130.08 157.689 130.2 158.289 130.2C158.916 130.2 159.463 130.073 159.929 129.82C160.396 129.567 160.783 129.24 161.089 128.84C161.396 128.427 161.623 127.967 161.769 127.46C161.929 126.94 162.009 126.413 162.009 125.88C162.009 125.333 161.929 124.807 161.769 124.3C161.609 123.78 161.369 123.327 161.049 122.94C160.729 122.54 160.336 122.227 159.869 122C159.416 121.76 158.889 121.64 158.289 121.64C157.663 121.64 157.116 121.767 156.649 122.02C156.196 122.26 155.809 122.58 155.489 122.98C155.183 123.38 154.949 123.84 154.789 124.36C154.643 124.867 154.569 125.387 154.569 125.92ZM167.805 133V118.8H173.865C174.545 118.8 175.165 118.94 175.725 119.22C176.298 119.5 176.785 119.867 177.185 120.32C177.598 120.773 177.918 121.287 178.145 121.86C178.385 122.433 178.505 123.013 178.505 123.6C178.505 124.227 178.391 124.827 178.165 125.4C177.951 125.973 177.645 126.487 177.245 126.94C176.858 127.393 176.385 127.753 175.825 128.02C175.265 128.287 174.645 128.42 173.965 128.42H171.085V133H167.805ZM171.085 125.56H173.765C174.151 125.56 174.485 125.393 174.765 125.06C175.045 124.727 175.185 124.24 175.185 123.6C175.185 123.267 175.138 122.98 175.045 122.74C174.965 122.5 174.851 122.3 174.705 122.14C174.558 121.98 174.391 121.867 174.205 121.8C174.018 121.72 173.831 121.68 173.645 121.68H171.085V125.56ZM193.044 118.8V133H189.764V127.18H184.104V133H180.824V118.8H184.104V124.3H189.764V118.8H193.044ZM200.202 118.8H203.162L208.342 133H204.982L203.882 129.82H199.462L198.382 133H195.022L200.202 118.8ZM203.342 127.56L201.682 122.54L199.982 127.56H203.342ZM217.641 133V127.88H215.941L212.781 133H209.221L212.661 127.5C211.861 127.153 211.228 126.62 210.761 125.9C210.308 125.167 210.081 124.313 210.081 123.34C210.081 122.7 210.194 122.107 210.421 121.56C210.661 121.013 210.981 120.533 211.381 120.12C211.794 119.707 212.281 119.387 212.841 119.16C213.414 118.92 214.041 118.8 214.721 118.8H220.921V133H217.641ZM217.641 121.6H215.141C214.928 121.6 214.714 121.64 214.501 121.72C214.301 121.787 214.114 121.893 213.941 122.04C213.781 122.173 213.648 122.353 213.541 122.58C213.448 122.793 213.401 123.047 213.401 123.34C213.401 123.927 213.568 124.367 213.901 124.66C214.234 124.94 214.634 125.08 215.101 125.08H217.641V121.6ZM228.365 130.12H229.025C229.385 130.12 229.699 130.007 229.965 129.78C230.245 129.553 230.485 129.167 230.685 128.62C230.885 128.073 231.059 127.34 231.205 126.42C231.365 125.487 231.505 124.307 231.625 122.88L231.985 118.8H241.205V130.12H243.265V136.44H240.105V133H231.505V136.44H228.365V130.12ZM237.925 130.12V121.68H234.945L234.765 123.72C234.619 125.267 234.425 126.56 234.185 127.6C233.959 128.64 233.659 129.48 233.285 130.12H237.925ZM251.633 133.12C250.579 133.12 249.619 132.913 248.753 132.5C247.886 132.087 247.146 131.547 246.533 130.88C245.919 130.2 245.439 129.427 245.093 128.56C244.759 127.693 244.593 126.8 244.593 125.88C244.593 124.947 244.766 124.047 245.113 123.18C245.473 122.313 245.966 121.553 246.593 120.9C247.233 120.233 247.986 119.707 248.853 119.32C249.719 118.92 250.666 118.72 251.693 118.72C252.746 118.72 253.706 118.927 254.573 119.34C255.439 119.753 256.179 120.3 256.793 120.98C257.406 121.66 257.879 122.433 258.213 123.3C258.546 124.167 258.713 125.047 258.713 125.94C258.713 126.873 258.533 127.773 258.173 128.64C257.826 129.507 257.339 130.273 256.713 130.94C256.086 131.593 255.339 132.12 254.473 132.52C253.606 132.92 252.659 133.12 251.633 133.12ZM247.933 125.92C247.933 126.467 248.013 127 248.173 127.52C248.333 128.027 248.566 128.48 248.873 128.88C249.193 129.28 249.586 129.6 250.053 129.84C250.519 130.08 251.053 130.2 251.653 130.2C252.279 130.2 252.826 130.073 253.293 129.82C253.759 129.567 254.146 129.24 254.453 128.84C254.759 128.427 254.986 127.967 255.133 127.46C255.293 126.94 255.373 126.413 255.373 125.88C255.373 125.333 255.293 124.807 255.133 124.3C254.973 123.78 254.733 123.327 254.413 122.94C254.093 122.54 253.699 122.227 253.233 122C252.779 121.76 252.253 121.64 251.653 121.64C251.026 121.64 250.479 121.767 250.013 122.02C249.559 122.26 249.173 122.58 248.853 122.98C248.546 123.38 248.313 123.84 248.153 124.36C248.006 124.867 247.933 125.387 247.933 125.92ZM260.035 120.7C260.675 120.033 261.395 119.533 262.195 119.2C263.008 118.853 263.968 118.68 265.075 118.68C266.475 118.68 267.588 118.987 268.415 119.6C269.242 120.213 269.655 121.12 269.655 122.32C269.655 122.987 269.488 123.607 269.155 124.18C268.835 124.753 268.282 125.18 267.495 125.46C268.375 125.673 269.042 126.087 269.495 126.7C269.962 127.3 270.195 128.033 270.195 128.9C270.195 129.567 270.062 130.167 269.795 130.7C269.528 131.22 269.155 131.66 268.675 132.02C268.208 132.38 267.648 132.653 266.995 132.84C266.355 133.027 265.662 133.12 264.915 133.12C263.835 133.12 262.888 132.967 262.075 132.66C261.262 132.34 260.488 131.847 259.755 131.18L261.435 128.76C261.888 129.187 262.375 129.533 262.895 129.8C263.428 130.053 264.055 130.18 264.775 130.18C265.375 130.18 265.868 130.033 266.255 129.74C266.655 129.433 266.855 128.98 266.855 128.38C266.855 127.873 266.668 127.447 266.295 127.1C265.935 126.753 265.348 126.58 264.535 126.58H262.815V124.3H264.295C265.055 124.3 265.628 124.167 266.015 123.9C266.402 123.633 266.595 123.253 266.595 122.76C266.595 122.333 266.455 122.007 266.175 121.78C265.895 121.54 265.462 121.42 264.875 121.42C264.235 121.42 263.662 121.533 263.155 121.76C262.662 121.987 262.195 122.313 261.755 122.74L260.035 120.7ZM276.21 118.8H279.17L284.35 133H280.99L279.89 129.82H275.47L274.39 133H271.03L276.21 118.8ZM279.35 127.56L277.69 122.54L275.99 127.56H279.35Z" fill="#703E97"/>
<path d="M37.0783 179V176.085H29.7963V174.226L35.0213 163.16H37.2433L32.0183 174.226H37.0783V169.771H39.0583V174.226H40.7083V176.085H39.0583V179H37.0783ZM49.1878 179.33C48.1611 179.33 47.2444 179.099 46.4378 178.637C45.6384 178.168 45.0041 177.533 44.5348 176.734C44.0728 175.927 43.8418 175.011 43.8418 173.984V168.176C43.8418 167.149 44.0728 166.233 44.5348 165.426C45.0041 164.619 45.6384 163.985 46.4378 163.523C47.2444 163.061 48.1611 162.83 49.1878 162.83C50.2144 162.83 51.1311 163.061 51.9378 163.523C52.7444 163.985 53.3788 164.619 53.8408 165.426C54.3028 166.233 54.5338 167.149 54.5338 168.176V173.984C54.5338 175.011 54.3028 175.927 53.8408 176.734C53.3788 177.533 52.7444 178.168 51.9378 178.637C51.1311 179.099 50.2144 179.33 49.1878 179.33ZM49.1878 177.449C49.8111 177.449 50.3758 177.299 50.8818 176.998C51.3878 176.697 51.7911 176.294 52.0918 175.788C52.3924 175.275 52.5428 174.71 52.5428 174.094V168.055C52.5428 167.432 52.3924 166.867 52.0918 166.361C51.7911 165.855 51.3878 165.452 50.8818 165.151C50.3758 164.85 49.8111 164.7 49.1878 164.7C48.5718 164.7 48.0071 164.85 47.4938 165.151C46.9878 165.452 46.5844 165.855 46.2838 166.361C45.9831 166.867 45.8328 167.432 45.8328 168.055V174.094C45.8328 174.71 45.9831 175.275 46.2838 175.788C46.5844 176.294 46.9878 176.697 47.4938 176.998C48.0071 177.299 48.5718 177.449 49.1878 177.449ZM63.0065 179V167.12H64.6895L69.1995 176.338L73.7095 167.12H75.3925V179H73.5005V171.201L69.7165 179H68.6825L64.8985 171.201V179H63.0065ZM78.9648 179V167.12H87.2148V168.979H80.9228V179H78.9648ZM94.6921 179V167.12H96.3751L100.885 176.338L105.395 167.12H107.078V179H105.186V171.201L101.402 179H100.368L96.5841 171.201V179H94.6921ZM115.71 179.33C114.53 179.33 113.51 179.062 112.652 178.527C111.802 177.992 111.145 177.251 110.683 176.305C110.221 175.359 109.99 174.274 109.99 173.049C109.99 171.802 110.225 170.71 110.694 169.771C111.164 168.832 111.827 168.103 112.685 167.582C113.543 167.054 114.552 166.79 115.71 166.79C116.898 166.79 117.921 167.058 118.779 167.593C119.637 168.121 120.294 168.858 120.748 169.804C121.21 170.743 121.441 171.824 121.441 173.049C121.441 174.288 121.21 175.381 120.748 176.327C120.286 177.266 119.626 178.003 118.768 178.538C117.91 179.066 116.891 179.33 115.71 179.33ZM115.71 177.471C116.942 177.471 117.859 177.06 118.46 176.239C119.062 175.418 119.362 174.354 119.362 173.049C119.362 171.707 119.058 170.64 118.449 169.848C117.841 169.049 116.928 168.649 115.71 168.649C114.882 168.649 114.2 168.836 113.664 169.21C113.129 169.584 112.729 170.101 112.465 170.761C112.201 171.421 112.069 172.184 112.069 173.049C112.069 174.384 112.377 175.454 112.993 176.261C113.609 177.068 114.515 177.471 115.71 177.471ZM122.764 179L127.56 173.06L122.995 167.12H125.173L129.584 172.95V167.12H131.366V172.95L135.777 167.12H137.955L133.39 173.06L138.186 179H135.909L131.366 173.17V179H129.584V173.17L125.041 179H122.764ZM145.158 179.33C143.992 179.33 142.972 179.073 142.1 178.56C141.234 178.039 140.56 177.317 140.076 176.393C139.592 175.462 139.35 174.376 139.35 173.137C139.35 171.839 139.588 170.717 140.065 169.771C140.541 168.818 141.205 168.084 142.056 167.571C142.914 167.05 143.918 166.79 145.07 166.79C146.265 166.79 147.281 167.065 148.117 167.615C148.96 168.165 149.591 168.95 150.009 169.969C150.434 170.988 150.617 172.202 150.559 173.61H148.579V172.906C148.557 171.447 148.26 170.358 147.688 169.639C147.116 168.913 146.265 168.55 145.136 168.55C143.926 168.55 143.005 168.939 142.375 169.716C141.744 170.493 141.429 171.608 141.429 173.06C141.429 174.461 141.744 175.546 142.375 176.316C143.005 177.086 143.904 177.471 145.07 177.471C145.854 177.471 146.536 177.291 147.116 176.932C147.695 176.573 148.15 176.056 148.48 175.381L150.361 176.03C149.899 177.079 149.202 177.893 148.271 178.472C147.347 179.044 146.309 179.33 145.158 179.33ZM140.769 173.61V172.037H149.547V173.61H140.769ZM156.439 179V168.902H152.303V167.12H162.533V168.902H158.397V179H156.439ZM174.848 179.341C173.726 179.334 172.769 179.092 171.977 178.615C171.185 178.131 170.569 177.423 170.129 176.492C169.689 175.561 169.444 174.42 169.392 173.071C169.363 172.448 169.37 171.762 169.414 171.014C169.466 170.266 169.546 169.547 169.656 168.858C169.774 168.169 169.92 167.6 170.096 167.153C170.294 166.618 170.573 166.123 170.932 165.668C171.299 165.206 171.71 164.825 172.164 164.524C172.626 164.209 173.143 163.963 173.715 163.787C174.287 163.611 174.885 163.475 175.508 163.38C176.139 163.277 176.77 163.189 177.4 163.116C178.031 163.035 178.632 162.94 179.204 162.83L179.402 164.59C178.999 164.678 178.522 164.755 177.972 164.821C177.422 164.88 176.85 164.949 176.256 165.03C175.67 165.111 175.105 165.224 174.562 165.371C174.027 165.51 173.565 165.705 173.176 165.954C172.604 166.299 172.164 166.816 171.856 167.505C171.556 168.187 171.372 168.953 171.306 169.804C171.761 169.1 172.351 168.583 173.077 168.253C173.803 167.923 174.577 167.758 175.398 167.758C176.462 167.758 177.378 168.007 178.148 168.506C178.918 168.997 179.509 169.676 179.919 170.541C180.337 171.406 180.546 172.393 180.546 173.5C180.546 174.673 180.312 175.7 179.842 176.58C179.373 177.46 178.709 178.142 177.851 178.626C177.001 179.11 176 179.348 174.848 179.341ZM174.969 177.482C176.121 177.482 176.993 177.126 177.587 176.415C178.181 175.696 178.478 174.743 178.478 173.555C178.478 172.338 178.17 171.381 177.554 170.684C176.938 169.98 176.073 169.628 174.958 169.628C173.829 169.628 172.964 169.98 172.362 170.684C171.768 171.381 171.471 172.338 171.471 173.555C171.471 174.78 171.772 175.74 172.373 176.437C172.975 177.134 173.84 177.482 174.969 177.482ZM183.475 179L183.464 167.12H185.433V171.421H187.248C187.592 171.421 187.944 171.428 188.304 171.443C188.663 171.458 188.975 171.491 189.239 171.542C189.855 171.667 190.394 171.876 190.856 172.169C191.318 172.462 191.677 172.858 191.934 173.357C192.19 173.856 192.319 174.475 192.319 175.216C192.319 176.243 192.051 177.057 191.516 177.658C190.988 178.252 190.295 178.648 189.437 178.846C189.143 178.912 188.806 178.956 188.425 178.978C188.051 178.993 187.695 179 187.358 179H183.475ZM185.433 177.383H187.391C187.611 177.383 187.856 177.376 188.128 177.361C188.399 177.346 188.641 177.31 188.854 177.251C189.228 177.141 189.561 176.925 189.855 176.602C190.155 176.279 190.306 175.817 190.306 175.216C190.306 174.607 190.159 174.138 189.866 173.808C189.58 173.478 189.202 173.262 188.733 173.159C188.52 173.108 188.296 173.075 188.062 173.06C187.827 173.045 187.603 173.038 187.391 173.038H185.433V177.383ZM193.683 179V167.12H195.641V179H193.683ZM202.374 179V168.902H198.238V167.12H208.468V168.902H204.332V179H202.374ZM211.051 179L211.04 167.12H213.009V171.421H215.572C215.916 171.421 216.268 171.428 216.628 171.443C216.987 171.458 217.299 171.491 217.563 171.542C218.179 171.659 218.718 171.865 219.18 172.158C219.642 172.451 220.001 172.851 220.258 173.357C220.514 173.856 220.643 174.475 220.643 175.216C220.643 176.243 220.375 177.057 219.84 177.658C219.312 178.252 218.619 178.648 217.761 178.846C217.467 178.912 217.13 178.956 216.749 178.978C216.375 178.993 216.019 179 215.682 179H211.051ZM213.009 177.383H215.715C215.935 177.383 216.18 177.376 216.452 177.361C216.723 177.346 216.965 177.31 217.178 177.251C217.552 177.141 217.885 176.925 218.179 176.602C218.479 176.279 218.63 175.817 218.63 175.216C218.63 174.607 218.483 174.138 218.19 173.808C217.904 173.478 217.526 173.262 217.057 173.159C216.844 173.108 216.62 173.075 216.386 173.06C216.151 173.045 215.927 173.038 215.715 173.038H213.009V177.383ZM228.454 179V167.12H238.189V179H236.231V168.979H230.412V179H228.454ZM247.225 179.33C246.111 179.33 245.172 179.055 244.409 178.505C243.647 177.948 243.067 177.196 242.671 176.25C242.283 175.297 242.088 174.23 242.088 173.049C242.088 171.854 242.283 170.783 242.671 169.837C243.067 168.891 243.647 168.147 244.409 167.604C245.179 167.061 246.122 166.79 247.236 166.79C248.336 166.79 249.282 167.065 250.074 167.615C250.874 168.158 251.486 168.902 251.911 169.848C252.337 170.794 252.549 171.861 252.549 173.049C252.549 174.237 252.337 175.304 251.911 176.25C251.486 177.196 250.874 177.948 250.074 178.505C249.282 179.055 248.333 179.33 247.225 179.33ZM241.758 184.28V167.12H243.507V175.865H243.727V184.28H241.758ZM246.983 177.537C247.768 177.537 248.417 177.339 248.93 176.943C249.444 176.547 249.829 176.012 250.085 175.337C250.342 174.655 250.47 173.892 250.47 173.049C250.47 172.213 250.342 171.458 250.085 170.783C249.836 170.108 249.447 169.573 248.919 169.177C248.399 168.781 247.735 168.583 246.928 168.583C246.158 168.583 245.52 168.774 245.014 169.155C244.508 169.529 244.131 170.053 243.881 170.728C243.632 171.395 243.507 172.169 243.507 173.049C243.507 173.914 243.628 174.688 243.87 175.37C244.12 176.045 244.501 176.576 245.014 176.965C245.528 177.346 246.184 177.537 246.983 177.537ZM265.185 167.12V179H263.293V170.244L257.067 179H255.45V167.12H257.342V175.755L263.579 167.12H265.185ZM268.755 179V167.12H270.713V172.125H276.961V167.12H278.919V179H276.961V173.984H270.713V179H268.755ZM289.837 179V174.699H287.274C286.973 174.699 286.64 174.688 286.273 174.666C285.914 174.637 285.576 174.596 285.261 174.545C284.403 174.384 283.677 174.006 283.083 173.412C282.496 172.818 282.203 171.997 282.203 170.948C282.203 169.929 282.478 169.111 283.028 168.495C283.585 167.872 284.271 167.468 285.085 167.285C285.452 167.197 285.822 167.149 286.196 167.142C286.577 167.127 286.9 167.12 287.164 167.12H291.795L291.806 179H289.837ZM281.84 179L284.997 174.16H287.109L283.952 179H281.84ZM287.131 173.082H289.837V168.737H287.131C286.962 168.737 286.739 168.744 286.46 168.759C286.189 168.774 285.928 168.818 285.679 168.891C285.444 168.957 285.213 169.078 284.986 169.254C284.766 169.43 284.583 169.657 284.436 169.936C284.289 170.215 284.216 170.545 284.216 170.926C284.216 171.476 284.37 171.923 284.678 172.268C284.986 172.605 285.36 172.833 285.8 172.95C286.042 173.009 286.28 173.045 286.515 173.06C286.757 173.075 286.962 173.082 287.131 173.082ZM298.542 179V168.902H294.406V167.12H304.636V168.902H300.5V179H298.542ZM310.209 179.33C309.322 179.33 308.577 179.169 307.976 178.846C307.382 178.516 306.931 178.083 306.623 177.548C306.322 177.013 306.172 176.426 306.172 175.788C306.172 175.165 306.289 174.626 306.524 174.171C306.766 173.709 307.103 173.328 307.536 173.027C307.969 172.719 308.486 172.477 309.087 172.301C309.652 172.147 310.282 172.015 310.979 171.905C311.683 171.788 312.394 171.681 313.113 171.586C313.832 171.491 314.503 171.399 315.126 171.311L314.422 171.718C314.444 170.662 314.231 169.881 313.784 169.375C313.344 168.869 312.581 168.616 311.496 168.616C310.777 168.616 310.147 168.781 309.604 169.111C309.069 169.434 308.691 169.962 308.471 170.695L306.612 170.134C306.898 169.093 307.452 168.275 308.273 167.681C309.094 167.087 310.176 166.79 311.518 166.79C312.596 166.79 313.52 166.984 314.29 167.373C315.067 167.754 315.625 168.334 315.962 169.111C316.131 169.478 316.237 169.877 316.281 170.31C316.325 170.735 316.347 171.183 316.347 171.652V179H314.609V176.151L315.016 176.415C314.569 177.376 313.942 178.102 313.135 178.593C312.336 179.084 311.36 179.33 310.209 179.33ZM310.506 177.691C311.21 177.691 311.819 177.566 312.332 177.317C312.853 177.06 313.271 176.727 313.586 176.316C313.901 175.898 314.107 175.443 314.202 174.952C314.312 174.585 314.371 174.178 314.378 173.731C314.393 173.276 314.4 172.928 314.4 172.686L315.082 172.983C314.444 173.071 313.817 173.155 313.201 173.236C312.585 173.317 312.002 173.405 311.452 173.5C310.902 173.588 310.407 173.694 309.967 173.819C309.644 173.922 309.34 174.054 309.054 174.215C308.775 174.376 308.548 174.585 308.372 174.842C308.203 175.091 308.119 175.403 308.119 175.777C308.119 176.1 308.2 176.408 308.361 176.701C308.53 176.994 308.786 177.233 309.131 177.416C309.483 177.599 309.941 177.691 310.506 177.691ZM324.6 179V167.12H326.558V172.125H332.806V167.12H334.764V179H332.806V173.984H326.558V179H324.6ZM343.494 179.33C342.328 179.33 341.308 179.073 340.436 178.56C339.57 178.039 338.896 177.317 338.412 176.393C337.928 175.462 337.686 174.376 337.686 173.137C337.686 171.839 337.924 170.717 338.401 169.771C338.877 168.818 339.541 168.084 340.392 167.571C341.25 167.05 342.254 166.79 343.406 166.79C344.601 166.79 345.617 167.065 346.453 167.615C347.296 168.165 347.927 168.95 348.345 169.969C348.77 170.988 348.953 172.202 348.895 173.61H346.915V172.906C346.893 171.447 346.596 170.358 346.024 169.639C345.452 168.913 344.601 168.55 343.472 168.55C342.262 168.55 341.341 168.939 340.711 169.716C340.08 170.493 339.765 171.608 339.765 173.06C339.765 174.461 340.08 175.546 340.711 176.316C341.341 177.086 342.24 177.471 343.406 177.471C344.19 177.471 344.872 177.291 345.452 176.932C346.031 176.573 346.486 176.056 346.816 175.381L348.697 176.03C348.235 177.079 347.538 177.893 346.607 178.472C345.683 179.044 344.645 179.33 343.494 179.33ZM339.105 173.61V172.037H347.883V173.61H339.105ZM54.8437 209.33C53.729 209.33 52.7903 209.055 52.0277 208.505C51.265 207.948 50.6857 207.196 50.2897 206.25C49.901 205.297 49.7067 204.23 49.7067 203.049C49.7067 201.854 49.901 200.783 50.2897 199.837C50.6857 198.891 51.265 198.147 52.0277 197.604C52.7977 197.061 53.74 196.79 54.8547 196.79C55.9547 196.79 56.9007 197.065 57.6927 197.615C58.492 198.158 59.1043 198.902 59.5297 199.848C59.955 200.794 60.1677 201.861 60.1677 203.049C60.1677 204.237 59.955 205.304 59.5297 206.25C59.1043 207.196 58.492 207.948 57.6927 208.505C56.9007 209.055 55.951 209.33 54.8437 209.33ZM49.3767 214.28V197.12H51.1257V205.865H51.3457V214.28H49.3767ZM54.6017 207.537C55.3863 207.537 56.0353 207.339 56.5487 206.943C57.062 206.547 57.447 206.012 57.7037 205.337C57.9603 204.655 58.0887 203.892 58.0887 203.049C58.0887 202.213 57.9603 201.458 57.7037 200.783C57.4543 200.108 57.0657 199.573 56.5377 199.177C56.017 198.781 55.3533 198.583 54.5467 198.583C53.7767 198.583 53.1387 198.774 52.6327 199.155C52.1267 199.529 51.749 200.053 51.4997 200.728C51.2503 201.395 51.1257 202.169 51.1257 203.049C51.1257 203.914 51.2467 204.688 51.4887 205.37C51.738 206.045 52.1193 206.576 52.6327 206.965C53.146 207.346 53.8023 207.537 54.6017 207.537ZM66.4561 209.33C65.5687 209.33 64.8244 209.169 64.2231 208.846C63.6291 208.516 63.1781 208.083 62.8701 207.548C62.5694 207.013 62.4191 206.426 62.4191 205.788C62.4191 205.165 62.5364 204.626 62.7711 204.171C63.0131 203.709 63.3504 203.328 63.7831 203.027C64.2157 202.719 64.7327 202.477 65.3341 202.301C65.8987 202.147 66.5294 202.015 67.2261 201.905C67.9301 201.788 68.6414 201.681 69.3601 201.586C70.0787 201.491 70.7497 201.399 71.3731 201.311L70.6691 201.718C70.6911 200.662 70.4784 199.881 70.0311 199.375C69.5911 198.869 68.8284 198.616 67.7431 198.616C67.0244 198.616 66.3937 198.781 65.8511 199.111C65.3157 199.434 64.9381 199.962 64.7181 200.695L62.8591 200.134C63.1451 199.093 63.6987 198.275 64.5201 197.681C65.3414 197.087 66.4231 196.79 67.7651 196.79C68.8431 196.79 69.7671 196.984 70.5371 197.373C71.3144 197.754 71.8717 198.334 72.2091 199.111C72.3777 199.478 72.4841 199.877 72.5281 200.31C72.5721 200.735 72.5941 201.183 72.5941 201.652V209H70.8561V206.151L71.2631 206.415C70.8157 207.376 70.1887 208.102 69.3821 208.593C68.5827 209.084 67.6074 209.33 66.4561 209.33ZM66.7531 207.691C67.4571 207.691 68.0657 207.566 68.5791 207.317C69.0997 207.06 69.5177 206.727 69.8331 206.316C70.1484 205.898 70.3537 205.443 70.4491 204.952C70.5591 204.585 70.6177 204.178 70.6251 203.731C70.6397 203.276 70.6471 202.928 70.6471 202.686L71.3291 202.983C70.6911 203.071 70.0641 203.155 69.4481 203.236C68.8321 203.317 68.2491 203.405 67.6991 203.5C67.1491 203.588 66.6541 203.694 66.2141 203.819C65.8914 203.922 65.5871 204.054 65.3011 204.215C65.0224 204.376 64.7951 204.585 64.6191 204.842C64.4504 205.091 64.3661 205.403 64.3661 205.777C64.3661 206.1 64.4467 206.408 64.6081 206.701C64.7767 206.994 65.0334 207.233 65.3781 207.416C65.7301 207.599 66.1884 207.691 66.7531 207.691ZM75.9431 209V197.12H77.9011V202.125H84.1491V197.12H86.1071V209H84.1491V203.984H77.9011V209H75.9431ZM89.6884 209L89.6774 197.12H91.6464V201.421H94.2094C94.5541 201.421 94.9061 201.428 95.2654 201.443C95.6248 201.458 95.9364 201.491 96.2004 201.542C96.8164 201.659 97.3554 201.865 97.8174 202.158C98.2794 202.451 98.6388 202.851 98.8954 203.357C99.1521 203.856 99.2804 204.475 99.2804 205.216C99.2804 206.243 99.0128 207.057 98.4774 207.658C97.9494 208.252 97.2564 208.648 96.3984 208.846C96.1051 208.912 95.7678 208.956 95.3864 208.978C95.0124 208.993 94.6568 209 94.3194 209H89.6884ZM91.6464 207.383H94.3524C94.5724 207.383 94.8181 207.376 95.0894 207.361C95.3608 207.346 95.6028 207.31 95.8154 207.251C96.1894 207.141 96.5231 206.925 96.8164 206.602C97.1171 206.279 97.2674 205.817 97.2674 205.216C97.2674 204.607 97.1208 204.138 96.8274 203.808C96.5414 203.478 96.1638 203.262 95.6944 203.159C95.4818 203.108 95.2581 203.075 95.0234 203.06C94.7888 203.045 94.5651 203.038 94.3524 203.038H91.6464V207.383ZM101.865 209V197.12H103.757V207.218H107.849V197.12H109.741V207.218H113.822V197.12H115.714V209H101.865ZM124.432 209.33C123.266 209.33 122.247 209.073 121.374 208.56C120.509 208.039 119.834 207.317 119.35 206.393C118.866 205.462 118.624 204.376 118.624 203.137C118.624 201.839 118.862 200.717 119.339 199.771C119.816 198.818 120.479 198.084 121.33 197.571C122.188 197.05 123.193 196.79 124.344 196.79C125.539 196.79 126.555 197.065 127.391 197.615C128.234 198.165 128.865 198.95 129.283 199.969C129.708 200.988 129.892 202.202 129.833 203.61H127.853V202.906C127.831 201.447 127.534 200.358 126.962 199.639C126.39 198.913 125.539 198.55 124.41 198.55C123.2 198.55 122.28 198.939 121.649 199.716C121.018 200.493 120.703 201.608 120.703 203.06C120.703 204.461 121.018 205.546 121.649 206.316C122.28 207.086 123.178 207.471 124.344 207.471C125.129 207.471 125.811 207.291 126.39 206.932C126.969 206.573 127.424 206.056 127.754 205.381L129.635 206.03C129.173 207.079 128.476 207.893 127.545 208.472C126.621 209.044 125.583 209.33 124.432 209.33ZM120.043 203.61V202.037H128.821V203.61H120.043ZM132.133 211.464L132.254 210.551C132.562 210.573 132.793 210.514 132.947 210.375C133.101 210.236 133.2 210.045 133.244 209.803C133.288 209.561 133.295 209.293 133.266 209H132.133V206.514H134.289V209.33C134.289 210.1 134.098 210.679 133.716 211.068C133.343 211.457 132.815 211.589 132.133 211.464ZM151.03 209V204.721C150.634 204.919 150.154 205.088 149.589 205.227C149.032 205.366 148.434 205.436 147.796 205.436C146.586 205.436 145.611 205.165 144.87 204.622C144.129 204.079 143.645 203.298 143.418 202.279C143.352 201.971 143.304 201.652 143.275 201.322C143.253 200.992 143.238 200.691 143.231 200.42C143.224 200.149 143.22 199.951 143.22 199.826V197.12H145.2V199.826C145.2 200.039 145.207 200.303 145.222 200.618C145.237 200.926 145.273 201.227 145.332 201.52C145.479 202.246 145.783 202.792 146.245 203.159C146.714 203.526 147.374 203.709 148.225 203.709C148.797 203.709 149.325 203.636 149.809 203.489C150.293 203.342 150.7 203.148 151.03 202.906V197.12H152.999V209H151.03ZM161.731 209.33C160.565 209.33 159.546 209.073 158.673 208.56C157.808 208.039 157.133 207.317 156.649 206.393C156.165 205.462 155.923 204.376 155.923 203.137C155.923 201.839 156.161 200.717 156.638 199.771C157.115 198.818 157.778 198.084 158.629 197.571C159.487 197.05 160.492 196.79 161.643 196.79C162.838 196.79 163.854 197.065 164.69 197.615C165.533 198.165 166.164 198.95 166.582 199.969C167.007 200.988 167.191 202.202 167.132 203.61H165.152V202.906C165.13 201.447 164.833 200.358 164.261 199.639C163.689 198.913 162.838 198.55 161.709 198.55C160.499 198.55 159.579 198.939 158.948 199.716C158.317 200.493 158.002 201.608 158.002 203.06C158.002 204.461 158.317 205.546 158.948 206.316C159.579 207.086 160.477 207.471 161.643 207.471C162.428 207.471 163.11 207.291 163.689 206.932C164.268 206.573 164.723 206.056 165.053 205.381L166.934 206.03C166.472 207.079 165.775 207.893 164.844 208.472C163.92 209.044 162.882 209.33 161.731 209.33ZM157.342 203.61V202.037H166.12V203.61H157.342ZM169.748 209V197.12H171.431L175.941 206.338L180.451 197.12H182.134V209H180.242V201.201L176.458 209H175.424L171.64 201.201V209H169.748ZM37.2595 239V227.12H46.9945V239H45.0365V228.979H39.2175V239H37.2595ZM55.6352 239.33C54.4545 239.33 53.4352 239.062 52.5772 238.527C51.7265 237.992 51.0702 237.251 50.6082 236.305C50.1462 235.359 49.9152 234.274 49.9152 233.049C49.9152 231.802 50.1498 230.71 50.6192 229.771C51.0885 228.832 51.7522 228.103 52.6102 227.582C53.4682 227.054 54.4765 226.79 55.6352 226.79C56.8232 226.79 57.8462 227.058 58.7042 227.593C59.5622 228.121 60.2185 228.858 60.6732 229.804C61.1352 230.743 61.3662 231.824 61.3662 233.049C61.3662 234.288 61.1352 235.381 60.6732 236.327C60.2112 237.266 59.5512 238.003 58.6932 238.538C57.8352 239.066 56.8158 239.33 55.6352 239.33ZM55.6352 237.471C56.8672 237.471 57.7838 237.06 58.3852 236.239C58.9865 235.418 59.2872 234.354 59.2872 233.049C59.2872 231.707 58.9828 230.64 58.3742 229.848C57.7655 229.049 56.8525 228.649 55.6352 228.649C54.8065 228.649 54.1245 228.836 53.5892 229.21C53.0538 229.584 52.6542 230.101 52.3902 230.761C52.1262 231.421 51.9942 232.184 51.9942 233.049C51.9942 234.384 52.3022 235.454 52.9182 236.261C53.5342 237.068 54.4398 237.471 55.6352 237.471ZM69.293 239.33C68.0904 239.33 67.0674 239.062 66.224 238.527C65.388 237.984 64.75 237.24 64.31 236.294C63.87 235.348 63.6427 234.27 63.628 233.06C63.6427 231.821 63.8737 230.732 64.321 229.793C64.7757 228.847 65.4247 228.11 66.268 227.582C67.1114 227.054 68.127 226.79 69.315 226.79C70.569 226.79 71.647 227.098 72.549 227.714C73.4584 228.33 74.067 229.173 74.375 230.244L72.439 230.827C72.1897 230.138 71.7827 229.602 71.218 229.221C70.6607 228.84 70.019 228.649 69.293 228.649C68.479 228.649 67.808 228.84 67.28 229.221C66.752 229.595 66.3597 230.116 66.103 230.783C65.8464 231.443 65.7144 232.202 65.707 233.06C65.7217 234.38 66.026 235.447 66.62 236.261C67.2214 237.068 68.1124 237.471 69.293 237.471C70.0704 237.471 70.7157 237.295 71.229 236.943C71.7424 236.584 72.131 236.067 72.395 235.392L74.375 235.909C73.9644 237.016 73.3227 237.863 72.45 238.45C71.5774 239.037 70.525 239.33 69.293 239.33ZM75.6978 239V237.317C76.1378 237.398 76.4715 237.383 76.6988 237.273C76.9335 237.156 77.1058 236.954 77.2158 236.668C77.3331 236.375 77.4285 236.008 77.5018 235.568C77.6265 234.871 77.7328 234.094 77.8208 233.236C77.9161 232.378 78.0005 231.439 78.0738 230.42C78.1545 229.393 78.2278 228.293 78.2938 227.12H86.5988V239H84.6408V228.979H80.0758C80.0318 229.654 79.9768 230.347 79.9108 231.058C79.8521 231.769 79.7898 232.462 79.7238 233.137C79.6578 233.804 79.5845 234.428 79.5038 235.007C79.4305 235.579 79.3498 236.074 79.2618 236.492C79.1225 237.211 78.9281 237.786 78.6788 238.219C78.4295 238.644 78.0701 238.919 77.6008 239.044C77.1315 239.176 76.4971 239.161 75.6978 239ZM95.3364 239.33C94.1704 239.33 93.1511 239.073 92.2784 238.56C91.4131 238.039 90.7384 237.317 90.2544 236.393C89.7704 235.462 89.5284 234.376 89.5284 233.137C89.5284 231.839 89.7668 230.717 90.2434 229.771C90.7201 228.818 91.3838 228.084 92.2344 227.571C93.0924 227.05 94.0971 226.79 95.2484 226.79C96.4438 226.79 97.4594 227.065 98.2954 227.615C99.1388 228.165 99.7694 228.95 100.187 229.969C100.613 230.988 100.796 232.202 100.737 233.61H98.7574V232.906C98.7354 231.447 98.4384 230.358 97.8664 229.639C97.2944 228.913 96.4438 228.55 95.3144 228.55C94.1044 228.55 93.1841 228.939 92.5534 229.716C91.9228 230.493 91.6074 231.608 91.6074 233.06C91.6074 234.461 91.9228 235.546 92.5534 236.316C93.1841 237.086 94.0824 237.471 95.2484 237.471C96.0331 237.471 96.7151 237.291 97.2944 236.932C97.8738 236.573 98.3284 236.056 98.6584 235.381L100.539 236.03C100.077 237.079 99.3808 237.893 98.4494 238.472C97.5254 239.044 96.4878 239.33 95.3364 239.33ZM90.9474 233.61V232.037H99.7254V233.61H90.9474ZM108.58 239V227.12H118.315V239H116.357V228.979H110.538V239H108.58ZM127.351 239.33C126.237 239.33 125.298 239.055 124.535 238.505C123.773 237.948 123.193 237.196 122.797 236.25C122.409 235.297 122.214 234.23 122.214 233.049C122.214 231.854 122.409 230.783 122.797 229.837C123.193 228.891 123.773 228.147 124.535 227.604C125.305 227.061 126.248 226.79 127.362 226.79C128.462 226.79 129.408 227.065 130.2 227.615C131 228.158 131.612 228.902 132.037 229.848C132.463 230.794 132.675 231.861 132.675 233.049C132.675 234.237 132.463 235.304 132.037 236.25C131.612 237.196 131 237.948 130.2 238.505C129.408 239.055 128.459 239.33 127.351 239.33ZM121.884 244.28V227.12H123.633V235.865H123.853V244.28H121.884ZM127.109 237.537C127.894 237.537 128.543 237.339 129.056 236.943C129.57 236.547 129.955 236.012 130.211 235.337C130.468 234.655 130.596 233.892 130.596 233.049C130.596 232.213 130.468 231.458 130.211 230.783C129.962 230.108 129.573 229.573 129.045 229.177C128.525 228.781 127.861 228.583 127.054 228.583C126.284 228.583 125.646 228.774 125.14 229.155C124.634 229.529 124.257 230.053 124.007 230.728C123.758 231.395 123.633 232.169 123.633 233.049C123.633 233.914 123.754 234.688 123.996 235.37C124.246 236.045 124.627 236.576 125.14 236.965C125.654 237.346 126.31 237.537 127.109 237.537ZM145.311 227.12V239H143.419V230.244L137.193 239H135.576V227.12H137.468V235.755L143.705 227.12H145.311ZM154.04 239.33C152.874 239.33 151.854 239.073 150.982 238.56C150.116 238.039 149.442 237.317 148.958 236.393C148.474 235.462 148.232 234.376 148.232 233.137C148.232 231.839 148.47 230.717 148.947 229.771C149.423 228.818 150.087 228.084 150.938 227.571C151.796 227.05 152.8 226.79 153.952 226.79C155.147 226.79 156.163 227.065 156.999 227.615C157.842 228.165 158.473 228.95 158.891 229.969C159.316 230.988 159.499 232.202 159.441 233.61H157.461V232.906C157.439 231.447 157.142 230.358 156.57 229.639C155.998 228.913 155.147 228.55 154.018 228.55C152.808 228.55 151.887 228.939 151.257 229.716C150.626 230.493 150.311 231.608 150.311 233.06C150.311 234.461 150.626 235.546 151.257 236.316C151.887 237.086 152.786 237.471 153.952 237.471C154.736 237.471 155.418 237.291 155.998 236.932C156.577 236.573 157.032 236.056 157.362 235.381L159.243 236.03C158.781 237.079 158.084 237.893 157.153 238.472C156.229 239.044 155.191 239.33 154.04 239.33ZM149.651 233.61V232.037H158.429V233.61H149.651ZM162.056 239V227.12H163.739L168.249 236.338L172.759 227.12H174.442V239H172.55V231.201L168.766 239H167.732L163.948 231.201V239H162.056ZM181.392 239.33C180.504 239.33 179.76 239.169 179.159 238.846C178.565 238.516 178.114 238.083 177.806 237.548C177.505 237.013 177.355 236.426 177.355 235.788C177.355 235.165 177.472 234.626 177.707 234.171C177.949 233.709 178.286 233.328 178.719 233.027C179.151 232.719 179.668 232.477 180.27 232.301C180.834 232.147 181.465 232.015 182.162 231.905C182.866 231.788 183.577 231.681 184.296 231.586C185.014 231.491 185.685 231.399 186.309 231.311L185.605 231.718C185.627 230.662 185.414 229.881 184.967 229.375C184.527 228.869 183.764 228.616 182.679 228.616C181.96 228.616 181.329 228.781 180.787 229.111C180.251 229.434 179.874 229.962 179.654 230.695L177.795 230.134C178.081 229.093 178.634 228.275 179.456 227.681C180.277 227.087 181.359 226.79 182.701 226.79C183.779 226.79 184.703 226.984 185.473 227.373C186.25 227.754 186.807 228.334 187.145 229.111C187.313 229.478 187.42 229.877 187.464 230.31C187.508 230.735 187.53 231.183 187.53 231.652V239H185.792V236.151L186.199 236.415C185.751 237.376 185.124 238.102 184.318 238.593C183.518 239.084 182.543 239.33 181.392 239.33ZM181.689 237.691C182.393 237.691 183.001 237.566 183.515 237.317C184.035 237.06 184.453 236.727 184.769 236.316C185.084 235.898 185.289 235.443 185.385 234.952C185.495 234.585 185.553 234.178 185.561 233.731C185.575 233.276 185.583 232.928 185.583 232.686L186.265 232.983C185.627 233.071 185 233.155 184.384 233.236C183.768 233.317 183.185 233.405 182.635 233.5C182.085 233.588 181.59 233.694 181.15 233.819C180.827 233.922 180.523 234.054 180.237 234.215C179.958 234.376 179.731 234.585 179.555 234.842C179.386 235.091 179.302 235.403 179.302 235.777C179.302 236.1 179.382 236.408 179.544 236.701C179.712 236.994 179.969 237.233 180.314 237.416C180.666 237.599 181.124 237.691 181.689 237.691ZM195.783 239V227.12H205.518V239H203.56V228.979H197.741V239H195.783ZM214.247 239.33C213.081 239.33 212.061 239.073 211.189 238.56C210.323 238.039 209.649 237.317 209.165 236.393C208.681 235.462 208.439 234.376 208.439 233.137C208.439 231.839 208.677 230.717 209.154 229.771C209.63 228.818 210.294 228.084 211.145 227.571C212.003 227.05 213.007 226.79 214.159 226.79C215.354 226.79 216.37 227.065 217.206 227.615C218.049 228.165 218.68 228.95 219.098 229.969C219.523 230.988 219.706 232.202 219.648 233.61H217.668V232.906C217.646 231.447 217.349 230.358 216.777 229.639C216.205 228.913 215.354 228.55 214.225 228.55C213.015 228.55 212.094 228.939 211.464 229.716C210.833 230.493 210.518 231.608 210.518 233.06C210.518 234.461 210.833 235.546 211.464 236.316C212.094 237.086 212.993 237.471 214.159 237.471C214.943 237.471 215.625 237.291 216.205 236.932C216.784 236.573 217.239 236.056 217.569 235.381L219.45 236.03C218.988 237.079 218.291 237.893 217.36 238.472C216.436 239.044 215.398 239.33 214.247 239.33ZM209.858 233.61V232.037H218.636V233.61H209.858ZM228.053 239.33C226.938 239.33 225.999 239.055 225.237 238.505C224.474 237.948 223.895 237.196 223.499 236.25C223.11 235.297 222.916 234.23 222.916 233.049C222.916 231.854 223.11 230.783 223.499 229.837C223.895 228.891 224.474 228.147 225.237 227.604C226.007 227.061 226.949 226.79 228.064 226.79C229.164 226.79 230.11 227.065 230.902 227.615C231.701 228.158 232.313 228.902 232.739 229.848C233.164 230.794 233.377 231.861 233.377 233.049C233.377 234.237 233.164 235.304 232.739 236.25C232.313 237.196 231.701 237.948 230.902 238.505C230.11 239.055 229.16 239.33 228.053 239.33ZM222.586 244.28V227.12H224.335V235.865H224.555V244.28H222.586ZM227.811 237.537C228.595 237.537 229.244 237.339 229.758 236.943C230.271 236.547 230.656 236.012 230.913 235.337C231.169 234.655 231.298 233.892 231.298 233.049C231.298 232.213 231.169 231.458 230.913 230.783C230.663 230.108 230.275 229.573 229.747 229.177C229.226 228.781 228.562 228.583 227.756 228.583C226.986 228.583 226.348 228.774 225.842 229.155C225.336 229.529 224.958 230.053 224.709 230.728C224.459 231.395 224.335 232.169 224.335 233.049C224.335 233.914 224.456 234.688 224.698 235.37C224.947 236.045 225.328 236.576 225.842 236.965C226.355 237.346 227.011 237.537 227.811 237.537ZM236.277 239V227.12H241.337C241.638 227.12 241.96 227.138 242.305 227.175C242.657 227.204 242.976 227.259 243.262 227.34C243.9 227.509 244.424 227.857 244.835 228.385C245.253 228.906 245.462 229.566 245.462 230.365C245.462 230.812 245.392 231.201 245.253 231.531C245.121 231.861 244.93 232.147 244.681 232.389C244.571 232.499 244.45 232.598 244.318 232.686C244.186 232.774 244.054 232.844 243.922 232.895C244.179 232.939 244.439 233.038 244.703 233.192C245.121 233.419 245.447 233.738 245.682 234.149C245.924 234.56 246.045 235.084 246.045 235.722C246.045 236.529 245.851 237.196 245.462 237.724C245.073 238.245 244.538 238.604 243.856 238.802C243.57 238.883 243.255 238.938 242.91 238.967C242.565 238.989 242.232 239 241.909 239H236.277ZM238.257 237.405H241.799C241.953 237.405 242.136 237.39 242.349 237.361C242.569 237.332 242.763 237.295 242.932 237.251C243.313 237.141 243.588 236.936 243.757 236.635C243.933 236.334 244.021 236.008 244.021 235.656C244.021 235.187 243.889 234.805 243.625 234.512C243.368 234.219 243.027 234.035 242.602 233.962C242.448 233.918 242.279 233.892 242.096 233.885C241.92 233.878 241.762 233.874 241.623 233.874H238.257V237.405ZM238.257 232.257H241.205C241.41 232.257 241.627 232.246 241.854 232.224C242.081 232.195 242.279 232.147 242.448 232.081C242.785 231.956 243.031 231.751 243.185 231.465C243.346 231.172 243.427 230.853 243.427 230.508C243.427 230.127 243.339 229.793 243.163 229.507C242.994 229.214 242.734 229.012 242.382 228.902C242.147 228.814 241.883 228.766 241.59 228.759C241.304 228.744 241.121 228.737 241.04 228.737H238.257V232.257ZM253.815 239.33C252.634 239.33 251.615 239.062 250.757 238.527C249.906 237.992 249.25 237.251 248.788 236.305C248.326 235.359 248.095 234.274 248.095 233.049C248.095 231.802 248.33 230.71 248.799 229.771C249.268 228.832 249.932 228.103 250.79 227.582C251.648 227.054 252.656 226.79 253.815 226.79C255.003 226.79 256.026 227.058 256.884 227.593C257.742 228.121 258.398 228.858 258.853 229.804C259.315 230.743 259.546 231.824 259.546 233.049C259.546 234.288 259.315 235.381 258.853 236.327C258.391 237.266 257.731 238.003 256.873 238.538C256.015 239.066 254.996 239.33 253.815 239.33ZM253.815 237.471C255.047 237.471 255.964 237.06 256.565 236.239C257.166 235.418 257.467 234.354 257.467 233.049C257.467 231.707 257.163 230.64 256.554 229.848C255.945 229.049 255.032 228.649 253.815 228.649C252.986 228.649 252.304 228.836 251.769 229.21C251.234 229.584 250.834 230.101 250.57 230.761C250.306 231.421 250.174 232.184 250.174 233.049C250.174 234.384 250.482 235.454 251.098 236.261C251.714 237.068 252.62 237.471 253.815 237.471ZM267.583 225.734C267.033 225.734 266.53 225.598 266.076 225.327C265.621 225.056 265.258 224.696 264.987 224.249C264.715 223.794 264.58 223.288 264.58 222.731H266.164C266.164 223.12 266.303 223.453 266.582 223.732C266.86 224.011 267.194 224.15 267.583 224.15C267.979 224.15 268.312 224.011 268.584 223.732C268.862 223.453 269.002 223.12 269.002 222.731H270.586C270.586 223.288 270.45 223.794 270.179 224.249C269.915 224.696 269.552 225.056 269.09 225.327C268.635 225.598 268.133 225.734 267.583 225.734ZM272.192 227.12V239H270.3V230.244L264.074 239H262.457V227.12H264.349V235.755L270.586 227.12H272.192ZM279.797 241.64V237.383C280.464 237.383 280.941 237.167 281.227 236.734C281.513 236.294 281.744 235.572 281.92 234.567C282.037 233.936 282.132 233.262 282.206 232.543C282.279 231.824 282.341 231.025 282.393 230.145C282.451 229.258 282.506 228.249 282.558 227.12H290.742V237.383H291.897V241.64H290.027V239H281.667V241.64H279.797ZM282.811 237.383H288.784V228.737H284.329C284.307 229.258 284.277 229.804 284.241 230.376C284.204 230.941 284.16 231.505 284.109 232.07C284.065 232.635 284.01 233.17 283.944 233.676C283.885 234.175 283.815 234.622 283.735 235.018C283.639 235.568 283.529 236.034 283.405 236.415C283.28 236.796 283.082 237.119 282.811 237.383ZM299.235 239.33C298.054 239.33 297.035 239.062 296.177 238.527C295.326 237.992 294.67 237.251 294.208 236.305C293.746 235.359 293.515 234.274 293.515 233.049C293.515 231.802 293.749 230.71 294.219 229.771C294.688 228.832 295.352 228.103 296.21 227.582C297.068 227.054 298.076 226.79 299.235 226.79C300.423 226.79 301.446 227.058 302.304 227.593C303.162 228.121 303.818 228.858 304.273 229.804C304.735 230.743 304.966 231.824 304.966 233.049C304.966 234.288 304.735 235.381 304.273 236.327C303.811 237.266 303.151 238.003 302.293 238.538C301.435 239.066 300.415 239.33 299.235 239.33ZM299.235 237.471C300.467 237.471 301.383 237.06 301.985 236.239C302.586 235.418 302.887 234.354 302.887 233.049C302.887 231.707 302.582 230.64 301.974 229.848C301.365 229.049 300.452 228.649 299.235 228.649C298.406 228.649 297.724 228.836 297.189 229.21C296.653 229.584 296.254 230.101 295.99 230.761C295.726 231.421 295.594 232.184 295.594 233.049C295.594 234.384 295.902 235.454 296.518 236.261C297.134 237.068 298.039 237.471 299.235 237.471ZM311.865 239.33C310.692 239.33 309.654 239.077 308.752 238.571C307.85 238.058 307.139 237.354 306.618 236.459L308.18 235.447C308.613 236.1 309.13 236.602 309.731 236.954C310.333 237.299 311.018 237.471 311.788 237.471C312.595 237.471 313.237 237.288 313.713 236.921C314.19 236.547 314.428 236.045 314.428 235.414C314.428 234.945 314.311 234.585 314.076 234.336C313.842 234.087 313.504 233.914 313.064 233.819C312.624 233.724 312.1 233.676 311.491 233.676H310.259V232.059H311.48C312.25 232.059 312.877 231.934 313.361 231.685C313.845 231.436 314.087 231.01 314.087 230.409C314.087 229.793 313.86 229.346 313.405 229.067C312.958 228.781 312.423 228.638 311.799 228.638C311.139 228.638 310.509 228.777 309.907 229.056C309.306 229.327 308.789 229.672 308.356 230.09L307.168 228.759C307.784 228.128 308.492 227.644 309.291 227.307C310.098 226.962 310.974 226.79 311.92 226.79C312.683 226.79 313.38 226.926 314.01 227.197C314.648 227.461 315.154 227.853 315.528 228.374C315.91 228.887 316.1 229.514 316.1 230.255C316.1 230.886 315.954 231.447 315.66 231.938C315.367 232.429 314.934 232.858 314.362 233.225L314.285 232.532C314.769 232.649 315.169 232.866 315.484 233.181C315.807 233.489 316.045 233.856 316.199 234.281C316.353 234.706 316.43 235.15 316.43 235.612C316.43 236.389 316.225 237.057 315.814 237.614C315.411 238.164 314.865 238.589 314.175 238.89C313.486 239.183 312.716 239.33 311.865 239.33ZM319.345 239L319.334 227.12H321.303V231.421H323.118C323.462 231.421 323.814 231.428 324.174 231.443C324.533 231.458 324.845 231.491 325.109 231.542C325.725 231.667 326.264 231.876 326.726 232.169C327.188 232.462 327.547 232.858 327.804 233.357C328.06 233.856 328.189 234.475 328.189 235.216C328.189 236.243 327.921 237.057 327.386 237.658C326.858 238.252 326.165 238.648 325.307 238.846C325.013 238.912 324.676 238.956 324.295 238.978C323.921 238.993 323.565 239 323.228 239H319.345ZM321.303 237.383H323.261C323.481 237.383 323.726 237.376 323.998 237.361C324.269 237.346 324.511 237.31 324.724 237.251C325.098 237.141 325.431 236.925 325.725 236.602C326.025 236.279 326.176 235.817 326.176 235.216C326.176 234.607 326.029 234.138 325.736 233.808C325.45 233.478 325.072 233.262 324.603 233.159C324.39 233.108 324.166 233.075 323.932 233.06C323.697 233.045 323.473 233.038 323.261 233.038H321.303V237.383ZM329.553 239V227.12H331.511V239H329.553ZM338.531 233.346C337.885 233.346 337.302 233.192 336.782 232.884C336.268 232.576 335.858 232.158 335.55 231.63C335.249 231.102 335.099 230.497 335.099 229.815V226.603C335.099 225.877 335.249 225.243 335.55 224.7C335.858 224.15 336.279 223.725 336.815 223.424C337.35 223.116 337.966 222.962 338.663 222.962C339.198 222.962 339.697 223.065 340.159 223.27C340.628 223.468 341.031 223.769 341.369 224.172L340.335 225.129C340.137 224.865 339.891 224.66 339.598 224.513C339.312 224.359 339 224.282 338.663 224.282C338.245 224.282 337.874 224.381 337.552 224.579C337.229 224.777 336.976 225.041 336.793 225.371C336.617 225.694 336.529 226.046 336.529 226.427V228.484L336.188 228.099C336.474 227.674 336.837 227.34 337.277 227.098C337.724 226.856 338.201 226.735 338.707 226.735C339.33 226.735 339.887 226.878 340.379 227.164C340.87 227.45 341.255 227.839 341.534 228.33C341.812 228.821 341.952 229.379 341.952 230.002C341.952 230.625 341.798 231.19 341.49 231.696C341.182 232.202 340.767 232.605 340.247 232.906C339.726 233.199 339.154 233.346 338.531 233.346ZM338.531 232.015C339.088 232.015 339.561 231.821 339.95 231.432C340.338 231.036 340.533 230.559 340.533 230.002C340.533 229.445 340.338 228.975 339.95 228.594C339.561 228.205 339.088 228.011 338.531 228.011C337.981 228.011 337.508 228.205 337.112 228.594C336.723 228.975 336.529 229.445 336.529 230.002C336.529 230.552 336.723 231.025 337.112 231.421C337.5 231.817 337.973 232.015 338.531 232.015Z" fill="#2E2E2E"/>
<path d="M197.529 209V205.007C197.119 205.212 196.649 205.374 196.121 205.491C195.601 205.608 195.054 205.667 194.482 205.667C193.258 205.667 192.279 205.392 191.545 204.842C190.819 204.292 190.35 203.493 190.137 202.444C190.071 202.143 190.024 201.832 189.994 201.509C189.972 201.179 189.958 200.882 189.95 200.618C189.95 200.347 189.95 200.141 189.95 200.002V197.12H192.634V200.002C192.634 200.163 192.642 200.402 192.656 200.717C192.671 201.025 192.711 201.333 192.777 201.641C192.917 202.228 193.17 202.657 193.536 202.928C193.903 203.199 194.427 203.335 195.109 203.335C195.637 203.335 196.103 203.265 196.506 203.126C196.91 202.987 197.251 202.811 197.529 202.598V197.12H200.191V209H197.529ZM209.166 209.33C207.963 209.33 206.907 209.07 205.998 208.549C205.088 208.028 204.377 207.306 203.864 206.382C203.358 205.458 203.105 204.395 203.105 203.192C203.105 201.894 203.354 200.768 203.853 199.815C204.351 198.854 205.044 198.11 205.932 197.582C206.819 197.054 207.846 196.79 209.012 196.79C210.244 196.79 211.289 197.08 212.147 197.659C213.012 198.231 213.654 199.041 214.072 200.09C214.49 201.139 214.647 202.374 214.545 203.797H211.916V202.829C211.908 201.538 211.681 200.596 211.234 200.002C210.786 199.408 210.082 199.111 209.122 199.111C208.036 199.111 207.23 199.448 206.702 200.123C206.174 200.79 205.91 201.769 205.91 203.06C205.91 204.263 206.174 205.194 206.702 205.854C207.23 206.514 208 206.844 209.012 206.844C209.664 206.844 210.225 206.701 210.695 206.415C211.171 206.122 211.538 205.7 211.795 205.15L214.413 205.942C213.958 207.013 213.254 207.845 212.301 208.439C211.355 209.033 210.31 209.33 209.166 209.33ZM205.074 203.797V201.795H213.247V203.797H205.074ZM223.208 209.33C222.049 209.33 221.078 209.055 220.293 208.505C219.508 207.955 218.918 207.207 218.522 206.261C218.126 205.308 217.928 204.241 217.928 203.06C217.928 201.865 218.126 200.794 218.522 199.848C218.918 198.902 219.497 198.158 220.26 197.615C221.03 197.065 221.98 196.79 223.109 196.79C224.231 196.79 225.203 197.065 226.024 197.615C226.853 198.158 227.494 198.902 227.949 199.848C228.404 200.787 228.631 201.857 228.631 203.06C228.631 204.248 228.407 205.315 227.96 206.261C227.513 207.207 226.882 207.955 226.068 208.505C225.254 209.055 224.301 209.33 223.208 209.33ZM217.477 214.28V197.12H219.82V205.458H220.15V214.28H217.477ZM222.801 206.954C223.49 206.954 224.059 206.782 224.506 206.437C224.953 206.092 225.283 205.627 225.496 205.04C225.716 204.446 225.826 203.786 225.826 203.06C225.826 202.341 225.716 201.689 225.496 201.102C225.276 200.508 224.935 200.039 224.473 199.694C224.011 199.342 223.424 199.166 222.713 199.166C222.038 199.166 221.488 199.331 221.063 199.661C220.638 199.984 220.322 200.438 220.117 201.025C219.919 201.604 219.82 202.283 219.82 203.06C219.82 203.83 219.919 204.508 220.117 205.095C220.322 205.682 220.641 206.14 221.074 206.47C221.514 206.793 222.09 206.954 222.801 206.954ZM236.957 209.33C235.754 209.33 234.698 209.07 233.789 208.549C232.879 208.028 232.168 207.306 231.655 206.382C231.149 205.458 230.896 204.395 230.896 203.192C230.896 201.894 231.145 200.768 231.644 199.815C232.142 198.854 232.835 198.11 233.723 197.582C234.61 197.054 235.637 196.79 236.803 196.79C238.035 196.79 239.08 197.08 239.938 197.659C240.803 198.231 241.445 199.041 241.863 200.09C242.281 201.139 242.438 202.374 242.336 203.797H239.707V202.829C239.699 201.538 239.472 200.596 239.025 200.002C238.577 199.408 237.873 199.111 236.913 199.111C235.827 199.111 235.021 199.448 234.493 200.123C233.965 200.79 233.701 201.769 233.701 203.06C233.701 204.263 233.965 205.194 234.493 205.854C235.021 206.514 235.791 206.844 236.803 206.844C237.455 206.844 238.016 206.701 238.486 206.415C238.962 206.122 239.329 205.7 239.586 205.15L242.204 205.942C241.749 207.013 241.045 207.845 240.092 208.439C239.146 209.033 238.101 209.33 236.957 209.33ZM232.865 203.797V201.795H241.038V203.797H232.865ZM249.084 209.33C247.955 209.33 246.925 209.092 245.993 208.615C245.062 208.138 244.329 207.486 243.793 206.657L245.883 205.26C246.309 205.766 246.782 206.158 247.302 206.437C247.823 206.708 248.402 206.844 249.04 206.844C249.708 206.844 250.232 206.697 250.613 206.404C250.995 206.111 251.185 205.718 251.185 205.227C251.185 204.794 251.057 204.49 250.8 204.314C250.544 204.131 250.206 204.021 249.788 203.984C249.37 203.947 248.923 203.929 248.446 203.929H247.566V201.828H248.435C249.103 201.828 249.66 201.751 250.107 201.597C250.562 201.443 250.789 201.102 250.789 200.574C250.789 200.097 250.613 199.76 250.261 199.562C249.909 199.357 249.499 199.254 249.029 199.254C248.457 199.254 247.893 199.375 247.335 199.617C246.778 199.859 246.279 200.152 245.839 200.497L244.343 198.693C245.003 198.106 245.74 197.644 246.554 197.307C247.368 196.962 248.237 196.79 249.161 196.79C249.924 196.79 250.635 196.922 251.295 197.186C251.963 197.45 252.498 197.846 252.901 198.374C253.312 198.902 253.517 199.555 253.517 200.332C253.517 200.889 253.396 201.414 253.154 201.905C252.92 202.396 252.542 202.862 252.021 203.302L251.988 202.444C252.392 202.613 252.733 202.847 253.011 203.148C253.297 203.449 253.514 203.801 253.66 204.204C253.814 204.607 253.891 205.036 253.891 205.491C253.891 206.32 253.671 207.02 253.231 207.592C252.791 208.164 252.205 208.597 251.471 208.89C250.745 209.183 249.95 209.33 249.084 209.33ZM261.276 208.978V206.668L268.052 200.629C268.58 200.16 268.946 199.716 269.152 199.298C269.357 198.88 269.46 198.477 269.46 198.088C269.46 197.56 269.346 197.091 269.119 196.68C268.891 196.262 268.576 195.932 268.173 195.69C267.777 195.448 267.318 195.327 266.798 195.327C266.248 195.327 265.76 195.455 265.335 195.712C264.917 195.961 264.59 196.295 264.356 196.713C264.121 197.131 264.011 197.582 264.026 198.066H261.298C261.298 197.01 261.532 196.09 262.002 195.305C262.478 194.52 263.131 193.912 263.96 193.479C264.796 193.046 265.76 192.83 266.853 192.83C267.865 192.83 268.774 193.057 269.581 193.512C270.387 193.959 271.022 194.583 271.484 195.382C271.946 196.174 272.177 197.087 272.177 198.121C272.177 198.876 272.074 199.511 271.869 200.024C271.663 200.537 271.355 201.01 270.945 201.443C270.541 201.876 270.039 202.356 269.438 202.884L264.631 207.141L264.389 206.481H272.177V208.978H261.276ZM287.145 209V205.007C286.734 205.212 286.265 205.374 285.737 205.491C285.216 205.608 284.67 205.667 284.098 205.667C282.873 205.667 281.894 205.392 281.161 204.842C280.435 204.292 279.965 203.493 279.753 202.444C279.687 202.143 279.639 201.832 279.61 201.509C279.588 201.179 279.573 200.882 279.566 200.618C279.566 200.347 279.566 200.141 279.566 200.002V197.12H282.25V200.002C282.25 200.163 282.257 200.402 282.272 200.717C282.286 201.025 282.327 201.333 282.393 201.641C282.532 202.228 282.785 202.657 283.152 202.928C283.518 203.199 284.043 203.335 284.725 203.335C285.253 203.335 285.718 203.265 286.122 203.126C286.525 202.987 286.866 202.811 287.145 202.598V197.12H289.807V209H287.145ZM296.702 209.33C295.844 209.33 295.118 209.169 294.524 208.846C293.93 208.516 293.479 208.08 293.171 207.537C292.87 206.994 292.72 206.397 292.72 205.744C292.72 205.172 292.815 204.659 293.006 204.204C293.197 203.742 293.49 203.346 293.886 203.016C294.282 202.679 294.795 202.404 295.426 202.191C295.903 202.037 296.46 201.898 297.098 201.773C297.743 201.648 298.44 201.535 299.188 201.432C299.943 201.322 300.732 201.205 301.553 201.08L300.607 201.619C300.614 200.798 300.431 200.193 300.057 199.804C299.683 199.415 299.052 199.221 298.165 199.221C297.63 199.221 297.113 199.346 296.614 199.595C296.115 199.844 295.767 200.273 295.569 200.882L293.149 200.123C293.442 199.118 294 198.312 294.821 197.703C295.65 197.094 296.764 196.79 298.165 196.79C299.221 196.79 300.149 196.962 300.948 197.307C301.755 197.652 302.352 198.216 302.741 199.001C302.954 199.419 303.082 199.848 303.126 200.288C303.17 200.721 303.192 201.194 303.192 201.707V209H300.871V206.426L301.256 206.844C300.721 207.702 300.094 208.333 299.375 208.736C298.664 209.132 297.773 209.33 296.702 209.33ZM297.23 207.218C297.831 207.218 298.345 207.112 298.77 206.899C299.195 206.686 299.533 206.426 299.782 206.118C300.039 205.81 300.211 205.52 300.299 205.249C300.438 204.912 300.515 204.527 300.53 204.094C300.552 203.654 300.563 203.298 300.563 203.027L301.377 203.269C300.578 203.394 299.892 203.504 299.32 203.599C298.748 203.694 298.257 203.786 297.846 203.874C297.435 203.955 297.072 204.046 296.757 204.149C296.449 204.259 296.189 204.387 295.976 204.534C295.763 204.681 295.598 204.849 295.481 205.04C295.371 205.231 295.316 205.454 295.316 205.711C295.316 206.004 295.389 206.265 295.536 206.492C295.683 206.712 295.895 206.888 296.174 207.02C296.46 207.152 296.812 207.218 297.23 207.218ZM311.715 209.33C310.49 209.33 309.445 209.059 308.58 208.516C307.714 207.966 307.051 207.218 306.589 206.272C306.134 205.326 305.903 204.255 305.896 203.06C305.903 201.843 306.141 200.765 306.611 199.826C307.087 198.88 307.762 198.139 308.635 197.604C309.507 197.061 310.545 196.79 311.748 196.79C313.097 196.79 314.237 197.131 315.169 197.813C316.107 198.488 316.72 199.412 317.006 200.585L314.366 201.3C314.16 200.662 313.819 200.167 313.343 199.815C312.866 199.456 312.323 199.276 311.715 199.276C311.025 199.276 310.457 199.441 310.01 199.771C309.562 200.094 309.232 200.541 309.02 201.113C308.807 201.685 308.701 202.334 308.701 203.06C308.701 204.189 308.954 205.102 309.46 205.799C309.966 206.496 310.717 206.844 311.715 206.844C312.419 206.844 312.972 206.683 313.376 206.36C313.786 206.037 314.094 205.572 314.3 204.963L317.006 205.568C316.639 206.778 315.997 207.709 315.081 208.362C314.164 209.007 313.042 209.33 311.715 209.33ZM322.839 209.33C321.981 209.33 321.255 209.169 320.661 208.846C320.067 208.516 319.616 208.08 319.308 207.537C319.007 206.994 318.857 206.397 318.857 205.744C318.857 205.172 318.952 204.659 319.143 204.204C319.333 203.742 319.627 203.346 320.023 203.016C320.419 202.679 320.932 202.404 321.563 202.191C322.039 202.037 322.597 201.898 323.235 201.773C323.88 201.648 324.577 201.535 325.325 201.432C326.08 201.322 326.868 201.205 327.69 201.08L326.744 201.619C326.751 200.798 326.568 200.193 326.194 199.804C325.82 199.415 325.189 199.221 324.302 199.221C323.766 199.221 323.249 199.346 322.751 199.595C322.252 199.844 321.904 200.273 321.706 200.882L319.286 200.123C319.579 199.118 320.136 198.312 320.958 197.703C321.786 197.094 322.901 196.79 324.302 196.79C325.358 196.79 326.285 196.962 327.085 197.307C327.891 197.652 328.489 198.216 328.878 199.001C329.09 199.419 329.219 199.848 329.263 200.288C329.307 200.721 329.329 201.194 329.329 201.707V209H327.008V206.426L327.393 206.844C326.857 207.702 326.23 208.333 325.512 208.736C324.8 209.132 323.909 209.33 322.839 209.33ZM323.367 207.218C323.968 207.218 324.481 207.112 324.907 206.899C325.332 206.686 325.669 206.426 325.919 206.118C326.175 205.81 326.348 205.52 326.436 205.249C326.575 204.912 326.652 204.527 326.667 204.094C326.689 203.654 326.7 203.298 326.7 203.027L327.514 203.269C326.714 203.394 326.029 203.504 325.457 203.599C324.885 203.694 324.393 203.786 323.983 203.874C323.572 203.955 323.209 204.046 322.894 204.149C322.586 204.259 322.325 204.387 322.113 204.534C321.9 204.681 321.735 204.849 321.618 205.04C321.508 205.231 321.453 205.454 321.453 205.711C321.453 206.004 321.526 206.265 321.673 206.492C321.819 206.712 322.032 206.888 322.311 207.02C322.597 207.152 322.949 207.218 323.367 207.218Z" fill="#703E97"/>
<circle cx="190.5" cy="44.5" r="43.75" fill="white" stroke="#D8B2FC" stroke-width="1.5"/>
<path d="M190 45V24.5L203.5 28.5L208.5 36L190 45Z" fill="#FFC3F3"/>
<path d="M190.667 21.667C196.678 21.667 202.444 24.0551 206.694 28.3059C210.945 32.5567 213.333 38.3221 213.333 44.3337C213.333 50.3452 210.945 56.1106 206.694 60.3614C202.444 64.6122 196.678 67.0003 190.667 67.0003C184.655 67.0003 178.89 64.6122 174.639 60.3614C170.388 56.1106 168 50.3452 168 44.3337C168 38.3221 170.388 32.5567 174.639 28.3059C178.89 24.0551 184.655 21.667 190.667 21.667ZM190.667 25.667C185.716 25.667 180.968 27.6337 177.467 31.1343C173.967 34.635 172 39.383 172 44.3337C172 49.2844 173.967 54.0323 177.467 57.533C180.968 61.0337 185.716 63.0003 190.667 63.0003C195.617 63.0003 200.365 61.0337 203.866 57.533C207.367 54.0323 209.333 49.2844 209.333 44.3337C209.333 39.383 207.367 34.635 203.866 31.1343C200.365 27.6337 195.617 25.667 190.667 25.667ZM190.667 29.667C191.15 29.667 191.617 29.842 191.981 30.1597C192.345 30.4774 192.582 30.9162 192.648 31.395L192.667 31.667V45.0003C192.667 45.507 192.474 45.9948 192.128 46.3651C191.782 46.7353 191.309 46.9605 190.803 46.995C190.297 47.0296 189.798 46.8709 189.405 46.5512C189.011 46.2314 188.754 45.7743 188.685 45.2723L188.667 45.0003V31.667C188.667 31.1366 188.877 30.6279 189.252 30.2528C189.628 29.8777 190.136 29.667 190.667 29.667Z" fill="#2A276E"/>
<rect x="195.535" y="40" width="4" height="9" rx="2" transform="rotate(56.8482 195.535 40)" fill="#2A276E"/>
</svg>
