<svg width="389" height="233" viewBox="0 0 389 233" fill="none" xmlns="http://www.w3.org/2000/svg">
<path d="M0.75 30C0.75 13.8457 13.8457 0.75 30 0.75H339.345C361.341 0.75 375.6 24.1807 365.941 43.9791C358.992 58.2207 351.706 73.7115 346.156 86.8707C343.382 93.4494 341.037 99.4559 339.384 104.438C337.741 109.39 336.75 113.419 336.75 116C336.75 118.597 337.753 122.68 339.416 127.709C341.088 132.769 343.46 138.877 346.264 145.568C351.873 158.951 359.226 174.707 366.21 189.144C375.781 208.925 361.52 232.25 339.578 232.25H30C13.8457 232.25 0.75 219.154 0.75 203V30Z" fill="white" stroke="#D8B2FC" stroke-width="1.5"/>
<rect x="30" y="76" width="324" height="82" rx="30" fill="#703E97"/>
<path d="M103.519 52V41.11L101.08 42.595V40.498L103.519 39.04H105.436V52H103.519ZM113.872 52.27C112.99 52.27 112.21 52.078 111.532 51.694C110.854 51.304 110.32 50.77 109.93 50.092C109.546 49.414 109.354 48.634 109.354 47.752V43.288C109.354 42.406 109.546 41.626 109.93 40.948C110.32 40.27 110.854 39.739 111.532 39.355C112.21 38.965 112.99 38.77 113.872 38.77C114.754 38.77 115.534 38.965 116.212 39.355C116.89 39.739 117.421 40.27 117.805 40.948C118.195 41.626 118.39 42.406 118.39 43.288V47.752C118.39 48.634 118.195 49.414 117.805 50.092C117.421 50.77 116.89 51.304 116.212 51.694C115.534 52.078 114.754 52.27 113.872 52.27ZM113.872 50.47C114.352 50.47 114.787 50.356 115.177 50.128C115.573 49.894 115.888 49.582 116.122 49.192C116.356 48.796 116.473 48.355 116.473 47.869V43.153C116.473 42.673 116.356 42.238 116.122 41.848C115.888 41.452 115.573 41.14 115.177 40.912C114.787 40.678 114.352 40.561 113.872 40.561C113.392 40.561 112.954 40.678 112.558 40.912C112.168 41.14 111.856 41.452 111.622 41.848C111.388 42.238 111.271 42.673 111.271 43.153V47.869C111.271 48.355 111.388 48.796 111.622 49.192C111.856 49.582 112.168 49.894 112.558 50.128C112.954 50.356 113.392 50.47 113.872 50.47ZM125.497 52V42.28H127.072L130.663 49.408L134.245 42.28H135.829V52H134.011V46.132L131.086 52H130.231L127.306 46.132V52H125.497ZM138.856 52V42.28H145.696V44.053H140.737V52H138.856ZM155.629 52.243C154.987 52.243 154.384 52.123 153.82 51.883C153.256 51.637 152.767 51.289 152.353 50.839C151.945 50.389 151.648 49.858 151.462 49.246L153.28 48.742C153.454 49.3 153.757 49.729 154.189 50.029C154.621 50.323 155.101 50.467 155.629 50.461C156.103 50.455 156.52 50.344 156.88 50.128C157.24 49.912 157.522 49.621 157.726 49.255C157.93 48.883 158.032 48.457 158.032 47.977C158.032 47.257 157.807 46.663 157.357 46.195C156.913 45.727 156.331 45.493 155.611 45.493C155.407 45.493 155.197 45.523 154.981 45.583C154.771 45.643 154.573 45.721 154.387 45.817L153.505 44.332L158.077 40.291L158.275 40.831H151.975V39.04H159.769V40.831L155.971 44.485L155.953 43.873C156.769 43.873 157.477 44.056 158.077 44.422C158.677 44.782 159.139 45.274 159.463 45.898C159.793 46.516 159.958 47.209 159.958 47.977C159.958 48.805 159.763 49.54 159.373 50.182C158.989 50.824 158.47 51.328 157.816 51.694C157.168 52.06 156.439 52.243 155.629 52.243ZM175.573 52.27C174.643 52.27 173.863 52.045 173.233 51.595C172.603 51.139 172.126 50.524 171.802 49.75C171.478 48.976 171.316 48.103 171.316 47.131C171.316 46.159 171.475 45.286 171.793 44.512C172.117 43.738 172.591 43.129 173.215 42.685C173.845 42.235 174.619 42.01 175.537 42.01C176.449 42.01 177.235 42.235 177.895 42.685C178.561 43.129 179.074 43.738 179.434 44.512C179.794 45.28 179.974 46.153 179.974 47.131C179.974 48.103 179.794 48.979 179.434 49.759C179.08 50.533 178.573 51.145 177.913 51.595C177.259 52.045 176.479 52.27 175.573 52.27ZM171.001 56.32V42.28H172.675V49.273H172.891V56.32H171.001ZM175.312 50.569C175.912 50.569 176.407 50.416 176.797 50.11C177.193 49.804 177.487 49.393 177.679 48.877C177.877 48.355 177.976 47.773 177.976 47.131C177.976 46.495 177.877 45.919 177.679 45.403C177.487 44.887 177.19 44.476 176.788 44.17C176.386 43.864 175.873 43.711 175.249 43.711C174.661 43.711 174.175 43.855 173.791 44.143C173.413 44.431 173.131 44.833 172.945 45.349C172.765 45.865 172.675 46.459 172.675 47.131C172.675 47.803 172.765 48.397 172.945 48.913C173.125 49.429 173.41 49.834 173.8 50.128C174.19 50.422 174.694 50.569 175.312 50.569ZM185.206 52.27C184.486 52.27 183.883 52.138 183.397 51.874C182.911 51.604 182.542 51.25 182.29 50.812C182.044 50.368 181.921 49.882 181.921 49.354C181.921 48.862 182.008 48.43 182.182 48.058C182.356 47.686 182.614 47.371 182.956 47.113C183.298 46.849 183.718 46.636 184.216 46.474C184.648 46.348 185.137 46.237 185.683 46.141C186.229 46.045 186.802 45.955 187.402 45.871C188.008 45.787 188.608 45.703 189.202 45.619L188.518 45.997C188.53 45.235 188.368 44.671 188.032 44.305C187.702 43.933 187.132 43.747 186.322 43.747C185.812 43.747 185.344 43.867 184.918 44.107C184.492 44.341 184.195 44.731 184.027 45.277L182.272 44.737C182.512 43.903 182.968 43.24 183.64 42.748C184.318 42.256 185.218 42.01 186.34 42.01C187.21 42.01 187.966 42.16 188.608 42.46C189.256 42.754 189.73 43.222 190.03 43.864C190.186 44.182 190.282 44.518 190.318 44.872C190.354 45.226 190.372 45.607 190.372 46.015V52H188.707V49.777L189.031 50.065C188.629 50.809 188.116 51.364 187.492 51.73C186.874 52.09 186.112 52.27 185.206 52.27ZM185.539 50.731C186.073 50.731 186.532 50.638 186.916 50.452C187.3 50.26 187.609 50.017 187.843 49.723C188.077 49.429 188.23 49.123 188.302 48.805C188.404 48.517 188.461 48.193 188.473 47.833C188.491 47.473 188.5 47.185 188.5 46.969L189.112 47.194C188.518 47.284 187.978 47.365 187.492 47.437C187.006 47.509 186.565 47.581 186.169 47.653C185.779 47.719 185.431 47.8 185.125 47.896C184.867 47.986 184.636 48.094 184.432 48.22C184.234 48.346 184.075 48.499 183.955 48.679C183.841 48.859 183.784 49.078 183.784 49.336C183.784 49.588 183.847 49.822 183.973 50.038C184.099 50.248 184.291 50.416 184.549 50.542C184.807 50.668 185.137 50.731 185.539 50.731ZM196.674 52.27C195.732 52.27 194.886 52.069 194.136 51.667C193.392 51.265 192.804 50.71 192.372 50.002L193.866 49.021C194.214 49.489 194.616 49.852 195.072 50.11C195.534 50.368 196.053 50.497 196.629 50.497C197.229 50.497 197.703 50.362 198.051 50.092C198.405 49.816 198.582 49.447 198.582 48.985C198.582 48.619 198.48 48.349 198.276 48.175C198.078 47.995 197.802 47.878 197.448 47.824C197.1 47.77 196.704 47.743 196.26 47.743H195.396V46.231H196.26C196.848 46.231 197.331 46.15 197.709 45.988C198.093 45.82 198.285 45.505 198.285 45.043C198.285 44.593 198.12 44.269 197.79 44.071C197.466 43.873 197.079 43.774 196.629 43.774C196.125 43.774 195.636 43.882 195.162 44.098C194.688 44.308 194.274 44.569 193.92 44.881L192.822 43.594C193.338 43.096 193.926 42.709 194.586 42.433C195.252 42.151 195.966 42.01 196.728 42.01C197.352 42.01 197.928 42.121 198.456 42.343C198.99 42.559 199.416 42.88 199.734 43.306C200.058 43.732 200.22 44.257 200.22 44.881C200.22 45.367 200.112 45.811 199.896 46.213C199.68 46.615 199.35 46.981 198.906 47.311L198.852 46.672C199.218 46.786 199.524 46.969 199.77 47.221C200.016 47.473 200.199 47.77 200.319 48.112C200.445 48.448 200.508 48.805 200.508 49.183C200.508 49.837 200.334 50.395 199.986 50.857C199.644 51.319 199.182 51.67 198.6 51.91C198.018 52.15 197.376 52.27 196.674 52.27ZM205.735 52.27C205.015 52.27 204.412 52.138 203.926 51.874C203.44 51.604 203.071 51.25 202.819 50.812C202.573 50.368 202.45 49.882 202.45 49.354C202.45 48.862 202.537 48.43 202.711 48.058C202.885 47.686 203.143 47.371 203.485 47.113C203.827 46.849 204.247 46.636 204.745 46.474C205.177 46.348 205.666 46.237 206.212 46.141C206.758 46.045 207.331 45.955 207.931 45.871C208.537 45.787 209.137 45.703 209.731 45.619L209.047 45.997C209.059 45.235 208.897 44.671 208.561 44.305C208.231 43.933 207.661 43.747 206.851 43.747C206.341 43.747 205.873 43.867 205.447 44.107C205.021 44.341 204.724 44.731 204.556 45.277L202.801 44.737C203.041 43.903 203.497 43.24 204.169 42.748C204.847 42.256 205.747 42.01 206.869 42.01C207.739 42.01 208.495 42.16 209.137 42.46C209.785 42.754 210.259 43.222 210.559 43.864C210.715 44.182 210.811 44.518 210.847 44.872C210.883 45.226 210.901 45.607 210.901 46.015V52H209.236V49.777L209.56 50.065C209.158 50.809 208.645 51.364 208.021 51.73C207.403 52.09 206.641 52.27 205.735 52.27ZM206.068 50.731C206.602 50.731 207.061 50.638 207.445 50.452C207.829 50.26 208.138 50.017 208.372 49.723C208.606 49.429 208.759 49.123 208.831 48.805C208.933 48.517 208.99 48.193 209.002 47.833C209.02 47.473 209.029 47.185 209.029 46.969L209.641 47.194C209.047 47.284 208.507 47.365 208.021 47.437C207.535 47.509 207.094 47.581 206.698 47.653C206.308 47.719 205.96 47.8 205.654 47.896C205.396 47.986 205.165 48.094 204.961 48.22C204.763 48.346 204.604 48.499 204.484 48.679C204.37 48.859 204.313 49.078 204.313 49.336C204.313 49.588 204.376 49.822 204.502 50.038C204.628 50.248 204.82 50.416 205.078 50.542C205.336 50.668 205.666 50.731 206.068 50.731ZM217.833 52V42.28H222.108C222.39 42.28 222.672 42.298 222.954 42.334C223.236 42.364 223.485 42.409 223.701 42.469C224.193 42.607 224.613 42.883 224.961 43.297C225.309 43.705 225.483 44.251 225.483 44.935C225.483 45.325 225.423 45.655 225.303 45.925C225.183 46.189 225.018 46.417 224.808 46.609C224.712 46.693 224.61 46.768 224.502 46.834C224.394 46.9 224.286 46.951 224.178 46.987C224.4 47.023 224.619 47.101 224.835 47.221C225.165 47.395 225.435 47.647 225.645 47.977C225.861 48.301 225.969 48.736 225.969 49.282C225.969 49.936 225.81 50.485 225.492 50.929C225.174 51.367 224.724 51.667 224.142 51.829C223.914 51.895 223.656 51.94 223.368 51.964C223.086 51.988 222.804 52 222.522 52H217.833ZM219.741 50.515H222.405C222.531 50.515 222.675 50.503 222.837 50.479C222.999 50.455 223.143 50.422 223.269 50.38C223.539 50.296 223.731 50.143 223.845 49.921C223.965 49.699 224.025 49.462 224.025 49.21C224.025 48.868 223.935 48.595 223.755 48.391C223.575 48.181 223.347 48.046 223.071 47.986C222.951 47.944 222.819 47.92 222.675 47.914C222.531 47.908 222.408 47.905 222.306 47.905H219.741V50.515ZM219.741 46.393H221.847C222.021 46.393 222.198 46.384 222.378 46.366C222.558 46.342 222.714 46.303 222.846 46.249C223.08 46.159 223.254 46.009 223.368 45.799C223.482 45.583 223.539 45.349 223.539 45.097C223.539 44.821 223.476 44.575 223.35 44.359C223.224 44.143 223.035 43.993 222.783 43.909C222.609 43.849 222.408 43.816 222.18 43.81C221.958 43.798 221.817 43.792 221.757 43.792H219.741V46.393ZM236.535 52.27C235.539 52.27 234.693 52.048 233.997 51.604C233.301 51.16 232.767 50.551 232.395 49.777C232.029 49.003 231.843 48.124 231.837 47.14C231.843 46.138 232.035 45.253 232.413 44.485C232.791 43.711 233.331 43.105 234.033 42.667C234.735 42.229 235.578 42.01 236.562 42.01C237.624 42.01 238.53 42.274 239.28 42.802C240.036 43.33 240.534 44.053 240.774 44.971L238.902 45.511C238.716 44.965 238.41 44.542 237.984 44.242C237.564 43.936 237.081 43.783 236.535 43.783C235.917 43.783 235.41 43.93 235.014 44.224C234.618 44.512 234.324 44.908 234.132 45.412C233.94 45.916 233.841 46.492 233.835 47.14C233.841 48.142 234.069 48.952 234.519 49.57C234.975 50.188 235.647 50.497 236.535 50.497C237.141 50.497 237.63 50.359 238.002 50.083C238.38 49.801 238.668 49.399 238.866 48.877L240.774 49.327C240.456 50.275 239.931 51.004 239.199 51.514C238.467 52.018 237.579 52.27 236.535 52.27ZM244.07 56.32L245.951 51.199L245.978 52.711L241.739 42.28H243.701L246.869 50.335H246.293L249.317 42.28H251.225L245.861 56.32H244.07ZM255.646 52V43.972H252.325V42.28H260.848V43.972H257.527V52H255.646ZM263.048 52L263.057 42.28H264.965V46.96L268.781 42.28H271.175L267.143 47.14L271.589 52H269.033L264.965 47.32V52H263.048ZM281.186 42.28V52H279.377V45.241L274.517 52H272.987V42.28H274.796V48.904L279.665 42.28H281.186Z" fill="#2A276E"/>
<path d="M85.2357 45.9565H75.0701V40.1594C75.0701 37.2609 77.3885 35.087 80.0637 35.087C82.9172 35.087 85.0573 37.442 85.0573 40.1594V45.9565H85.2357ZM76.1401 49.3986H77.2102V50.4855H76.1401V49.3986ZM80.0637 56.6449C77.9236 56.6449 76.1401 54.8333 76.1401 52.6594V51.5725H77.2102V52.6594C77.2102 54.2899 78.4586 55.558 80.0637 55.558V56.6449ZM80.0637 34C76.6752 34 74 36.7174 74 40.1594V52.6594C74 56.1014 76.6752 58.8188 80.0637 58.8188C83.4522 58.8188 86.1274 56.1014 86.1274 52.6594V40.1594C86.3057 36.7174 83.4522 34 80.0637 34Z" fill="#703E97"/>
<path d="M105.04 122.234C104.392 122.234 103.774 122.105 103.186 121.847C102.598 121.583 102.085 121.214 101.647 120.74C101.215 120.266 100.906 119.708 100.72 119.066L103.096 118.436C103.222 118.91 103.468 119.279 103.834 119.543C104.206 119.801 104.608 119.93 105.04 119.93C105.412 119.93 105.751 119.84 106.057 119.66C106.369 119.48 106.615 119.237 106.795 118.931C106.981 118.625 107.074 118.286 107.074 117.914C107.074 117.356 106.882 116.879 106.498 116.483C106.12 116.081 105.634 115.88 105.04 115.88C104.86 115.88 104.686 115.907 104.518 115.961C104.35 116.009 104.188 116.078 104.032 116.168L102.934 114.242L107.056 110.822L107.236 111.344H101.224V109.04H109.324V111.344L106.12 114.44L106.102 113.756C106.846 113.87 107.473 114.131 107.983 114.539C108.499 114.941 108.889 115.439 109.153 116.033C109.423 116.621 109.558 117.248 109.558 117.914C109.558 118.73 109.351 119.465 108.937 120.119C108.523 120.767 107.974 121.283 107.29 121.667C106.606 122.045 105.856 122.234 105.04 122.234ZM117.201 122.27C116.241 122.27 115.401 122.069 114.681 121.667C113.961 121.265 113.4 120.704 112.998 119.984C112.596 119.264 112.395 118.424 112.395 117.464V113.576C112.395 112.616 112.596 111.776 112.998 111.056C113.4 110.336 113.961 109.775 114.681 109.373C115.401 108.971 116.241 108.77 117.201 108.77C118.161 108.77 119.001 108.971 119.721 109.373C120.441 109.775 121.002 110.336 121.404 111.056C121.806 111.776 122.007 112.616 122.007 113.576V117.464C122.007 118.424 121.806 119.264 121.404 119.984C121.002 120.704 120.441 121.265 119.721 121.667C119.001 122.069 118.161 122.27 117.201 122.27ZM117.201 119.948C117.633 119.948 118.023 119.846 118.371 119.642C118.719 119.438 118.995 119.162 119.199 118.814C119.403 118.466 119.505 118.076 119.505 117.644V113.378C119.505 112.946 119.403 112.556 119.199 112.208C118.995 111.86 118.719 111.584 118.371 111.38C118.023 111.176 117.633 111.074 117.201 111.074C116.769 111.074 116.379 111.176 116.031 111.38C115.683 111.584 115.407 111.86 115.203 112.208C114.999 112.556 114.897 112.946 114.897 113.378V117.644C114.897 118.076 114.999 118.466 115.203 118.814C115.407 119.162 115.683 119.438 116.031 119.642C116.379 119.846 116.769 119.948 117.201 119.948ZM129.109 122V112.28H131.089L134.473 118.58L137.857 112.28H139.837V122H137.497V117.158L134.905 122H134.041L131.449 117.158V122H129.109ZM142.864 122V112.28H149.884V114.566H145.312V122H142.864ZM158.453 122V111.704L156.023 113.198V110.498L158.453 109.04H160.955V122H158.453ZM177.854 122.27C176.888 122.27 176.081 122.045 175.433 121.595C174.785 121.145 174.296 120.533 173.966 119.759C173.642 118.985 173.48 118.112 173.48 117.14C173.48 116.168 173.642 115.295 173.966 114.521C174.29 113.747 174.767 113.135 175.397 112.685C176.027 112.235 176.804 112.01 177.728 112.01C178.658 112.01 179.468 112.232 180.158 112.676C180.848 113.12 181.382 113.729 181.76 114.503C182.144 115.271 182.336 116.15 182.336 117.14C182.336 118.112 182.147 118.985 181.769 119.759C181.397 120.533 180.875 121.145 180.203 121.595C179.531 122.045 178.748 122.27 177.854 122.27ZM173.066 126.32V112.28H175.226V118.94H175.532V126.32H173.066ZM177.458 120.092C177.986 120.092 178.418 119.96 178.754 119.696C179.09 119.432 179.339 119.078 179.501 118.634C179.663 118.184 179.744 117.686 179.744 117.14C179.744 116.6 179.66 116.108 179.492 115.664C179.324 115.214 179.063 114.857 178.709 114.593C178.361 114.323 177.914 114.188 177.368 114.188C176.858 114.188 176.444 114.311 176.126 114.557C175.814 114.803 175.586 115.148 175.442 115.592C175.298 116.036 175.226 116.552 175.226 117.14C175.226 117.728 175.298 118.244 175.442 118.688C175.586 119.132 175.82 119.477 176.144 119.723C176.474 119.969 176.912 120.092 177.458 120.092ZM187.517 122.27C186.821 122.27 186.23 122.138 185.744 121.874C185.264 121.604 184.898 121.247 184.646 120.803C184.4 120.353 184.277 119.858 184.277 119.318C184.277 118.868 184.346 118.457 184.484 118.085C184.622 117.713 184.844 117.386 185.15 117.104C185.462 116.816 185.879 116.576 186.401 116.384C186.761 116.252 187.19 116.135 187.688 116.033C188.186 115.931 188.75 115.835 189.38 115.745C190.01 115.649 190.703 115.544 191.459 115.43L190.577 115.916C190.577 115.34 190.439 114.917 190.163 114.647C189.887 114.377 189.425 114.242 188.777 114.242C188.417 114.242 188.042 114.329 187.652 114.503C187.262 114.677 186.989 114.986 186.833 115.43L184.619 114.728C184.865 113.924 185.327 113.27 186.005 112.766C186.683 112.262 187.607 112.01 188.777 112.01C189.635 112.01 190.397 112.142 191.063 112.406C191.729 112.67 192.233 113.126 192.575 113.774C192.767 114.134 192.881 114.494 192.917 114.854C192.953 115.214 192.971 115.616 192.971 116.06V122H190.829V120.002L191.135 120.416C190.661 121.07 190.148 121.544 189.596 121.838C189.05 122.126 188.357 122.27 187.517 122.27ZM188.039 120.344C188.489 120.344 188.867 120.266 189.173 120.11C189.485 119.948 189.731 119.765 189.911 119.561C190.097 119.357 190.223 119.186 190.289 119.048C190.415 118.784 190.487 118.478 190.505 118.13C190.529 117.776 190.541 117.482 190.541 117.248L191.261 117.428C190.535 117.548 189.947 117.65 189.497 117.734C189.047 117.812 188.684 117.884 188.408 117.95C188.132 118.016 187.889 118.088 187.679 118.166C187.439 118.262 187.244 118.367 187.094 118.481C186.95 118.589 186.842 118.709 186.77 118.841C186.704 118.973 186.671 119.12 186.671 119.282C186.671 119.504 186.725 119.696 186.833 119.858C186.947 120.014 187.106 120.134 187.31 120.218C187.514 120.302 187.757 120.344 188.039 120.344ZM199.249 122.27C198.343 122.27 197.503 122.084 196.729 121.712C195.961 121.334 195.355 120.818 194.911 120.164L196.837 118.868C197.179 119.216 197.545 119.489 197.935 119.687C198.331 119.885 198.763 119.984 199.231 119.984C199.717 119.984 200.095 119.879 200.365 119.669C200.641 119.459 200.779 119.18 200.779 118.832C200.779 118.496 200.668 118.268 200.446 118.148C200.23 118.028 199.954 117.965 199.618 117.959C199.288 117.953 198.955 117.95 198.619 117.95H198.043V116.042H198.619C199.123 116.042 199.552 116 199.906 115.916C200.26 115.826 200.437 115.58 200.437 115.178C200.437 114.842 200.314 114.608 200.068 114.476C199.822 114.344 199.537 114.278 199.213 114.278C198.781 114.278 198.346 114.371 197.908 114.557C197.47 114.743 197.071 114.962 196.711 115.214L195.361 113.54C195.913 113.078 196.525 112.709 197.197 112.433C197.875 112.151 198.583 112.01 199.321 112.01C199.945 112.01 200.533 112.118 201.085 112.334C201.643 112.55 202.093 112.877 202.435 113.315C202.783 113.747 202.957 114.29 202.957 114.944C202.957 115.364 202.873 115.775 202.705 116.177C202.537 116.579 202.249 116.978 201.841 117.374L201.823 116.6C202.123 116.756 202.381 116.957 202.597 117.203C202.819 117.443 202.987 117.722 203.101 118.04C203.221 118.358 203.281 118.706 203.281 119.084C203.281 119.78 203.095 120.365 202.723 120.839C202.351 121.313 201.859 121.67 201.247 121.91C200.635 122.15 199.969 122.27 199.249 122.27ZM209.853 122V112.28H214.407C214.767 112.28 215.082 112.301 215.352 112.343C215.622 112.379 215.847 112.424 216.027 112.478C216.471 112.61 216.876 112.868 217.242 113.252C217.608 113.636 217.791 114.194 217.791 114.926C217.791 115.358 217.722 115.709 217.584 115.979C217.446 116.243 217.263 116.462 217.035 116.636C216.927 116.714 216.819 116.78 216.711 116.834C216.603 116.888 216.495 116.93 216.387 116.96C216.639 116.996 216.867 117.062 217.071 117.158C217.395 117.302 217.677 117.53 217.917 117.842C218.157 118.148 218.277 118.604 218.277 119.21C218.277 119.858 218.118 120.41 217.8 120.866C217.488 121.322 217.017 121.64 216.387 121.82C216.171 121.88 215.916 121.925 215.622 121.955C215.334 121.985 215.031 122 214.713 122H209.853ZM212.337 120.146H214.533C214.659 120.146 214.788 120.134 214.92 120.11C215.058 120.08 215.181 120.044 215.289 120.002C215.463 119.93 215.586 119.807 215.658 119.633C215.736 119.459 215.775 119.282 215.775 119.102C215.775 118.85 215.718 118.652 215.604 118.508C215.496 118.364 215.373 118.262 215.235 118.202C215.121 118.148 214.995 118.118 214.857 118.112C214.725 118.1 214.617 118.094 214.533 118.094H212.337V120.146ZM212.337 116.204H213.831C214.023 116.204 214.203 116.195 214.371 116.177C214.545 116.153 214.689 116.114 214.803 116.06C214.959 115.988 215.076 115.874 215.154 115.718C215.232 115.556 215.271 115.376 215.271 115.178C215.271 114.968 215.226 114.779 215.136 114.611C215.052 114.437 214.911 114.32 214.713 114.26C214.581 114.212 214.413 114.185 214.209 114.179C214.011 114.173 213.885 114.17 213.831 114.17H212.337V116.204ZM228.972 122.27C227.964 122.27 227.1 122.045 226.38 121.595C225.66 121.145 225.108 120.533 224.724 119.759C224.34 118.985 224.148 118.112 224.148 117.14C224.148 116.156 224.346 115.277 224.742 114.503C225.144 113.729 225.708 113.12 226.434 112.676C227.16 112.232 228.018 112.01 229.008 112.01C230.154 112.01 231.114 112.301 231.888 112.883C232.668 113.459 233.166 114.248 233.382 115.25L230.934 115.898C230.79 115.394 230.538 115.001 230.178 114.719C229.824 114.437 229.422 114.296 228.972 114.296C228.456 114.296 228.033 114.422 227.703 114.674C227.373 114.92 227.13 115.259 226.974 115.691C226.818 116.117 226.74 116.6 226.74 117.14C226.74 117.986 226.926 118.673 227.298 119.201C227.676 119.723 228.234 119.984 228.972 119.984C229.524 119.984 229.944 119.858 230.232 119.606C230.52 119.354 230.736 118.994 230.88 118.526L233.382 119.048C233.106 120.08 232.584 120.875 231.816 121.433C231.048 121.991 230.1 122.27 228.972 122.27ZM236.572 126.32L238.444 121.172L238.48 122.684L234.25 112.28H236.788L239.632 119.642H239.056L241.882 112.28H244.33L238.84 126.32H236.572ZM248.472 122V114.44H245.286V112.28H254.106V114.44H250.92V122H248.472ZM256.299 122L256.317 112.28H258.801V116.96L262.095 112.28H265.119L261.609 117.14L265.353 122H262.167L258.801 117.32V122H256.299ZM275.406 112.28V122H273.066V116.06L268.674 122H266.73V112.28H269.07V118.022L273.48 112.28H275.406Z" fill="white"/>
<path d="M85.2357 115.957H75.0701V110.159C75.0701 107.261 77.3885 105.087 80.0637 105.087C82.9172 105.087 85.0573 107.442 85.0573 110.159V115.957H85.2357ZM76.1401 119.399H77.2102V120.486H76.1401V119.399ZM80.0637 126.645C77.9236 126.645 76.1401 124.833 76.1401 122.659V121.572H77.2102V122.659C77.2102 124.29 78.4586 125.558 80.0637 125.558V126.645ZM80.0637 104C76.6752 104 74 106.717 74 110.159V122.659C74 126.101 76.6752 128.819 80.0637 128.819C83.4522 128.819 86.1274 126.101 86.1274 122.659V110.159C86.3057 106.717 83.4522 104 80.0637 104Z" fill="white"/>
<path d="M104.887 192.243C104.245 192.243 103.642 192.123 103.078 191.883C102.514 191.637 102.025 191.289 101.611 190.839C101.203 190.389 100.906 189.858 100.72 189.246L102.538 188.742C102.712 189.3 103.015 189.729 103.447 190.029C103.879 190.323 104.359 190.467 104.887 190.461C105.361 190.455 105.778 190.344 106.138 190.128C106.498 189.912 106.78 189.621 106.984 189.255C107.188 188.883 107.29 188.457 107.29 187.977C107.29 187.257 107.065 186.663 106.615 186.195C106.171 185.727 105.589 185.493 104.869 185.493C104.665 185.493 104.455 185.523 104.239 185.583C104.029 185.643 103.831 185.721 103.645 185.817L102.763 184.332L107.335 180.291L107.533 180.831H101.233V179.04H109.027V180.831L105.229 184.485L105.211 183.873C106.027 183.873 106.735 184.056 107.335 184.422C107.935 184.782 108.397 185.274 108.721 185.898C109.051 186.516 109.216 187.209 109.216 187.977C109.216 188.805 109.021 189.54 108.631 190.182C108.247 190.824 107.728 191.328 107.074 191.694C106.426 192.06 105.697 192.243 104.887 192.243ZM116.579 192.27C115.697 192.27 114.917 192.078 114.239 191.694C113.561 191.304 113.027 190.77 112.637 190.092C112.253 189.414 112.061 188.634 112.061 187.752V183.288C112.061 182.406 112.253 181.626 112.637 180.948C113.027 180.27 113.561 179.739 114.239 179.355C114.917 178.965 115.697 178.77 116.579 178.77C117.461 178.77 118.241 178.965 118.919 179.355C119.597 179.739 120.128 180.27 120.512 180.948C120.902 181.626 121.097 182.406 121.097 183.288V187.752C121.097 188.634 120.902 189.414 120.512 190.092C120.128 190.77 119.597 191.304 118.919 191.694C118.241 192.078 117.461 192.27 116.579 192.27ZM116.579 190.47C117.059 190.47 117.494 190.356 117.884 190.128C118.28 189.894 118.595 189.582 118.829 189.192C119.063 188.796 119.18 188.355 119.18 187.869V183.153C119.18 182.673 119.063 182.238 118.829 181.848C118.595 181.452 118.28 181.14 117.884 180.912C117.494 180.678 117.059 180.561 116.579 180.561C116.099 180.561 115.661 180.678 115.265 180.912C114.875 181.14 114.563 181.452 114.329 181.848C114.095 182.238 113.978 182.673 113.978 183.153V187.869C113.978 188.355 114.095 188.796 114.329 189.192C114.563 189.582 114.875 189.894 115.265 190.128C115.661 190.356 116.099 190.47 116.579 190.47ZM128.204 192V182.28H129.779L133.37 189.408L136.952 182.28H138.536V192H136.718V186.132L133.793 192H132.938L130.013 186.132V192H128.204ZM141.563 192V182.28H148.403V184.053H143.444V192H141.563ZM154.349 191.991L154.358 190.317L160.001 185.259C160.457 184.857 160.766 184.473 160.928 184.107C161.096 183.741 161.18 183.375 161.18 183.009C161.18 182.547 161.078 182.133 160.874 181.767C160.67 181.395 160.388 181.101 160.028 180.885C159.668 180.669 159.254 180.561 158.786 180.561C158.306 180.561 157.877 180.675 157.499 180.903C157.127 181.125 156.836 181.422 156.626 181.794C156.416 182.166 156.314 182.568 156.32 183H154.394C154.394 182.16 154.583 181.425 154.961 180.795C155.345 180.159 155.87 179.664 156.536 179.31C157.202 178.95 157.964 178.77 158.822 178.77C159.638 178.77 160.37 178.956 161.018 179.328C161.666 179.694 162.176 180.198 162.548 180.84C162.926 181.482 163.115 182.214 163.115 183.036C163.115 183.63 163.037 184.134 162.881 184.548C162.725 184.962 162.491 185.346 162.179 185.7C161.867 186.054 161.477 186.438 161.009 186.852L156.653 190.74L156.446 190.2H163.115V191.991H154.349ZM174.44 192.27C173.51 192.27 172.73 192.045 172.1 191.595C171.47 191.139 170.993 190.524 170.669 189.75C170.345 188.976 170.183 188.103 170.183 187.131C170.183 186.159 170.342 185.286 170.66 184.512C170.984 183.738 171.458 183.129 172.082 182.685C172.712 182.235 173.486 182.01 174.404 182.01C175.316 182.01 176.102 182.235 176.762 182.685C177.428 183.129 177.941 183.738 178.301 184.512C178.661 185.28 178.841 186.153 178.841 187.131C178.841 188.103 178.661 188.979 178.301 189.759C177.947 190.533 177.44 191.145 176.78 191.595C176.126 192.045 175.346 192.27 174.44 192.27ZM169.868 196.32V182.28H171.542V189.273H171.758V196.32H169.868ZM174.179 190.569C174.779 190.569 175.274 190.416 175.664 190.11C176.06 189.804 176.354 189.393 176.546 188.877C176.744 188.355 176.843 187.773 176.843 187.131C176.843 186.495 176.744 185.919 176.546 185.403C176.354 184.887 176.057 184.476 175.655 184.17C175.253 183.864 174.74 183.711 174.116 183.711C173.528 183.711 173.042 183.855 172.658 184.143C172.28 184.431 171.998 184.833 171.812 185.349C171.632 185.865 171.542 186.459 171.542 187.131C171.542 187.803 171.632 188.397 171.812 188.913C171.992 189.429 172.277 189.834 172.667 190.128C173.057 190.422 173.561 190.569 174.179 190.569ZM184.073 192.27C183.353 192.27 182.75 192.138 182.264 191.874C181.778 191.604 181.409 191.25 181.157 190.812C180.911 190.368 180.788 189.882 180.788 189.354C180.788 188.862 180.875 188.43 181.049 188.058C181.223 187.686 181.481 187.371 181.823 187.113C182.165 186.849 182.585 186.636 183.083 186.474C183.515 186.348 184.004 186.237 184.55 186.141C185.096 186.045 185.669 185.955 186.269 185.871C186.875 185.787 187.475 185.703 188.069 185.619L187.385 185.997C187.397 185.235 187.235 184.671 186.899 184.305C186.569 183.933 185.999 183.747 185.189 183.747C184.679 183.747 184.211 183.867 183.785 184.107C183.359 184.341 183.062 184.731 182.894 185.277L181.139 184.737C181.379 183.903 181.835 183.24 182.507 182.748C183.185 182.256 184.085 182.01 185.207 182.01C186.077 182.01 186.833 182.16 187.475 182.46C188.123 182.754 188.597 183.222 188.897 183.864C189.053 184.182 189.149 184.518 189.185 184.872C189.221 185.226 189.239 185.607 189.239 186.015V192H187.574V189.777L187.898 190.065C187.496 190.809 186.983 191.364 186.359 191.73C185.741 192.09 184.979 192.27 184.073 192.27ZM184.406 190.731C184.94 190.731 185.399 190.638 185.783 190.452C186.167 190.26 186.476 190.017 186.71 189.723C186.944 189.429 187.097 189.123 187.169 188.805C187.271 188.517 187.328 188.193 187.34 187.833C187.358 187.473 187.367 187.185 187.367 186.969L187.979 187.194C187.385 187.284 186.845 187.365 186.359 187.437C185.873 187.509 185.432 187.581 185.036 187.653C184.646 187.719 184.298 187.8 183.992 187.896C183.734 187.986 183.503 188.094 183.299 188.22C183.101 188.346 182.942 188.499 182.822 188.679C182.708 188.859 182.651 189.078 182.651 189.336C182.651 189.588 182.714 189.822 182.84 190.038C182.966 190.248 183.158 190.416 183.416 190.542C183.674 190.668 184.004 190.731 184.406 190.731ZM195.541 192.27C194.599 192.27 193.753 192.069 193.003 191.667C192.259 191.265 191.671 190.71 191.239 190.002L192.733 189.021C193.081 189.489 193.483 189.852 193.939 190.11C194.401 190.368 194.92 190.497 195.496 190.497C196.096 190.497 196.57 190.362 196.918 190.092C197.272 189.816 197.449 189.447 197.449 188.985C197.449 188.619 197.347 188.349 197.143 188.175C196.945 187.995 196.669 187.878 196.315 187.824C195.967 187.77 195.571 187.743 195.127 187.743H194.263V186.231H195.127C195.715 186.231 196.198 186.15 196.576 185.988C196.96 185.82 197.152 185.505 197.152 185.043C197.152 184.593 196.987 184.269 196.657 184.071C196.333 183.873 195.946 183.774 195.496 183.774C194.992 183.774 194.503 183.882 194.029 184.098C193.555 184.308 193.141 184.569 192.787 184.881L191.689 183.594C192.205 183.096 192.793 182.709 193.453 182.433C194.119 182.151 194.833 182.01 195.595 182.01C196.219 182.01 196.795 182.121 197.323 182.343C197.857 182.559 198.283 182.88 198.601 183.306C198.925 183.732 199.087 184.257 199.087 184.881C199.087 185.367 198.979 185.811 198.763 186.213C198.547 186.615 198.217 186.981 197.773 187.311L197.719 186.672C198.085 186.786 198.391 186.969 198.637 187.221C198.883 187.473 199.066 187.77 199.186 188.112C199.312 188.448 199.375 188.805 199.375 189.183C199.375 189.837 199.201 190.395 198.853 190.857C198.511 191.319 198.049 191.67 197.467 191.91C196.885 192.15 196.243 192.27 195.541 192.27ZM204.603 192.27C203.883 192.27 203.28 192.138 202.794 191.874C202.308 191.604 201.939 191.25 201.687 190.812C201.441 190.368 201.318 189.882 201.318 189.354C201.318 188.862 201.405 188.43 201.579 188.058C201.753 187.686 202.011 187.371 202.353 187.113C202.695 186.849 203.115 186.636 203.613 186.474C204.045 186.348 204.534 186.237 205.08 186.141C205.626 186.045 206.199 185.955 206.799 185.871C207.405 185.787 208.005 185.703 208.599 185.619L207.915 185.997C207.927 185.235 207.765 184.671 207.429 184.305C207.099 183.933 206.529 183.747 205.719 183.747C205.209 183.747 204.741 183.867 204.315 184.107C203.889 184.341 203.592 184.731 203.424 185.277L201.669 184.737C201.909 183.903 202.365 183.24 203.037 182.748C203.715 182.256 204.615 182.01 205.737 182.01C206.607 182.01 207.363 182.16 208.005 182.46C208.653 182.754 209.127 183.222 209.427 183.864C209.583 184.182 209.679 184.518 209.715 184.872C209.751 185.226 209.769 185.607 209.769 186.015V192H208.104V189.777L208.428 190.065C208.026 190.809 207.513 191.364 206.889 191.73C206.271 192.09 205.509 192.27 204.603 192.27ZM204.936 190.731C205.47 190.731 205.929 190.638 206.313 190.452C206.697 190.26 207.006 190.017 207.24 189.723C207.474 189.429 207.627 189.123 207.699 188.805C207.801 188.517 207.858 188.193 207.87 187.833C207.888 187.473 207.897 187.185 207.897 186.969L208.509 187.194C207.915 187.284 207.375 187.365 206.889 187.437C206.403 187.509 205.962 187.581 205.566 187.653C205.176 187.719 204.828 187.8 204.522 187.896C204.264 187.986 204.033 188.094 203.829 188.22C203.631 188.346 203.472 188.499 203.352 188.679C203.238 188.859 203.181 189.078 203.181 189.336C203.181 189.588 203.244 189.822 203.37 190.038C203.496 190.248 203.688 190.416 203.946 190.542C204.204 190.668 204.534 190.731 204.936 190.731ZM216.7 192V182.28H220.975C221.257 182.28 221.539 182.298 221.821 182.334C222.103 182.364 222.352 182.409 222.568 182.469C223.06 182.607 223.48 182.883 223.828 183.297C224.176 183.705 224.35 184.251 224.35 184.935C224.35 185.325 224.29 185.655 224.17 185.925C224.05 186.189 223.885 186.417 223.675 186.609C223.579 186.693 223.477 186.768 223.369 186.834C223.261 186.9 223.153 186.951 223.045 186.987C223.267 187.023 223.486 187.101 223.702 187.221C224.032 187.395 224.302 187.647 224.512 187.977C224.728 188.301 224.836 188.736 224.836 189.282C224.836 189.936 224.677 190.485 224.359 190.929C224.041 191.367 223.591 191.667 223.009 191.829C222.781 191.895 222.523 191.94 222.235 191.964C221.953 191.988 221.671 192 221.389 192H216.7ZM218.608 190.515H221.272C221.398 190.515 221.542 190.503 221.704 190.479C221.866 190.455 222.01 190.422 222.136 190.38C222.406 190.296 222.598 190.143 222.712 189.921C222.832 189.699 222.892 189.462 222.892 189.21C222.892 188.868 222.802 188.595 222.622 188.391C222.442 188.181 222.214 188.046 221.938 187.986C221.818 187.944 221.686 187.92 221.542 187.914C221.398 187.908 221.275 187.905 221.173 187.905H218.608V190.515ZM218.608 186.393H220.714C220.888 186.393 221.065 186.384 221.245 186.366C221.425 186.342 221.581 186.303 221.713 186.249C221.947 186.159 222.121 186.009 222.235 185.799C222.349 185.583 222.406 185.349 222.406 185.097C222.406 184.821 222.343 184.575 222.217 184.359C222.091 184.143 221.902 183.993 221.65 183.909C221.476 183.849 221.275 183.816 221.047 183.81C220.825 183.798 220.684 183.792 220.624 183.792H218.608V186.393ZM235.402 192.27C234.406 192.27 233.56 192.048 232.864 191.604C232.168 191.16 231.634 190.551 231.262 189.777C230.896 189.003 230.71 188.124 230.704 187.14C230.71 186.138 230.902 185.253 231.28 184.485C231.658 183.711 232.198 183.105 232.9 182.667C233.602 182.229 234.445 182.01 235.429 182.01C236.491 182.01 237.397 182.274 238.147 182.802C238.903 183.33 239.401 184.053 239.641 184.971L237.769 185.511C237.583 184.965 237.277 184.542 236.851 184.242C236.431 183.936 235.948 183.783 235.402 183.783C234.784 183.783 234.277 183.93 233.881 184.224C233.485 184.512 233.191 184.908 232.999 185.412C232.807 185.916 232.708 186.492 232.702 187.14C232.708 188.142 232.936 188.952 233.386 189.57C233.842 190.188 234.514 190.497 235.402 190.497C236.008 190.497 236.497 190.359 236.869 190.083C237.247 189.801 237.535 189.399 237.733 188.877L239.641 189.327C239.323 190.275 238.798 191.004 238.066 191.514C237.334 192.018 236.446 192.27 235.402 192.27ZM242.937 196.32L244.818 191.199L244.845 192.711L240.606 182.28H242.568L245.736 190.335H245.16L248.184 182.28H250.092L244.728 196.32H242.937ZM254.513 192V183.972H251.192V182.28H259.715V183.972H256.394V192H254.513ZM261.915 192L261.924 182.28H263.832V186.96L267.648 182.28H270.042L266.01 187.14L270.456 192H267.9L263.832 187.32V192H261.915ZM280.054 182.28V192H278.245V185.241L273.385 192H271.855V182.28H273.664V188.904L278.533 182.28H280.054Z" fill="#2A276E"/>
<path d="M85.2357 185.957H75.0701V180.159C75.0701 177.261 77.3885 175.087 80.0637 175.087C82.9172 175.087 85.0573 177.442 85.0573 180.159V185.957H85.2357ZM76.1401 189.399H77.2102V190.486H76.1401V189.399ZM80.0637 196.645C77.9236 196.645 76.1401 194.833 76.1401 192.659V191.572H77.2102V192.659C77.2102 194.29 78.4586 195.558 80.0637 195.558V196.645ZM80.0637 174C76.6752 174 74 176.717 74 180.159V192.659C74 196.101 76.6752 198.819 80.0637 198.819C83.4522 198.819 86.1274 196.101 86.1274 192.659V180.159C86.3057 176.717 83.4522 174 80.0637 174Z" fill="#703E97"/>
</svg>
