<svg width="379" height="286" viewBox="0 0 379 286" fill="none" xmlns="http://www.w3.org/2000/svg">
<rect x="0.75" y="45.75" width="377.5" height="239.5" rx="29.25" fill="white" stroke="#D8B2FC" stroke-width="1.5"/>
<path d="M82.7216 133V124.5L79.6416 130.68H77.8816L74.8016 124.5V133H71.5216V118.8H75.0816L78.7616 126.22L82.4616 118.8H86.0016V133H82.7216ZM93.1653 118.8H96.1253L101.305 133H97.9453L96.8453 129.82H92.4253L91.3453 133H87.9853L93.1653 118.8ZM96.3053 127.56L94.6453 122.54L92.9453 127.56H96.3053ZM106.544 124.44H107.284L111.424 118.8H115.124L110.024 125.66L115.584 133H111.924L107.584 127.42H106.544V133H103.264V118.8H106.544V124.44ZM115.696 125.78C115.696 124.927 115.856 124.08 116.176 123.24C116.496 122.387 116.963 121.627 117.576 120.96C118.19 120.293 118.936 119.753 119.816 119.34C120.696 118.927 121.696 118.72 122.816 118.72C124.15 118.72 125.303 119.007 126.276 119.58C127.263 120.153 127.996 120.9 128.476 121.82L125.956 123.58C125.796 123.207 125.59 122.9 125.336 122.66C125.096 122.407 124.83 122.207 124.536 122.06C124.243 121.9 123.943 121.793 123.636 121.74C123.33 121.673 123.03 121.64 122.736 121.64C122.11 121.64 121.563 121.767 121.096 122.02C120.63 122.273 120.243 122.6 119.936 123C119.63 123.4 119.403 123.853 119.256 124.36C119.11 124.867 119.036 125.38 119.036 125.9C119.036 126.46 119.123 127 119.296 127.52C119.47 128.04 119.716 128.5 120.036 128.9C120.37 129.3 120.763 129.62 121.216 129.86C121.683 130.087 122.203 130.2 122.776 130.2C123.07 130.2 123.37 130.167 123.676 130.1C123.996 130.02 124.296 129.907 124.576 129.76C124.87 129.6 125.136 129.4 125.376 129.16C125.616 128.907 125.81 128.6 125.956 128.24L128.636 129.82C128.423 130.34 128.103 130.807 127.676 131.22C127.263 131.633 126.783 131.98 126.236 132.26C125.69 132.54 125.11 132.753 124.496 132.9C123.883 133.047 123.283 133.12 122.696 133.12C121.67 133.12 120.723 132.913 119.856 132.5C119.003 132.073 118.263 131.513 117.636 130.82C117.023 130.127 116.543 129.34 116.196 128.46C115.863 127.58 115.696 126.687 115.696 125.78ZM134.146 127.9L140.826 118.8H143.266V133H139.986V124.12L133.386 133H130.846V118.8H134.146V127.9ZM157.8 133V124.5L154.72 130.68H152.96L149.88 124.5V133H146.6V118.8H150.16L153.84 126.22L157.54 118.8H161.08V133H157.8ZM168.243 118.8H171.203L176.383 133H173.023L171.923 129.82H167.503L166.423 133H163.063L168.243 118.8ZM171.383 127.56L169.723 122.54L168.023 127.56H171.383ZM183.342 123.72C183.169 125.52 182.949 127.027 182.682 128.24C182.429 129.44 182.075 130.407 181.622 131.14C181.169 131.86 180.589 132.373 179.882 132.68C179.175 132.987 178.295 133.14 177.242 133.14L177.142 130.26C177.622 130.207 178.022 130.093 178.342 129.92C178.675 129.733 178.955 129.387 179.182 128.88C179.409 128.36 179.595 127.627 179.742 126.68C179.902 125.733 180.055 124.467 180.202 122.88L180.562 118.8H189.782V133H186.502V121.68H183.542L183.342 123.72ZM193.119 118.8H196.419V123.66H198.939C199.699 123.66 200.386 123.767 200.999 123.98C201.626 124.18 202.159 124.48 202.599 124.88C203.039 125.267 203.379 125.747 203.619 126.32C203.859 126.893 203.979 127.54 203.979 128.26C203.979 129.007 203.859 129.673 203.619 130.26C203.393 130.847 203.059 131.347 202.619 131.76C202.193 132.16 201.679 132.467 201.079 132.68C200.479 132.893 199.813 133 199.079 133H193.119V118.8ZM196.419 130.22H198.679C199.333 130.22 199.819 130.047 200.139 129.7C200.473 129.34 200.639 128.853 200.639 128.24C200.639 127.68 200.473 127.213 200.139 126.84C199.806 126.453 199.319 126.26 198.679 126.26H196.419V130.22ZM218.554 118.8V133H215.274V127.18H209.614V133H206.334V118.8H209.614V124.3H215.274V118.8H218.554ZM225.712 118.8H228.672L233.852 133H230.492L229.392 129.82H224.972L223.892 133H220.532L225.712 118.8ZM228.852 127.56L227.192 122.54L225.492 127.56H228.852ZM243.151 133V127.88H241.451L238.291 133H234.731L238.171 127.5C237.371 127.153 236.737 126.62 236.271 125.9C235.817 125.167 235.591 124.313 235.591 123.34C235.591 122.7 235.704 122.107 235.931 121.56C236.171 121.013 236.491 120.533 236.891 120.12C237.304 119.707 237.791 119.387 238.351 119.16C238.924 118.92 239.551 118.8 240.231 118.8H246.431V133H243.151ZM243.151 121.6H240.651C240.437 121.6 240.224 121.64 240.011 121.72C239.811 121.787 239.624 121.893 239.451 122.04C239.291 122.173 239.157 122.353 239.051 122.58C238.957 122.793 238.911 123.047 238.911 123.34C238.911 123.927 239.077 124.367 239.411 124.66C239.744 124.94 240.144 125.08 240.611 125.08H243.151V121.6ZM253.875 130.12H254.535C254.895 130.12 255.208 130.007 255.475 129.78C255.755 129.553 255.995 129.167 256.195 128.62C256.395 128.073 256.568 127.34 256.715 126.42C256.875 125.487 257.015 124.307 257.135 122.88L257.495 118.8H266.715V130.12H268.775V136.44H265.615V133H257.015V136.44H253.875V130.12ZM263.435 130.12V121.68H260.455L260.275 123.72C260.128 125.267 259.935 126.56 259.695 127.6C259.468 128.64 259.168 129.48 258.795 130.12H263.435ZM277.143 133.12C276.089 133.12 275.129 132.913 274.263 132.5C273.396 132.087 272.656 131.547 272.043 130.88C271.429 130.2 270.949 129.427 270.603 128.56C270.269 127.693 270.103 126.8 270.103 125.88C270.103 124.947 270.276 124.047 270.623 123.18C270.983 122.313 271.476 121.553 272.103 120.9C272.743 120.233 273.496 119.707 274.363 119.32C275.229 118.92 276.176 118.72 277.203 118.72C278.256 118.72 279.216 118.927 280.083 119.34C280.949 119.753 281.689 120.3 282.303 120.98C282.916 121.66 283.389 122.433 283.723 123.3C284.056 124.167 284.223 125.047 284.223 125.94C284.223 126.873 284.043 127.773 283.683 128.64C283.336 129.507 282.849 130.273 282.223 130.94C281.596 131.593 280.849 132.12 279.983 132.52C279.116 132.92 278.169 133.12 277.143 133.12ZM273.443 125.92C273.443 126.467 273.523 127 273.683 127.52C273.843 128.027 274.076 128.48 274.383 128.88C274.703 129.28 275.096 129.6 275.563 129.84C276.029 130.08 276.563 130.2 277.163 130.2C277.789 130.2 278.336 130.073 278.803 129.82C279.269 129.567 279.656 129.24 279.963 128.84C280.269 128.427 280.496 127.967 280.643 127.46C280.803 126.94 280.883 126.413 280.883 125.88C280.883 125.333 280.803 124.807 280.643 124.3C280.483 123.78 280.243 123.327 279.923 122.94C279.603 122.54 279.209 122.227 278.743 122C278.289 121.76 277.763 121.64 277.163 121.64C276.536 121.64 275.989 121.767 275.523 122.02C275.069 122.26 274.683 122.58 274.363 122.98C274.056 123.38 273.823 123.84 273.663 124.36C273.516 124.867 273.443 125.387 273.443 125.92ZM285.545 120.7C286.185 120.033 286.905 119.533 287.705 119.2C288.518 118.853 289.478 118.68 290.585 118.68C291.985 118.68 293.098 118.987 293.925 119.6C294.752 120.213 295.165 121.12 295.165 122.32C295.165 122.987 294.998 123.607 294.665 124.18C294.345 124.753 293.792 125.18 293.005 125.46C293.885 125.673 294.552 126.087 295.005 126.7C295.472 127.3 295.705 128.033 295.705 128.9C295.705 129.567 295.572 130.167 295.305 130.7C295.038 131.22 294.665 131.66 294.185 132.02C293.718 132.38 293.158 132.653 292.505 132.84C291.865 133.027 291.172 133.12 290.425 133.12C289.345 133.12 288.398 132.967 287.585 132.66C286.772 132.34 285.998 131.847 285.265 131.18L286.945 128.76C287.398 129.187 287.885 129.533 288.405 129.8C288.938 130.053 289.565 130.18 290.285 130.18C290.885 130.18 291.378 130.033 291.765 129.74C292.165 129.433 292.365 128.98 292.365 128.38C292.365 127.873 292.178 127.447 291.805 127.1C291.445 126.753 290.858 126.58 290.045 126.58H288.325V124.3H289.805C290.565 124.3 291.138 124.167 291.525 123.9C291.912 123.633 292.105 123.253 292.105 122.76C292.105 122.333 291.965 122.007 291.685 121.78C291.405 121.54 290.972 121.42 290.385 121.42C289.745 121.42 289.172 121.533 288.665 121.76C288.172 121.987 287.705 122.313 287.265 122.74L285.545 120.7ZM301.72 118.8H304.68L309.86 133H306.5L305.4 129.82H300.98L299.9 133H296.54L301.72 118.8ZM304.86 127.56L303.2 122.54L301.5 127.56H304.86Z" fill="#703E97"/>
<path d="M82.9739 194.33C81.3972 194.33 80.0589 193.982 78.9589 193.285C77.8589 192.588 77.0192 191.62 76.4399 190.381C75.8679 189.142 75.5819 187.708 75.5819 186.08C75.5819 184.452 75.8679 183.018 76.4399 181.779C77.0192 180.54 77.8589 179.572 78.9589 178.875C80.0589 178.178 81.3972 177.83 82.9739 177.83C84.5579 177.83 85.8999 178.178 86.9999 178.875C88.0999 179.572 88.9359 180.54 89.5079 181.779C90.0799 183.018 90.3659 184.452 90.3659 186.08C90.3659 187.708 90.0799 189.142 89.5079 190.381C88.9359 191.62 88.0999 192.588 86.9999 193.285C85.8999 193.982 84.5579 194.33 82.9739 194.33ZM82.9739 192.46C84.1545 192.467 85.1372 192.203 85.9219 191.668C86.7139 191.125 87.3042 190.374 87.6929 189.413C88.0889 188.452 88.2869 187.341 88.2869 186.08C88.2869 184.811 88.0889 183.7 87.6929 182.747C87.3042 181.794 86.7139 181.049 85.9219 180.514C85.1372 179.979 84.1545 179.707 82.9739 179.7C81.7932 179.693 80.8105 179.957 80.0259 180.492C79.2485 181.027 78.6619 181.775 78.2659 182.736C77.8699 183.697 77.6682 184.811 77.6609 186.08C77.6535 187.341 77.8479 188.449 78.2439 189.402C78.6399 190.355 79.2302 191.103 80.0149 191.646C80.8069 192.181 81.7932 192.453 82.9739 192.46ZM92.1952 196.64V192.383C92.8625 192.383 93.3392 192.167 93.6252 191.734C93.9112 191.294 94.1422 190.572 94.3182 189.567C94.4355 188.936 94.5308 188.262 94.6042 187.543C94.6775 186.824 94.7398 186.025 94.7912 185.145C94.8498 184.258 94.9048 183.249 94.9562 182.12H103.14V192.383H104.295V196.64H102.425V194H94.0652V196.64H92.1952ZM95.2092 192.383H101.182V183.737H96.7272C96.7052 184.258 96.6758 184.804 96.6392 185.376C96.6025 185.941 96.5585 186.505 96.5072 187.07C96.4632 187.635 96.4082 188.17 96.3422 188.676C96.2835 189.175 96.2138 189.622 96.1332 190.018C96.0378 190.568 95.9278 191.034 95.8032 191.415C95.6785 191.796 95.4805 192.119 95.2092 192.383ZM106.992 194V182.12H108.95V187.125H115.198V182.12H117.156V194H115.198V188.984H108.95V194H106.992ZM125.797 194.33C124.617 194.33 123.597 194.062 122.739 193.527C121.889 192.992 121.232 192.251 120.77 191.305C120.308 190.359 120.077 189.274 120.077 188.049C120.077 186.802 120.312 185.71 120.781 184.771C121.251 183.832 121.914 183.103 122.772 182.582C123.63 182.054 124.639 181.79 125.797 181.79C126.985 181.79 128.008 182.058 128.866 182.593C129.724 183.121 130.381 183.858 130.835 184.804C131.297 185.743 131.528 186.824 131.528 188.049C131.528 189.288 131.297 190.381 130.835 191.327C130.373 192.266 129.713 193.003 128.855 193.538C127.997 194.066 126.978 194.33 125.797 194.33ZM125.797 192.471C127.029 192.471 127.946 192.06 128.547 191.239C129.149 190.418 129.449 189.354 129.449 188.049C129.449 186.707 129.145 185.64 128.536 184.848C127.928 184.049 127.015 183.649 125.797 183.649C124.969 183.649 124.287 183.836 123.751 184.21C123.216 184.584 122.816 185.101 122.552 185.761C122.288 186.421 122.156 187.184 122.156 188.049C122.156 189.384 122.464 190.454 123.08 191.261C123.696 192.068 124.602 192.471 125.797 192.471ZM134.439 194L134.45 182.12H136.43V187.84L141.413 182.12H143.954L138.707 188.06L144.57 194H141.831L136.43 188.28V194H134.439ZM151.621 194.33C150.506 194.33 149.568 194.055 148.805 193.505C148.042 192.948 147.463 192.196 147.067 191.25C146.678 190.297 146.484 189.23 146.484 188.049C146.484 186.854 146.678 185.783 147.067 184.837C147.463 183.891 148.042 183.147 148.805 182.604C149.575 182.061 150.517 181.79 151.632 181.79C152.732 181.79 153.678 182.065 154.47 182.615C155.269 183.158 155.882 183.902 156.307 184.848C156.732 185.794 156.945 186.861 156.945 188.049C156.945 189.237 156.732 190.304 156.307 191.25C155.882 192.196 155.269 192.948 154.47 193.505C153.678 194.055 152.728 194.33 151.621 194.33ZM146.154 199.28V182.12H147.903V190.865H148.123V199.28H146.154ZM151.379 192.537C152.164 192.537 152.813 192.339 153.326 191.943C153.839 191.547 154.224 191.012 154.481 190.337C154.738 189.655 154.866 188.892 154.866 188.049C154.866 187.213 154.738 186.458 154.481 185.783C154.232 185.108 153.843 184.573 153.315 184.177C152.794 183.781 152.131 183.583 151.324 183.583C150.554 183.583 149.916 183.774 149.41 184.155C148.904 184.529 148.526 185.053 148.277 185.728C148.028 186.395 147.903 187.169 147.903 188.049C147.903 188.914 148.024 189.688 148.266 190.37C148.515 191.045 148.897 191.576 149.41 191.965C149.923 192.346 150.58 192.537 151.379 192.537ZM163.233 194.33C162.346 194.33 161.602 194.169 161 193.846C160.406 193.516 159.955 193.083 159.647 192.548C159.347 192.013 159.196 191.426 159.196 190.788C159.196 190.165 159.314 189.626 159.548 189.171C159.79 188.709 160.128 188.328 160.56 188.027C160.993 187.719 161.51 187.477 162.111 187.301C162.676 187.147 163.307 187.015 164.003 186.905C164.707 186.788 165.419 186.681 166.137 186.586C166.856 186.491 167.527 186.399 168.15 186.311L167.446 186.718C167.468 185.662 167.256 184.881 166.808 184.375C166.368 183.869 165.606 183.616 164.52 183.616C163.802 183.616 163.171 183.781 162.628 184.111C162.093 184.434 161.715 184.962 161.495 185.695L159.636 185.134C159.922 184.093 160.476 183.275 161.297 182.681C162.119 182.087 163.2 181.79 164.542 181.79C165.62 181.79 166.544 181.984 167.314 182.373C168.092 182.754 168.649 183.334 168.986 184.111C169.155 184.478 169.261 184.877 169.305 185.31C169.349 185.735 169.371 186.183 169.371 186.652V194H167.633V191.151L168.04 191.415C167.593 192.376 166.966 193.102 166.159 193.593C165.36 194.084 164.385 194.33 163.233 194.33ZM163.53 192.691C164.234 192.691 164.843 192.566 165.356 192.317C165.877 192.06 166.295 191.727 166.61 191.316C166.926 190.898 167.131 190.443 167.226 189.952C167.336 189.585 167.395 189.178 167.402 188.731C167.417 188.276 167.424 187.928 167.424 187.686L168.106 187.983C167.468 188.071 166.841 188.155 166.225 188.236C165.609 188.317 165.026 188.405 164.476 188.5C163.926 188.588 163.431 188.694 162.991 188.819C162.669 188.922 162.364 189.054 162.078 189.215C161.8 189.376 161.572 189.585 161.396 189.842C161.228 190.091 161.143 190.403 161.143 190.777C161.143 191.1 161.224 191.408 161.385 191.701C161.554 191.994 161.811 192.233 162.155 192.416C162.507 192.599 162.966 192.691 163.53 192.691ZM175.877 194V183.902H171.741V182.12H181.971V183.902H177.835V194H175.877ZM184.543 194V182.12H186.501V187.125H192.749V182.12H194.707V194H192.749V188.984H186.501V194H184.543ZM203.348 194.33C202.167 194.33 201.148 194.062 200.29 193.527C199.439 192.992 198.783 192.251 198.321 191.305C197.859 190.359 197.628 189.274 197.628 188.049C197.628 186.802 197.863 185.71 198.332 184.771C198.801 183.832 199.465 183.103 200.323 182.582C201.181 182.054 202.189 181.79 203.348 181.79C204.536 181.79 205.559 182.058 206.417 182.593C207.275 183.121 207.931 183.858 208.386 184.804C208.848 185.743 209.079 186.824 209.079 188.049C209.079 189.288 208.848 190.381 208.386 191.327C207.924 192.266 207.264 193.003 206.406 193.538C205.548 194.066 204.529 194.33 203.348 194.33ZM203.348 192.471C204.58 192.471 205.497 192.06 206.098 191.239C206.699 190.418 207 189.354 207 188.049C207 186.707 206.696 185.64 206.087 184.848C205.478 184.049 204.565 183.649 203.348 183.649C202.519 183.649 201.837 183.836 201.302 184.21C200.767 184.584 200.367 185.101 200.103 185.761C199.839 186.421 199.707 187.184 199.707 188.049C199.707 189.384 200.015 190.454 200.631 191.261C201.247 192.068 202.153 192.471 203.348 192.471ZM216.685 187.873V186.256H223.285V187.873H216.685ZM236.498 194.33C235.486 194.33 234.591 194.128 233.814 193.725C233.036 193.314 232.428 192.746 231.988 192.02C231.548 191.294 231.328 190.447 231.328 189.479C231.328 188.533 231.551 187.679 231.999 186.916C232.453 186.153 233.135 185.567 234.045 185.156L234.012 185.871C233.271 185.512 232.703 185.006 232.307 184.353C231.911 183.693 231.713 182.963 231.713 182.164C231.713 181.269 231.918 180.499 232.329 179.854C232.739 179.209 233.304 178.71 234.023 178.358C234.741 178.006 235.566 177.83 236.498 177.83C237.429 177.83 238.254 178.006 238.973 178.358C239.691 178.71 240.256 179.209 240.667 179.854C241.077 180.499 241.283 181.269 241.283 182.164C241.283 182.963 241.096 183.689 240.722 184.342C240.348 184.987 239.772 185.497 238.995 185.871L238.951 185.167C239.86 185.563 240.542 186.146 240.997 186.916C241.459 187.679 241.69 188.533 241.69 189.479C241.69 190.447 241.466 191.294 241.019 192.02C240.579 192.746 239.966 193.314 239.182 193.725C238.404 194.128 237.51 194.33 236.498 194.33ZM236.498 192.46C237.422 192.46 238.17 192.207 238.742 191.701C239.321 191.188 239.611 190.447 239.611 189.479C239.611 188.504 239.325 187.763 238.753 187.257C238.188 186.744 237.436 186.487 236.498 186.487C235.566 186.487 234.815 186.744 234.243 187.257C233.678 187.763 233.396 188.504 233.396 189.479C233.396 190.447 233.682 191.188 234.254 191.701C234.826 192.207 235.574 192.46 236.498 192.46ZM236.498 184.606C237.304 184.606 237.957 184.404 238.456 184.001C238.954 183.59 239.204 182.978 239.204 182.164C239.204 181.35 238.954 180.741 238.456 180.338C237.957 179.927 237.304 179.722 236.498 179.722C235.698 179.722 235.046 179.927 234.54 180.338C234.041 180.741 233.792 181.35 233.792 182.164C233.792 182.978 234.041 183.59 234.54 184.001C235.046 184.404 235.698 184.606 236.498 184.606ZM250.392 194.33C249.365 194.33 248.449 194.099 247.642 193.637C246.843 193.168 246.208 192.533 245.739 191.734C245.277 190.927 245.046 190.011 245.046 188.984V183.176C245.046 182.149 245.277 181.233 245.739 180.426C246.208 179.619 246.843 178.985 247.642 178.523C248.449 178.061 249.365 177.83 250.392 177.83C251.419 177.83 252.335 178.061 253.142 178.523C253.949 178.985 254.583 179.619 255.045 180.426C255.507 181.233 255.738 182.149 255.738 183.176V188.984C255.738 190.011 255.507 190.927 255.045 191.734C254.583 192.533 253.949 193.168 253.142 193.637C252.335 194.099 251.419 194.33 250.392 194.33ZM250.392 192.449C251.015 192.449 251.58 192.299 252.086 191.998C252.592 191.697 252.995 191.294 253.296 190.788C253.597 190.275 253.747 189.71 253.747 189.094V183.055C253.747 182.432 253.597 181.867 253.296 181.361C252.995 180.855 252.592 180.452 252.086 180.151C251.58 179.85 251.015 179.7 250.392 179.7C249.776 179.7 249.211 179.85 248.698 180.151C248.192 180.452 247.789 180.855 247.488 181.361C247.187 181.867 247.037 182.432 247.037 183.055V189.094C247.037 189.71 247.187 190.275 247.488 190.788C247.789 191.294 248.192 191.697 248.698 191.998C249.211 192.299 249.776 192.449 250.392 192.449ZM264.211 194V182.12H265.894L270.404 191.338L274.914 182.12H276.597V194H274.705V186.201L270.921 194H269.887L266.103 186.201V194H264.211ZM280.169 194V182.12H288.419V183.979H282.127V194H280.169ZM294.435 188.346C293.79 188.346 293.207 188.192 292.686 187.884C292.173 187.576 291.762 187.158 291.454 186.63C291.153 186.102 291.003 185.497 291.003 184.815V181.603C291.003 180.877 291.153 180.243 291.454 179.7C291.762 179.15 292.184 178.725 292.719 178.424C293.254 178.116 293.87 177.962 294.567 177.962C295.102 177.962 295.601 178.065 296.063 178.27C296.532 178.468 296.936 178.769 297.273 179.172L296.239 180.129C296.041 179.865 295.795 179.66 295.502 179.513C295.216 179.359 294.904 179.282 294.567 179.282C294.149 179.282 293.779 179.381 293.456 179.579C293.133 179.777 292.88 180.041 292.697 180.371C292.521 180.694 292.433 181.046 292.433 181.427V183.484L292.092 183.099C292.378 182.674 292.741 182.34 293.181 182.098C293.628 181.856 294.105 181.735 294.611 181.735C295.234 181.735 295.792 181.878 296.283 182.164C296.774 182.45 297.159 182.839 297.438 183.33C297.717 183.821 297.856 184.379 297.856 185.002C297.856 185.625 297.702 186.19 297.394 186.696C297.086 187.202 296.672 187.605 296.151 187.906C295.63 188.199 295.058 188.346 294.435 188.346ZM294.435 187.015C294.992 187.015 295.465 186.821 295.854 186.432C296.243 186.036 296.437 185.559 296.437 185.002C296.437 184.445 296.243 183.975 295.854 183.594C295.465 183.205 294.992 183.011 294.435 183.011C293.885 183.011 293.412 183.205 293.016 183.594C292.627 183.975 292.433 184.445 292.433 185.002C292.433 185.552 292.627 186.025 293.016 186.421C293.405 186.817 293.878 187.015 294.435 187.015ZM101.328 229V213.16H107.499C108.445 213.16 109.252 213.354 109.919 213.743C110.594 214.132 111.107 214.645 111.459 215.283C111.818 215.914 111.998 216.596 111.998 217.329C111.998 218.187 111.778 218.939 111.338 219.584C110.898 220.229 110.304 220.673 109.556 220.915L109.534 220.376C110.553 220.647 111.345 221.146 111.91 221.872C112.475 222.598 112.757 223.463 112.757 224.468C112.757 225.392 112.566 226.191 112.185 226.866C111.811 227.541 111.268 228.065 110.557 228.439C109.853 228.813 109.017 229 108.049 229H101.328ZM103.308 227.13H107.675C108.262 227.13 108.786 227.024 109.248 226.811C109.71 226.591 110.073 226.283 110.337 225.887C110.608 225.491 110.744 225.014 110.744 224.457C110.744 223.922 110.623 223.441 110.381 223.016C110.146 222.591 109.813 222.253 109.38 222.004C108.955 221.747 108.46 221.619 107.895 221.619H103.308V227.13ZM103.308 219.771H107.477C107.946 219.771 108.368 219.672 108.742 219.474C109.123 219.269 109.424 218.983 109.644 218.616C109.871 218.249 109.985 217.82 109.985 217.329C109.985 216.647 109.754 216.09 109.292 215.657C108.83 215.224 108.225 215.008 107.477 215.008H103.308V219.771ZM125.358 229.33C124.156 229.33 123.133 229.062 122.289 228.527C121.453 227.984 120.815 227.24 120.375 226.294C119.935 225.348 119.708 224.27 119.693 223.06C119.708 221.821 119.939 220.732 120.386 219.793C120.841 218.847 121.49 218.11 122.333 217.582C123.177 217.054 124.192 216.79 125.38 216.79C126.634 216.79 127.712 217.098 128.614 217.714C129.524 218.33 130.132 219.173 130.44 220.244L128.504 220.827C128.255 220.138 127.848 219.602 127.283 219.221C126.726 218.84 126.084 218.649 125.358 218.649C124.544 218.649 123.873 218.84 123.345 219.221C122.817 219.595 122.425 220.116 122.168 220.783C121.912 221.443 121.78 222.202 121.772 223.06C121.787 224.38 122.091 225.447 122.685 226.261C123.287 227.068 124.178 227.471 125.358 227.471C126.136 227.471 126.781 227.295 127.294 226.943C127.808 226.584 128.196 226.067 128.46 225.392L130.44 225.909C130.03 227.016 129.388 227.863 128.515 228.45C127.643 229.037 126.59 229.33 125.358 229.33ZM134.406 234.28L136.705 228.032L136.738 229.88L131.546 217.12H133.603L137.673 227.383H136.969L140.786 217.12H142.777L136.309 234.28H134.406ZM148.24 229V218.902H144.104V217.12H154.334V218.902H150.198V229H148.24ZM156.905 229L156.916 217.12H158.896V222.84L163.879 217.12H166.42L161.173 223.06L167.036 229H164.297L158.896 223.28V229H156.905ZM178.355 217.12V229H176.463V220.244L170.237 229H168.62V217.12H170.512V225.755L176.749 217.12H178.355ZM186.62 222.873V221.256H193.22V222.873H186.62ZM204.243 229V215.327L201.262 217.131V214.942L204.243 213.16H206.234V229H204.243ZM216.321 229.33C215.316 229.33 214.403 229.088 213.582 228.604C212.768 228.12 212.119 227.46 211.635 226.624C211.158 225.781 210.92 224.831 210.92 223.775V218.506C210.92 217.399 211.158 216.42 211.635 215.569C212.119 214.711 212.779 214.044 213.615 213.567C214.458 213.083 215.419 212.841 216.497 212.841C217.37 212.841 218.18 213.021 218.928 213.38C219.683 213.732 220.318 214.242 220.831 214.909L219.368 216.207C219.053 215.745 218.642 215.378 218.136 215.107C217.63 214.836 217.084 214.7 216.497 214.7C215.8 214.7 215.181 214.869 214.638 215.206C214.103 215.536 213.681 215.976 213.373 216.526C213.065 217.069 212.911 217.655 212.911 218.286V221.465L212.482 220.981C212.944 220.321 213.531 219.793 214.242 219.397C214.953 219.001 215.723 218.803 216.552 218.803C217.535 218.803 218.415 219.034 219.192 219.496C219.977 219.958 220.593 220.585 221.04 221.377C221.495 222.162 221.722 223.045 221.722 224.028C221.722 225.011 221.476 225.902 220.985 226.701C220.494 227.5 219.837 228.138 219.016 228.615C218.202 229.092 217.304 229.33 216.321 229.33ZM216.321 227.438C216.952 227.438 217.527 227.288 218.048 226.987C218.569 226.679 218.979 226.268 219.28 225.755C219.588 225.234 219.742 224.659 219.742 224.028C219.742 223.397 219.588 222.822 219.28 222.301C218.979 221.78 218.569 221.37 218.048 221.069C217.535 220.761 216.963 220.607 216.332 220.607C215.701 220.607 215.126 220.761 214.605 221.069C214.092 221.37 213.681 221.78 213.373 222.301C213.065 222.822 212.911 223.397 212.911 224.028C212.911 224.651 213.061 225.223 213.362 225.744C213.67 226.257 214.081 226.668 214.594 226.976C215.115 227.284 215.69 227.438 216.321 227.438ZM230.43 229.33C229.403 229.33 228.487 229.099 227.68 228.637C226.881 228.168 226.246 227.533 225.777 226.734C225.315 225.927 225.084 225.011 225.084 223.984V218.176C225.084 217.149 225.315 216.233 225.777 215.426C226.246 214.619 226.881 213.985 227.68 213.523C228.487 213.061 229.403 212.83 230.43 212.83C231.457 212.83 232.373 213.061 233.18 213.523C233.987 213.985 234.621 214.619 235.083 215.426C235.545 216.233 235.776 217.149 235.776 218.176V223.984C235.776 225.011 235.545 225.927 235.083 226.734C234.621 227.533 233.987 228.168 233.18 228.637C232.373 229.099 231.457 229.33 230.43 229.33ZM230.43 227.449C231.053 227.449 231.618 227.299 232.124 226.998C232.63 226.697 233.033 226.294 233.334 225.788C233.635 225.275 233.785 224.71 233.785 224.094V218.055C233.785 217.432 233.635 216.867 233.334 216.361C233.033 215.855 232.63 215.452 232.124 215.151C231.618 214.85 231.053 214.7 230.43 214.7C229.814 214.7 229.249 214.85 228.736 215.151C228.23 215.452 227.827 215.855 227.526 216.361C227.225 216.867 227.075 217.432 227.075 218.055V224.094C227.075 224.71 227.225 225.275 227.526 225.788C227.827 226.294 228.23 226.697 228.736 226.998C229.249 227.299 229.814 227.449 230.43 227.449ZM244.249 229V217.12H245.932L250.442 226.338L254.952 217.12H256.635V229H254.743V221.201L250.959 229H249.925L246.141 221.201V229H244.249ZM260.207 229V217.12H268.457V218.979H262.165V229H260.207ZM274.473 223.346C273.828 223.346 273.245 223.192 272.724 222.884C272.211 222.576 271.8 222.158 271.492 221.63C271.191 221.102 271.041 220.497 271.041 219.815V216.603C271.041 215.877 271.191 215.243 271.492 214.7C271.8 214.15 272.222 213.725 272.757 213.424C273.292 213.116 273.908 212.962 274.605 212.962C275.14 212.962 275.639 213.065 276.101 213.27C276.57 213.468 276.974 213.769 277.311 214.172L276.277 215.129C276.079 214.865 275.833 214.66 275.54 214.513C275.254 214.359 274.942 214.282 274.605 214.282C274.187 214.282 273.817 214.381 273.494 214.579C273.171 214.777 272.918 215.041 272.735 215.371C272.559 215.694 272.471 216.046 272.471 216.427V218.484L272.13 218.099C272.416 217.674 272.779 217.34 273.219 217.098C273.666 216.856 274.143 216.735 274.649 216.735C275.272 216.735 275.83 216.878 276.321 217.164C276.812 217.45 277.197 217.839 277.476 218.33C277.755 218.821 277.894 219.379 277.894 220.002C277.894 220.625 277.74 221.19 277.432 221.696C277.124 222.202 276.71 222.605 276.189 222.906C275.668 223.199 275.096 223.346 274.473 223.346ZM274.473 222.015C275.03 222.015 275.503 221.821 275.892 221.432C276.281 221.036 276.475 220.559 276.475 220.002C276.475 219.445 276.281 218.975 275.892 218.594C275.503 218.205 275.03 218.011 274.473 218.011C273.923 218.011 273.45 218.205 273.054 218.594C272.665 218.975 272.471 219.445 272.471 220.002C272.471 220.552 272.665 221.025 273.054 221.421C273.443 221.817 273.916 222.015 274.473 222.015Z" fill="#2E2E2E"/>
<circle cx="189.5" cy="44.5" r="43.75" fill="white" stroke="#D8B2FC" stroke-width="1.5"/>
<circle cx="190.5" cy="44.5" r="21.5" fill="#FFC3F3"/>
<path d="M189.667 21.667C195.678 21.667 201.444 24.0551 205.694 28.3059C209.945 32.5567 212.333 38.3221 212.333 44.3337C212.333 50.3452 209.945 56.1106 205.694 60.3614C201.444 64.6122 195.678 67.0003 189.667 67.0003C183.655 67.0003 177.89 64.6122 173.639 60.3614C169.388 56.1106 167 50.3452 167 44.3337C167 38.3221 169.388 32.5567 173.639 28.3059C177.89 24.0551 183.655 21.667 189.667 21.667ZM189.667 25.667C184.716 25.667 179.968 27.6337 176.467 31.1343C172.967 34.635 171 39.383 171 44.3337C171 49.2844 172.967 54.0323 176.467 57.533C179.968 61.0337 184.716 63.0003 189.667 63.0003C194.617 63.0003 199.365 61.0337 202.866 57.533C206.367 54.0323 208.333 49.2844 208.333 44.3337C208.333 39.383 206.367 34.635 202.866 31.1343C199.365 27.6337 194.617 25.667 189.667 25.667ZM189.667 29.667C190.15 29.667 190.617 29.842 190.981 30.1597C191.345 30.4774 191.582 30.9162 191.648 31.395L191.667 31.667V45.0003C191.667 45.507 191.474 45.9948 191.128 46.3651C190.782 46.7353 190.309 46.9605 189.803 46.995C189.297 47.0296 188.798 46.8709 188.405 46.5512C188.011 46.2314 187.754 45.7743 187.685 45.2723L187.667 45.0003V31.667C187.667 31.1366 187.877 30.6279 188.252 30.2528C188.628 29.8777 189.136 29.667 189.667 29.667Z" fill="#2A276E"/>
<rect x="194.535" y="40" width="4" height="9" rx="2" transform="rotate(56.8482 194.535 40)" fill="#2A276E"/>
</svg>
