<svg width="126" height="126" viewBox="0 0 126 126" fill="none" xmlns="http://www.w3.org/2000/svg">
<path fill-rule="evenodd" clip-rule="evenodd" d="M63 2C96.6891 2 124 29.3108 124 63C124 96.6891 96.6891 124 63 124C29.3108 124 2 96.6891 2 63C2 29.3108 29.3108 2 63 2Z" stroke="white" stroke-width="3.5"/>
<path fill-rule="evenodd" clip-rule="evenodd" d="M53.8564 47.7862C54.1309 47.6327 54.4368 47.5555 54.7437 47.5555C55.0497 47.5555 55.3566 47.6327 55.6311 47.7862L76.7876 62.6597C77.3356 62.9657 77.6749 63.5337 77.6749 64.1466C77.6749 64.7604 77.3366 65.3275 76.7876 65.6335L55.6311 80.5079C55.0821 80.8139 54.4054 80.8139 53.8573 80.5079C53.3083 80.201 52.969 79.6329 52.969 79.0201V49.2731C52.969 48.6602 53.3074 48.0921 53.8564 47.7862Z" stroke="white" stroke-width="3.5"/>
</svg>
