<svg width="442" height="152" viewBox="0 0 442 152" fill="none" xmlns="http://www.w3.org/2000/svg">
<g filter="url(#filter0_d)">
<path d="M30 62C30 84.0914 47.9086 102 70 102H372C394.091 102 412 84.0914 412 62V50C412 27.9086 394.091 10 372 10H30V62Z" fill="white"/>
</g>
<path fill-rule="evenodd" clip-rule="evenodd" d="M324.539 46.139C324.705 46.0465 324.891 46 325.078 46C325.263 46 325.45 46.0465 325.616 46.139L338.461 55.1039C338.794 55.2883 339 55.6307 339 56.0001C339 56.37 338.795 56.7119 338.461 56.8963L325.616 65.8617C325.283 66.0461 324.872 66.0461 324.539 65.8617C324.206 65.6767 324 65.3343 324 64.9649V47.0352C324 46.6658 324.205 46.3234 324.539 46.139Z" fill="#2A276E" stroke="#2A276E" stroke-width="3"/>
<path d="M104.049 55.36C104.049 54.32 104.233 53.296 104.601 52.288C104.985 51.28 105.537 50.368 106.257 49.552C106.977 48.736 107.857 48.088 108.897 47.608C109.937 47.112 111.121 46.864 112.449 46.864C114.001 46.864 115.353 47.208 116.505 47.896C117.657 48.584 118.513 49.48 119.073 50.584L116.529 52.336C116.241 51.696 115.865 51.192 115.401 50.824C114.937 50.456 114.433 50.192 113.889 50.032C113.361 49.872 112.849 49.792 112.353 49.792C111.521 49.792 110.793 49.96 110.169 50.296C109.561 50.632 109.049 51.072 108.633 51.616C108.217 52.16 107.905 52.768 107.697 53.44C107.505 54.112 107.409 54.784 107.409 55.456C107.409 56.464 107.617 57.408 108.033 58.288C108.449 59.152 109.033 59.856 109.785 60.4C110.537 60.944 111.409 61.216 112.401 61.216C112.913 61.216 113.441 61.128 113.985 60.952C114.545 60.776 115.057 60.496 115.521 60.112C115.985 59.728 116.345 59.232 116.601 58.624L119.313 60.184C118.961 61.032 118.409 61.752 117.657 62.344C116.905 62.92 116.057 63.368 115.113 63.688C114.169 63.992 113.233 64.144 112.305 64.144C111.089 64.144 109.977 63.896 108.969 63.4C107.977 62.888 107.113 62.216 106.377 61.384C105.641 60.536 105.065 59.592 104.649 58.552C104.249 57.496 104.049 56.432 104.049 55.36ZM121.722 64V51.424H125.082L129.018 58.696L132.978 51.424H136.29V64H133.242V55.864L130.026 61.768H128.01L124.77 55.864V64H121.722ZM145.561 64.24C144.185 64.24 143.001 63.944 142.009 63.352C141.033 62.744 140.281 61.944 139.753 60.952C139.225 59.96 138.961 58.888 138.961 57.736C138.961 56.568 139.225 55.488 139.753 54.496C140.297 53.504 141.057 52.712 142.033 52.12C143.025 51.512 144.201 51.208 145.561 51.208C146.921 51.208 148.089 51.512 149.065 52.12C150.057 52.712 150.817 53.504 151.345 54.496C151.873 55.488 152.137 56.568 152.137 57.736C152.137 58.888 151.873 59.96 151.345 60.952C150.817 61.944 150.057 62.744 149.065 63.352C148.089 63.944 146.921 64.24 145.561 64.24ZM142.273 57.736C142.273 58.472 142.417 59.128 142.705 59.704C142.993 60.264 143.385 60.704 143.881 61.024C144.377 61.344 144.937 61.504 145.561 61.504C146.169 61.504 146.721 61.344 147.217 61.024C147.713 60.688 148.105 60.24 148.393 59.68C148.697 59.104 148.849 58.448 148.849 57.712C148.849 56.992 148.697 56.352 148.393 55.792C148.105 55.216 147.713 54.768 147.217 54.448C146.721 54.112 146.169 53.944 145.561 53.944C144.937 53.944 144.377 54.112 143.881 54.448C143.385 54.768 142.993 55.216 142.705 55.792C142.417 56.352 142.273 57 142.273 57.736ZM157.712 64V54.232H153.728V51.424H164.936V54.232H160.928V64H157.712ZM174.773 64.24C173.781 64.24 172.917 64.016 172.181 63.568C171.445 63.12 170.869 62.528 170.453 61.792V69.112H167.237V51.424H170.045V53.584C170.509 52.848 171.109 52.272 171.845 51.856C172.597 51.424 173.445 51.208 174.389 51.208C175.525 51.208 176.533 51.504 177.413 52.096C178.293 52.672 178.989 53.456 179.501 54.448C180.013 55.424 180.269 56.504 180.269 57.688C180.269 58.92 180.029 60.032 179.549 61.024C179.085 62 178.437 62.784 177.605 63.376C176.789 63.952 175.845 64.24 174.773 64.24ZM173.693 61.504C174.349 61.504 174.917 61.328 175.397 60.976C175.893 60.608 176.277 60.136 176.549 59.56C176.837 58.968 176.981 58.344 176.981 57.688C176.981 56.984 176.829 56.352 176.525 55.792C176.221 55.216 175.805 54.768 175.277 54.448C174.765 54.112 174.173 53.944 173.501 53.944C172.893 53.944 172.285 54.144 171.677 54.544C171.069 54.944 170.661 55.448 170.453 56.056V59.008C170.741 59.712 171.181 60.304 171.773 60.784C172.365 61.264 173.005 61.504 173.693 61.504ZM188.78 64.24C187.42 64.24 186.244 63.944 185.252 63.352C184.276 62.76 183.516 61.976 182.972 61C182.428 60.008 182.156 58.936 182.156 57.784C182.156 56.6 182.42 55.512 182.948 54.52C183.492 53.512 184.26 52.712 185.252 52.12C186.244 51.512 187.428 51.208 188.804 51.208C190.18 51.208 191.356 51.512 192.332 52.12C193.308 52.712 194.052 53.504 194.564 54.496C195.092 55.472 195.356 56.528 195.356 57.664C195.356 58.08 195.332 58.44 195.284 58.744H185.564C185.644 59.72 186.004 60.488 186.644 61.048C187.3 61.608 188.052 61.888 188.9 61.888C189.54 61.888 190.14 61.736 190.7 61.432C191.276 61.112 191.668 60.696 191.876 60.184L194.636 60.952C194.172 61.912 193.428 62.704 192.404 63.328C191.38 63.936 190.172 64.24 188.78 64.24ZM185.492 56.704H192.068C191.972 55.76 191.612 55 190.988 54.424C190.38 53.832 189.636 53.536 188.756 53.536C187.892 53.536 187.148 53.832 186.524 54.424C185.916 55 185.572 55.76 185.492 56.704ZM200.72 64V54.232H196.736V51.424H207.944V54.232H203.936V64H200.72ZM210.245 64V51.424H213.461V55.384H216.317C217.821 55.384 218.973 55.768 219.773 56.536C220.573 57.304 220.973 58.32 220.973 59.584C220.973 60.88 220.589 61.944 219.821 62.776C219.069 63.592 217.973 64 216.533 64H210.245ZM213.461 61.552H216.029C216.685 61.552 217.165 61.368 217.469 61C217.773 60.616 217.925 60.152 217.925 59.608C217.925 59.08 217.781 58.64 217.493 58.288C217.205 57.92 216.709 57.736 216.005 57.736H213.461V61.552ZM229.761 64V51.424H236.769C237.633 51.424 238.329 51.568 238.857 51.856C239.401 52.144 239.801 52.52 240.057 52.984C240.313 53.448 240.441 53.944 240.441 54.472C240.441 55.176 240.281 55.792 239.961 56.32C239.641 56.848 239.161 57.256 238.521 57.544C239.257 57.736 239.857 58.088 240.321 58.6C240.785 59.112 241.017 59.776 241.017 60.592C241.017 61.776 240.601 62.64 239.769 63.184C238.953 63.728 237.841 64 236.433 64H229.761ZM232.809 56.656H235.953C236.385 56.656 236.737 56.504 237.009 56.2C237.281 55.88 237.417 55.504 237.417 55.072C237.417 54.656 237.281 54.312 237.009 54.04C236.753 53.752 236.409 53.608 235.977 53.608H232.809V56.656ZM232.809 61.816H236.337C236.785 61.816 237.153 61.664 237.441 61.36C237.745 61.056 237.897 60.68 237.897 60.232C237.897 59.784 237.753 59.416 237.465 59.128C237.177 58.824 236.809 58.672 236.361 58.672H232.809V61.816ZM243.855 64V51.448H247.071V59.704L252.711 51.424H255.639V64H252.423V55.936L246.855 64H243.855ZM258.041 67.048V61.192H258.377C258.793 61.192 259.177 61.032 259.529 60.712C259.881 60.392 260.169 59.816 260.393 58.984C260.633 58.152 260.777 56.952 260.825 55.384L260.969 51.424H270.401V61.192H272.153V67.048H269.345V64H260.873V67.048H258.041ZM262.433 61.192H267.185V54.136H263.777L263.705 55.696C263.641 57.296 263.505 58.52 263.297 59.368C263.089 60.216 262.801 60.824 262.433 61.192ZM280.569 64.24C279.209 64.24 278.033 63.944 277.041 63.352C276.065 62.76 275.305 61.976 274.761 61C274.217 60.008 273.945 58.936 273.945 57.784C273.945 56.6 274.209 55.512 274.737 54.52C275.281 53.512 276.049 52.712 277.041 52.12C278.033 51.512 279.217 51.208 280.593 51.208C281.969 51.208 283.145 51.512 284.121 52.12C285.097 52.712 285.841 53.504 286.353 54.496C286.881 55.472 287.145 56.528 287.145 57.664C287.145 58.08 287.121 58.44 287.073 58.744H277.353C277.433 59.72 277.793 60.488 278.433 61.048C279.089 61.608 279.841 61.888 280.689 61.888C281.329 61.888 281.929 61.736 282.489 61.432C283.065 61.112 283.457 60.696 283.665 60.184L286.425 60.952C285.961 61.912 285.217 62.704 284.193 63.328C283.169 63.936 281.961 64.24 280.569 64.24ZM277.281 56.704H283.857C283.761 55.76 283.401 55 282.777 54.424C282.169 53.832 281.425 53.536 280.545 53.536C279.681 53.536 278.937 53.832 278.313 54.424C277.705 55 277.361 55.76 277.281 56.704ZM295.413 64.24C294.037 64.24 292.853 63.944 291.861 63.352C290.885 62.744 290.133 61.944 289.605 60.952C289.077 59.96 288.813 58.888 288.813 57.736C288.813 56.568 289.077 55.488 289.605 54.496C290.149 53.504 290.909 52.712 291.885 52.12C292.877 51.512 294.053 51.208 295.413 51.208C296.773 51.208 297.941 51.512 298.917 52.12C299.909 52.712 300.669 53.504 301.197 54.496C301.725 55.488 301.989 56.568 301.989 57.736C301.989 58.888 301.725 59.96 301.197 60.952C300.669 61.944 299.909 62.744 298.917 63.352C297.941 63.944 296.773 64.24 295.413 64.24ZM292.125 57.736C292.125 58.472 292.269 59.128 292.557 59.704C292.845 60.264 293.237 60.704 293.733 61.024C294.229 61.344 294.789 61.504 295.413 61.504C296.021 61.504 296.573 61.344 297.069 61.024C297.565 60.688 297.957 60.24 298.245 59.68C298.549 59.104 298.701 58.448 298.701 57.712C298.701 56.992 298.549 56.352 298.245 55.792C297.957 55.216 297.565 54.768 297.069 54.448C296.573 54.112 296.021 53.944 295.413 53.944C294.789 53.944 294.229 54.112 293.733 54.448C293.237 54.768 292.845 55.216 292.557 55.792C292.269 56.352 292.125 57 292.125 57.736Z" fill="#2A276E"/>
<defs>
<filter id="filter0_d" x="0" y="0" width="442" height="152" filterUnits="userSpaceOnUse" color-interpolation-filters="sRGB">
<feFlood flood-opacity="0" result="BackgroundImageFix"/>
<feColorMatrix in="SourceAlpha" type="matrix" values="0 0 0 0 0 0 0 0 0 0 0 0 0 0 0 0 0 0 127 0" result="hardAlpha"/>
<feOffset dy="20"/>
<feGaussianBlur stdDeviation="15"/>
<feColorMatrix type="matrix" values="0 0 0 0 0.768627 0 0 0 0 0.768627 0 0 0 0 0.768627 0 0 0 1 0"/>
<feBlend mode="normal" in2="BackgroundImageFix" result="effect1_dropShadow"/>
<feBlend mode="normal" in="SourceGraphic" in2="effect1_dropShadow" result="shape"/>
</filter>
</defs>
</svg>
