<svg width="379" height="286" viewBox="0 0 379 286" fill="none" xmlns="http://www.w3.org/2000/svg">
<rect x="0.75" y="45.75" width="377.5" height="239.5" rx="29.25" fill="white" stroke="#D8B2FC" stroke-width="1.5"/>
<path d="M65.5352 133V118.8H71.5952C72.2752 118.8 72.8952 118.94 73.4552 119.22C74.0286 119.5 74.5152 119.867 74.9152 120.32C75.3286 120.773 75.6486 121.287 75.8752 121.86C76.1152 122.433 76.2352 123.013 76.2352 123.6C76.2352 124.227 76.1219 124.827 75.8952 125.4C75.6819 125.973 75.3752 126.487 74.9752 126.94C74.5886 127.393 74.1152 127.753 73.5552 128.02C72.9952 128.287 72.3752 128.42 71.6952 128.42H68.8152V133H65.5352ZM68.8152 125.56H71.4952C71.8819 125.56 72.2152 125.393 72.4952 125.06C72.7752 124.727 72.9152 124.24 72.9152 123.6C72.9152 123.267 72.8686 122.98 72.7752 122.74C72.6952 122.5 72.5819 122.3 72.4352 122.14C72.2886 121.98 72.1219 121.867 71.9352 121.8C71.7486 121.72 71.5619 121.68 71.3752 121.68H68.8152V125.56ZM88.5348 130.12V133H78.5548V118.8H88.3548V121.68H81.8348V124.44H87.4348V127.1H81.8348V130.12H88.5348ZM94.366 124.44H95.106L99.246 118.8H102.946L97.846 125.66L103.406 133H99.746L95.406 127.42H94.366V133H91.086V118.8H94.366V124.44ZM110.559 133.12C109.505 133.12 108.545 132.913 107.679 132.5C106.812 132.087 106.072 131.547 105.459 130.88C104.845 130.2 104.365 129.427 104.019 128.56C103.685 127.693 103.519 126.8 103.519 125.88C103.519 124.947 103.692 124.047 104.039 123.18C104.399 122.313 104.892 121.553 105.519 120.9C106.159 120.233 106.912 119.707 107.779 119.32C108.645 118.92 109.592 118.72 110.619 118.72C111.672 118.72 112.632 118.927 113.499 119.34C114.365 119.753 115.105 120.3 115.719 120.98C116.332 121.66 116.805 122.433 117.139 123.3C117.472 124.167 117.639 125.047 117.639 125.94C117.639 126.873 117.459 127.773 117.099 128.64C116.752 129.507 116.265 130.273 115.639 130.94C115.012 131.593 114.265 132.12 113.399 132.52C112.532 132.92 111.585 133.12 110.559 133.12ZM106.859 125.92C106.859 126.467 106.939 127 107.099 127.52C107.259 128.027 107.492 128.48 107.799 128.88C108.119 129.28 108.512 129.6 108.979 129.84C109.445 130.08 109.979 130.2 110.579 130.2C111.205 130.2 111.752 130.073 112.219 129.82C112.685 129.567 113.072 129.24 113.379 128.84C113.685 128.427 113.912 127.967 114.059 127.46C114.219 126.94 114.299 126.413 114.299 125.88C114.299 125.333 114.219 124.807 114.059 124.3C113.899 123.78 113.659 123.327 113.339 122.94C113.019 122.54 112.625 122.227 112.159 122C111.705 121.76 111.179 121.64 110.579 121.64C109.952 121.64 109.405 121.767 108.939 122.02C108.485 122.26 108.099 122.58 107.779 122.98C107.472 123.38 107.239 123.84 107.079 124.36C106.932 124.867 106.859 125.387 106.859 125.92ZM131.294 133V124.5L128.214 130.68H126.454L123.374 124.5V133H120.094V118.8H123.654L127.334 126.22L131.034 118.8H134.574V133H131.294ZM147.918 130.12V133H137.938V118.8H147.738V121.68H141.218V124.44H146.818V127.1H141.218V130.12H147.918ZM162.689 118.8V133H159.409V127.18H153.749V133H150.469V118.8H153.749V124.3H159.409V118.8H162.689ZM164.967 130.12H165.627C165.987 130.12 166.3 130.007 166.567 129.78C166.847 129.553 167.087 129.167 167.287 128.62C167.487 128.073 167.66 127.34 167.807 126.42C167.967 125.487 168.107 124.307 168.227 122.88L168.587 118.8H177.807V130.12H179.867V136.44H176.707V133H168.107V136.44H164.967V130.12ZM174.527 130.12V121.68H171.547L171.367 123.72C171.22 125.267 171.027 126.56 170.787 127.6C170.56 128.64 170.26 129.48 169.887 130.12H174.527ZM184.832 133.14C184.685 133.14 184.512 133.127 184.312 133.1C184.112 133.073 183.905 133.04 183.692 133C183.492 132.947 183.292 132.88 183.092 132.8C182.892 132.72 182.712 132.62 182.552 132.5L183.132 129.8C183.239 129.867 183.419 129.967 183.672 130.1C183.925 130.233 184.205 130.3 184.512 130.3C184.859 130.3 185.152 130.207 185.392 130.02C185.632 129.833 185.825 129.527 185.972 129.1L180.732 118.8H184.332L187.452 125.84L190.332 118.8H193.792L188.792 129.6C188.499 130.24 188.212 130.787 187.932 131.24C187.665 131.68 187.379 132.04 187.072 132.32C186.765 132.6 186.432 132.807 186.072 132.94C185.712 133.073 185.299 133.14 184.832 133.14ZM205.504 130.12V133H195.524V118.8H205.324V121.68H198.804V124.44H204.404V127.1H198.804V130.12H205.504ZM219.255 133V124.5L216.175 130.68H214.415L211.335 124.5V133H208.055V118.8H211.615L215.295 126.22L218.995 118.8H222.535V133H219.255ZM229.699 118.8H232.659L237.839 133H234.479L233.379 129.82H228.959L227.879 133H224.519L229.699 118.8ZM232.839 127.56L231.179 122.54L229.479 127.56H232.839ZM247.137 133V127.88H245.437L242.277 133H238.717L242.157 127.5C241.357 127.153 240.724 126.62 240.257 125.9C239.804 125.167 239.577 124.313 239.577 123.34C239.577 122.7 239.69 122.107 239.917 121.56C240.157 121.013 240.477 120.533 240.877 120.12C241.29 119.707 241.777 119.387 242.337 119.16C242.91 118.92 243.537 118.8 244.217 118.8H250.417V133H247.137ZM247.137 121.6H244.637C244.424 121.6 244.21 121.64 243.997 121.72C243.797 121.787 243.61 121.893 243.437 122.04C243.277 122.173 243.144 122.353 243.037 122.58C242.944 122.793 242.897 123.047 242.897 123.34C242.897 123.927 243.064 124.367 243.397 124.66C243.73 124.94 244.13 125.08 244.597 125.08H247.137V121.6ZM257.861 130.12H258.521C258.881 130.12 259.195 130.007 259.461 129.78C259.741 129.553 259.981 129.167 260.181 128.62C260.381 128.073 260.555 127.34 260.701 126.42C260.861 125.487 261.001 124.307 261.121 122.88L261.481 118.8H270.701V130.12H272.761V136.44H269.601V133H261.001V136.44H257.861V130.12ZM267.421 130.12V121.68H264.441L264.261 123.72C264.115 125.267 263.921 126.56 263.681 127.6C263.455 128.64 263.155 129.48 262.781 130.12H267.421ZM281.129 133.12C280.075 133.12 279.115 132.913 278.249 132.5C277.382 132.087 276.642 131.547 276.029 130.88C275.415 130.2 274.935 129.427 274.589 128.56C274.255 127.693 274.089 126.8 274.089 125.88C274.089 124.947 274.262 124.047 274.609 123.18C274.969 122.313 275.462 121.553 276.089 120.9C276.729 120.233 277.482 119.707 278.349 119.32C279.215 118.92 280.162 118.72 281.189 118.72C282.242 118.72 283.202 118.927 284.069 119.34C284.935 119.753 285.675 120.3 286.289 120.98C286.902 121.66 287.375 122.433 287.709 123.3C288.042 124.167 288.209 125.047 288.209 125.94C288.209 126.873 288.029 127.773 287.669 128.64C287.322 129.507 286.835 130.273 286.209 130.94C285.582 131.593 284.835 132.12 283.969 132.52C283.102 132.92 282.155 133.12 281.129 133.12ZM277.429 125.92C277.429 126.467 277.509 127 277.669 127.52C277.829 128.027 278.062 128.48 278.369 128.88C278.689 129.28 279.082 129.6 279.549 129.84C280.015 130.08 280.549 130.2 281.149 130.2C281.775 130.2 282.322 130.073 282.789 129.82C283.255 129.567 283.642 129.24 283.949 128.84C284.255 128.427 284.482 127.967 284.629 127.46C284.789 126.94 284.869 126.413 284.869 125.88C284.869 125.333 284.789 124.807 284.629 124.3C284.469 123.78 284.229 123.327 283.909 122.94C283.589 122.54 283.195 122.227 282.729 122C282.275 121.76 281.749 121.64 281.149 121.64C280.522 121.64 279.975 121.767 279.509 122.02C279.055 122.26 278.669 122.58 278.349 122.98C278.042 123.38 277.809 123.84 277.649 124.36C277.502 124.867 277.429 125.387 277.429 125.92ZM289.531 120.7C290.171 120.033 290.891 119.533 291.691 119.2C292.505 118.853 293.465 118.68 294.571 118.68C295.971 118.68 297.085 118.987 297.911 119.6C298.738 120.213 299.151 121.12 299.151 122.32C299.151 122.987 298.985 123.607 298.651 124.18C298.331 124.753 297.778 125.18 296.991 125.46C297.871 125.673 298.538 126.087 298.991 126.7C299.458 127.3 299.691 128.033 299.691 128.9C299.691 129.567 299.558 130.167 299.291 130.7C299.025 131.22 298.651 131.66 298.171 132.02C297.705 132.38 297.145 132.653 296.491 132.84C295.851 133.027 295.158 133.12 294.411 133.12C293.331 133.12 292.385 132.967 291.571 132.66C290.758 132.34 289.985 131.847 289.251 131.18L290.931 128.76C291.385 129.187 291.871 129.533 292.391 129.8C292.925 130.053 293.551 130.18 294.271 130.18C294.871 130.18 295.365 130.033 295.751 129.74C296.151 129.433 296.351 128.98 296.351 128.38C296.351 127.873 296.165 127.447 295.791 127.1C295.431 126.753 294.845 126.58 294.031 126.58H292.311V124.3H293.791C294.551 124.3 295.125 124.167 295.511 123.9C295.898 123.633 296.091 123.253 296.091 122.76C296.091 122.333 295.951 122.007 295.671 121.78C295.391 121.54 294.958 121.42 294.371 121.42C293.731 121.42 293.158 121.533 292.651 121.76C292.158 121.987 291.691 122.313 291.251 122.74L289.531 120.7ZM305.706 118.8H308.666L313.846 133H310.486L309.386 129.82H304.966L303.886 133H300.526L305.706 118.8ZM308.846 127.56L307.186 122.54L305.486 127.56H308.846Z" fill="#703E97"/>
<path d="M57.1421 181.64V177.141C57.7214 177.141 58.1907 176.994 58.5501 176.701C58.9167 176.408 59.2027 176.012 59.4081 175.513C59.6134 175.007 59.7674 174.439 59.8701 173.808C59.9801 173.177 60.0681 172.525 60.1341 171.85C60.2294 170.897 60.3064 169.973 60.3651 169.078C60.4311 168.183 60.4897 167.256 60.5411 166.295C60.5924 165.334 60.6511 164.286 60.7171 163.149L70.6721 163.16V177.141H71.8271V181.64H69.8691V179H59.1001V181.64H57.1421ZM60.5741 177.141H68.7141V165.019L62.5321 165.008C62.4881 165.859 62.4441 166.676 62.4001 167.461C62.3634 168.238 62.3157 169.023 62.2571 169.815C62.1984 170.607 62.1251 171.447 62.0371 172.334C61.9564 173.155 61.8647 173.867 61.7621 174.468C61.6667 175.062 61.5274 175.575 61.3441 176.008C61.1607 176.433 60.9041 176.811 60.5741 177.141ZM79.8002 179.33C78.6195 179.33 77.6002 179.062 76.7422 178.527C75.8915 177.992 75.2352 177.251 74.7732 176.305C74.3112 175.359 74.0802 174.274 74.0802 173.049C74.0802 171.802 74.3149 170.71 74.7842 169.771C75.2535 168.832 75.9172 168.103 76.7752 167.582C77.6332 167.054 78.6415 166.79 79.8002 166.79C80.9882 166.79 82.0112 167.058 82.8692 167.593C83.7272 168.121 84.3835 168.858 84.8382 169.804C85.3002 170.743 85.5312 171.824 85.5312 173.049C85.5312 174.288 85.3002 175.381 84.8382 176.327C84.3762 177.266 83.7162 178.003 82.8582 178.538C82.0002 179.066 80.9809 179.33 79.8002 179.33ZM79.8002 177.471C81.0322 177.471 81.9489 177.06 82.5502 176.239C83.1515 175.418 83.4522 174.354 83.4522 173.049C83.4522 171.707 83.1479 170.64 82.5392 169.848C81.9305 169.049 81.0175 168.649 79.8002 168.649C78.9715 168.649 78.2895 168.836 77.7542 169.21C77.2189 169.584 76.8192 170.101 76.5552 170.761C76.2912 171.421 76.1592 172.184 76.1592 173.049C76.1592 174.384 76.4672 175.454 77.0832 176.261C77.6992 177.068 78.6049 177.471 79.8002 177.471ZM92.4308 179.33C91.2575 179.33 90.2198 179.077 89.3178 178.571C88.4158 178.058 87.7045 177.354 87.1838 176.459L88.7458 175.447C89.1785 176.1 89.6955 176.602 90.2968 176.954C90.8981 177.299 91.5838 177.471 92.3538 177.471C93.1605 177.471 93.8021 177.288 94.2788 176.921C94.7555 176.547 94.9938 176.045 94.9938 175.414C94.9938 174.945 94.8765 174.585 94.6418 174.336C94.4071 174.087 94.0698 173.914 93.6298 173.819C93.1898 173.724 92.6655 173.676 92.0568 173.676H90.8248V172.059H92.0458C92.8158 172.059 93.4428 171.934 93.9268 171.685C94.4108 171.436 94.6528 171.01 94.6528 170.409C94.6528 169.793 94.4255 169.346 93.9708 169.067C93.5235 168.781 92.9881 168.638 92.3648 168.638C91.7048 168.638 91.0741 168.777 90.4728 169.056C89.8715 169.327 89.3545 169.672 88.9218 170.09L87.7338 168.759C88.3498 168.128 89.0575 167.644 89.8568 167.307C90.6635 166.962 91.5398 166.79 92.4858 166.79C93.2485 166.79 93.9451 166.926 94.5758 167.197C95.2138 167.461 95.7198 167.853 96.0938 168.374C96.4751 168.887 96.6658 169.514 96.6658 170.255C96.6658 170.886 96.5191 171.447 96.2258 171.938C95.9325 172.429 95.4998 172.858 94.9278 173.225L94.8508 172.532C95.3348 172.649 95.7345 172.866 96.0498 173.181C96.3725 173.489 96.6108 173.856 96.7648 174.281C96.9188 174.706 96.9958 175.15 96.9958 175.612C96.9958 176.389 96.7905 177.057 96.3798 177.614C95.9765 178.164 95.4301 178.589 94.7408 178.89C94.0515 179.183 93.2815 179.33 92.4308 179.33ZM103.287 179.33C102.4 179.33 101.655 179.169 101.054 178.846C100.46 178.516 100.009 178.083 99.7011 177.548C99.4005 177.013 99.2501 176.426 99.2501 175.788C99.2501 175.165 99.3675 174.626 99.6021 174.171C99.8441 173.709 100.181 173.328 100.614 173.027C101.047 172.719 101.564 172.477 102.165 172.301C102.73 172.147 103.36 172.015 104.057 171.905C104.761 171.788 105.472 171.681 106.191 171.586C106.91 171.491 107.581 171.399 108.204 171.311L107.5 171.718C107.522 170.662 107.309 169.881 106.862 169.375C106.422 168.869 105.659 168.616 104.574 168.616C103.855 168.616 103.225 168.781 102.682 169.111C102.147 169.434 101.769 169.962 101.549 170.695L99.6901 170.134C99.9761 169.093 100.53 168.275 101.351 167.681C102.172 167.087 103.254 166.79 104.596 166.79C105.674 166.79 106.598 166.984 107.368 167.373C108.145 167.754 108.703 168.334 109.04 169.111C109.209 169.478 109.315 169.877 109.359 170.31C109.403 170.735 109.425 171.183 109.425 171.652V179H107.687V176.151L108.094 176.415C107.647 177.376 107.02 178.102 106.213 178.593C105.414 179.084 104.438 179.33 103.287 179.33ZM103.584 177.691C104.288 177.691 104.897 177.566 105.41 177.317C105.931 177.06 106.349 176.727 106.664 176.316C106.979 175.898 107.185 175.443 107.28 174.952C107.39 174.585 107.449 174.178 107.456 173.731C107.471 173.276 107.478 172.928 107.478 172.686L108.16 172.983C107.522 173.071 106.895 173.155 106.279 173.236C105.663 173.317 105.08 173.405 104.53 173.5C103.98 173.588 103.485 173.694 103.045 173.819C102.722 173.922 102.418 174.054 102.132 174.215C101.853 174.376 101.626 174.585 101.45 174.842C101.281 175.091 101.197 175.403 101.197 175.777C101.197 176.1 101.278 176.408 101.439 176.701C101.608 176.994 101.864 177.233 102.209 177.416C102.561 177.599 103.019 177.691 103.584 177.691ZM124.531 179V176.085H117.249V174.226L122.474 163.16H124.696L119.471 174.226H124.531V169.771H126.511V174.226H128.161V176.085H126.511V179H124.531ZM136.641 179.33C135.614 179.33 134.698 179.099 133.891 178.637C133.092 178.168 132.457 177.533 131.988 176.734C131.526 175.927 131.295 175.011 131.295 173.984V168.176C131.295 167.149 131.526 166.233 131.988 165.426C132.457 164.619 133.092 163.985 133.891 163.523C134.698 163.061 135.614 162.83 136.641 162.83C137.668 162.83 138.584 163.061 139.391 163.523C140.198 163.985 140.832 164.619 141.294 165.426C141.756 166.233 141.987 167.149 141.987 168.176V173.984C141.987 175.011 141.756 175.927 141.294 176.734C140.832 177.533 140.198 178.168 139.391 178.637C138.584 179.099 137.668 179.33 136.641 179.33ZM136.641 177.449C137.264 177.449 137.829 177.299 138.335 176.998C138.841 176.697 139.244 176.294 139.545 175.788C139.846 175.275 139.996 174.71 139.996 174.094V168.055C139.996 167.432 139.846 166.867 139.545 166.361C139.244 165.855 138.841 165.452 138.335 165.151C137.829 164.85 137.264 164.7 136.641 164.7C136.025 164.7 135.46 164.85 134.947 165.151C134.441 165.452 134.038 165.855 133.737 166.361C133.436 166.867 133.286 167.432 133.286 168.055V174.094C133.286 174.71 133.436 175.275 133.737 175.788C134.038 176.294 134.441 176.697 134.947 176.998C135.46 177.299 136.025 177.449 136.641 177.449ZM150.46 179V167.12H152.143L156.653 176.338L161.163 167.12H162.846V179H160.954V171.201L157.17 179H156.136L152.352 171.201V179H150.46ZM166.418 179V167.12H174.668V168.979H168.376V179H166.418ZM181.276 181.64V177.383C181.944 177.383 182.42 177.167 182.706 176.734C182.992 176.294 183.223 175.572 183.399 174.567C183.517 173.936 183.612 173.262 183.685 172.543C183.759 171.824 183.821 171.025 183.872 170.145C183.931 169.258 183.986 168.249 184.037 167.12H192.221V177.383H193.376V181.64H191.506V179H183.146V181.64H181.276ZM184.29 177.383H190.263V168.737H185.808C185.786 169.258 185.757 169.804 185.72 170.376C185.684 170.941 185.64 171.505 185.588 172.07C185.544 172.635 185.489 173.17 185.423 173.676C185.365 174.175 185.295 174.622 185.214 175.018C185.119 175.568 185.009 176.034 184.884 176.415C184.76 176.796 184.562 177.119 184.29 177.383ZM200.714 179.33C199.534 179.33 198.514 179.062 197.656 178.527C196.806 177.992 196.149 177.251 195.687 176.305C195.225 175.359 194.994 174.274 194.994 173.049C194.994 171.802 195.229 170.71 195.698 169.771C196.168 168.832 196.831 168.103 197.689 167.582C198.547 167.054 199.556 166.79 200.714 166.79C201.902 166.79 202.925 167.058 203.783 167.593C204.641 168.121 205.298 168.858 205.752 169.804C206.214 170.743 206.445 171.824 206.445 173.049C206.445 174.288 206.214 175.381 205.752 176.327C205.29 177.266 204.63 178.003 203.772 178.538C202.914 179.066 201.895 179.33 200.714 179.33ZM200.714 177.471C201.946 177.471 202.863 177.06 203.464 176.239C204.066 175.418 204.366 174.354 204.366 173.049C204.366 171.707 204.062 170.64 203.453 169.848C202.845 169.049 201.932 168.649 200.714 168.649C199.886 168.649 199.204 168.836 198.668 169.21C198.133 169.584 197.733 170.101 197.469 170.761C197.205 171.421 197.073 172.184 197.073 173.049C197.073 174.384 197.381 175.454 197.997 176.261C198.613 177.068 199.519 177.471 200.714 177.471ZM208.267 179V177.317C208.707 177.398 209.041 177.383 209.268 177.273C209.503 177.156 209.675 176.954 209.785 176.668C209.902 176.375 209.998 176.008 210.071 175.568C210.196 174.871 210.302 174.094 210.39 173.236C210.485 172.378 210.57 171.439 210.643 170.42C210.724 169.393 210.797 168.293 210.863 167.12H219.168V179H217.21V168.979H212.645C212.601 169.654 212.546 170.347 212.48 171.058C212.421 171.769 212.359 172.462 212.293 173.137C212.227 173.804 212.154 174.428 212.073 175.007C212 175.579 211.919 176.074 211.831 176.492C211.692 177.211 211.497 177.786 211.248 178.219C210.999 178.644 210.639 178.919 210.17 179.044C209.701 179.176 209.066 179.161 208.267 179ZM221.438 179L226.234 173.06L221.669 167.12H223.847L228.258 172.95V167.12H230.04V172.95L234.451 167.12H236.629L232.064 173.06L236.86 179H234.583L230.04 173.17V179H228.258V173.17L223.715 179H221.438ZM239.102 179V167.12H241.06V172.125H247.308V167.12H249.266V179H247.308V173.984H241.06V179H239.102ZM256.225 179.33C255.337 179.33 254.593 179.169 253.992 178.846C253.398 178.516 252.947 178.083 252.639 177.548C252.338 177.013 252.188 176.426 252.188 175.788C252.188 175.165 252.305 174.626 252.54 174.171C252.782 173.709 253.119 173.328 253.552 173.027C253.984 172.719 254.501 172.477 255.103 172.301C255.667 172.147 256.298 172.015 256.995 171.905C257.699 171.788 258.41 171.681 259.129 171.586C259.847 171.491 260.518 171.399 261.142 171.311L260.438 171.718C260.46 170.662 260.247 169.881 259.8 169.375C259.36 168.869 258.597 168.616 257.512 168.616C256.793 168.616 256.162 168.781 255.62 169.111C255.084 169.434 254.707 169.962 254.487 170.695L252.628 170.134C252.914 169.093 253.467 168.275 254.289 167.681C255.11 167.087 256.192 166.79 257.534 166.79C258.612 166.79 259.536 166.984 260.306 167.373C261.083 167.754 261.64 168.334 261.978 169.111C262.146 169.478 262.253 169.877 262.297 170.31C262.341 170.735 262.363 171.183 262.363 171.652V179H260.625V176.151L261.032 176.415C260.584 177.376 259.957 178.102 259.151 178.593C258.351 179.084 257.376 179.33 256.225 179.33ZM256.522 177.691C257.226 177.691 257.834 177.566 258.348 177.317C258.868 177.06 259.286 176.727 259.602 176.316C259.917 175.898 260.122 175.443 260.218 174.952C260.328 174.585 260.386 174.178 260.394 173.731C260.408 173.276 260.416 172.928 260.416 172.686L261.098 172.983C260.46 173.071 259.833 173.155 259.217 173.236C258.601 173.317 258.018 173.405 257.468 173.5C256.918 173.588 256.423 173.694 255.983 173.819C255.66 173.922 255.356 174.054 255.07 174.215C254.791 174.376 254.564 174.585 254.388 174.842C254.219 175.091 254.135 175.403 254.135 175.777C254.135 176.1 254.215 176.408 254.377 176.701C254.545 176.994 254.802 177.233 255.147 177.416C255.499 177.599 255.957 177.691 256.522 177.691ZM275.456 179.341C274.334 179.334 273.377 179.092 272.585 178.615C271.793 178.131 271.177 177.423 270.737 176.492C270.297 175.561 270.051 174.42 270 173.071C269.971 172.448 269.978 171.762 270.022 171.014C270.073 170.266 270.154 169.547 270.264 168.858C270.381 168.169 270.528 167.6 270.704 167.153C270.902 166.618 271.181 166.123 271.54 165.668C271.907 165.206 272.317 164.825 272.772 164.524C273.234 164.209 273.751 163.963 274.323 163.787C274.895 163.611 275.493 163.475 276.116 163.38C276.747 163.277 277.377 163.189 278.008 163.116C278.639 163.035 279.24 162.94 279.812 162.83L280.01 164.59C279.607 164.678 279.13 164.755 278.58 164.821C278.03 164.88 277.458 164.949 276.864 165.03C276.277 165.111 275.713 165.224 275.17 165.371C274.635 165.51 274.173 165.705 273.784 165.954C273.212 166.299 272.772 166.816 272.464 167.505C272.163 168.187 271.98 168.953 271.914 169.804C272.369 169.1 272.959 168.583 273.685 168.253C274.411 167.923 275.185 167.758 276.006 167.758C277.069 167.758 277.986 168.007 278.756 168.506C279.526 168.997 280.116 169.676 280.527 170.541C280.945 171.406 281.154 172.393 281.154 173.5C281.154 174.673 280.919 175.7 280.45 176.58C279.981 177.46 279.317 178.142 278.459 178.626C277.608 179.11 276.607 179.348 275.456 179.341ZM275.577 177.482C276.728 177.482 277.601 177.126 278.195 176.415C278.789 175.696 279.086 174.743 279.086 173.555C279.086 172.338 278.778 171.381 278.162 170.684C277.546 169.98 276.681 169.628 275.566 169.628C274.437 169.628 273.571 169.98 272.97 170.684C272.376 171.381 272.079 172.338 272.079 173.555C272.079 174.78 272.38 175.74 272.981 176.437C273.582 177.134 274.448 177.482 275.577 177.482ZM284.082 179L284.071 167.12H286.04V171.421H287.855C288.2 171.421 288.552 171.428 288.911 171.443C289.27 171.458 289.582 171.491 289.846 171.542C290.462 171.667 291.001 171.876 291.463 172.169C291.925 172.462 292.284 172.858 292.541 173.357C292.798 173.856 292.926 174.475 292.926 175.216C292.926 176.243 292.658 177.057 292.123 177.658C291.595 178.252 290.902 178.648 290.044 178.846C289.751 178.912 289.413 178.956 289.032 178.978C288.658 178.993 288.302 179 287.965 179H284.082ZM286.04 177.383H287.998C288.218 177.383 288.464 177.376 288.735 177.361C289.006 177.346 289.248 177.31 289.461 177.251C289.835 177.141 290.169 176.925 290.462 176.602C290.763 176.279 290.913 175.817 290.913 175.216C290.913 174.607 290.766 174.138 290.473 173.808C290.187 173.478 289.809 173.262 289.34 173.159C289.127 173.108 288.904 173.075 288.669 173.06C288.434 173.045 288.211 173.038 287.998 173.038H286.04V177.383ZM294.29 179V167.12H296.248V179H294.29ZM302.982 179V168.902H298.846V167.12H309.076V168.902H304.94V179H302.982ZM311.658 179L311.647 167.12H313.616V171.421H316.179C316.524 171.421 316.876 171.428 317.235 171.443C317.594 171.458 317.906 171.491 318.17 171.542C318.786 171.659 319.325 171.865 319.787 172.158C320.249 172.451 320.608 172.851 320.865 173.357C321.122 173.856 321.25 174.475 321.25 175.216C321.25 176.243 320.982 177.057 320.447 177.658C319.919 178.252 319.226 178.648 318.368 178.846C318.075 178.912 317.737 178.956 317.356 178.978C316.982 178.993 316.626 179 316.289 179H311.658ZM313.616 177.383H316.322C316.542 177.383 316.788 177.376 317.059 177.361C317.33 177.346 317.572 177.31 317.785 177.251C318.159 177.141 318.493 176.925 318.786 176.602C319.087 176.279 319.237 175.817 319.237 175.216C319.237 174.607 319.09 174.138 318.797 173.808C318.511 173.478 318.133 173.262 317.664 173.159C317.451 173.108 317.228 173.075 316.993 173.06C316.758 173.045 316.535 173.038 316.322 173.038H313.616V177.383ZM38.3874 209V197.12H48.1224V209H46.1644V198.979H40.3454V209H38.3874ZM57.1591 209.33C56.0444 209.33 55.1058 209.055 54.3431 208.505C53.5804 207.948 53.0011 207.196 52.6051 206.25C52.2164 205.297 52.0221 204.23 52.0221 203.049C52.0221 201.854 52.2164 200.783 52.6051 199.837C53.0011 198.891 53.5804 198.147 54.3431 197.604C55.1131 197.061 56.0554 196.79 57.1701 196.79C58.2701 196.79 59.2161 197.065 60.0081 197.615C60.8074 198.158 61.4198 198.902 61.8451 199.848C62.2704 200.794 62.4831 201.861 62.4831 203.049C62.4831 204.237 62.2704 205.304 61.8451 206.25C61.4198 207.196 60.8074 207.948 60.0081 208.505C59.2161 209.055 58.2664 209.33 57.1591 209.33ZM51.6921 214.28V197.12H53.4411V205.865H53.6611V214.28H51.6921ZM56.9171 207.537C57.7018 207.537 58.3508 207.339 58.8641 206.943C59.3774 206.547 59.7624 206.012 60.0191 205.337C60.2758 204.655 60.4041 203.892 60.4041 203.049C60.4041 202.213 60.2758 201.458 60.0191 200.783C59.7698 200.108 59.3811 199.573 58.8531 199.177C58.3324 198.781 57.6688 198.583 56.8621 198.583C56.0921 198.583 55.4541 198.774 54.9481 199.155C54.4421 199.529 54.0644 200.053 53.8151 200.728C53.5658 201.395 53.4411 202.169 53.4411 203.049C53.4411 203.914 53.5621 204.688 53.8041 205.37C54.0534 206.045 54.4348 206.576 54.9481 206.965C55.4614 207.346 56.1178 207.537 56.9171 207.537ZM75.1185 197.12V209H73.2265V200.244L67.0005 209H65.3835V197.12H67.2755V205.755L73.5125 197.12H75.1185ZM78.6882 209V197.12H80.6462V202.125H86.8942V197.12H88.8522V209H86.8942V203.984H80.6462V209H78.6882ZM99.7706 209V204.699H97.2076C96.9069 204.699 96.5732 204.688 96.2066 204.666C95.8472 204.637 95.5099 204.596 95.1946 204.545C94.3366 204.384 93.6106 204.006 93.0166 203.412C92.4299 202.818 92.1366 201.997 92.1366 200.948C92.1366 199.929 92.4116 199.111 92.9616 198.495C93.5189 197.872 94.2046 197.468 95.0186 197.285C95.3852 197.197 95.7556 197.149 96.1296 197.142C96.5109 197.127 96.8336 197.12 97.0976 197.12H101.729L101.74 209H99.7706ZM91.7736 209L94.9306 204.16H97.0426L93.8856 209H91.7736ZM97.0646 203.082H99.7706V198.737H97.0646C96.8959 198.737 96.6722 198.744 96.3936 198.759C96.1222 198.774 95.8619 198.818 95.6126 198.891C95.3779 198.957 95.1469 199.078 94.9196 199.254C94.6996 199.43 94.5162 199.657 94.3696 199.936C94.2229 200.215 94.1496 200.545 94.1496 200.926C94.1496 201.476 94.3036 201.923 94.6116 202.268C94.9196 202.605 95.2936 202.833 95.7336 202.95C95.9756 203.009 96.2139 203.045 96.4486 203.06C96.6906 203.075 96.8959 203.082 97.0646 203.082ZM108.476 209V198.902H104.34V197.12H114.57V198.902H110.434V209H108.476ZM120.143 209.33C119.255 209.33 118.511 209.169 117.91 208.846C117.316 208.516 116.865 208.083 116.557 207.548C116.256 207.013 116.106 206.426 116.106 205.788C116.106 205.165 116.223 204.626 116.458 204.171C116.7 203.709 117.037 203.328 117.47 203.027C117.902 202.719 118.419 202.477 119.021 202.301C119.585 202.147 120.216 202.015 120.913 201.905C121.617 201.788 122.328 201.681 123.047 201.586C123.765 201.491 124.436 201.399 125.06 201.311L124.356 201.718C124.378 200.662 124.165 199.881 123.718 199.375C123.278 198.869 122.515 198.616 121.43 198.616C120.711 198.616 120.08 198.781 119.538 199.111C119.002 199.434 118.625 199.962 118.405 200.695L116.546 200.134C116.832 199.093 117.385 198.275 118.207 197.681C119.028 197.087 120.11 196.79 121.452 196.79C122.53 196.79 123.454 196.984 124.224 197.373C125.001 197.754 125.558 198.334 125.896 199.111C126.064 199.478 126.171 199.877 126.215 200.31C126.259 200.735 126.281 201.183 126.281 201.652V209H124.543V206.151L124.95 206.415C124.502 207.376 123.875 208.102 123.069 208.593C122.269 209.084 121.294 209.33 120.143 209.33ZM120.44 207.691C121.144 207.691 121.752 207.566 122.266 207.317C122.786 207.06 123.204 206.727 123.52 206.316C123.835 205.898 124.04 205.443 124.136 204.952C124.246 204.585 124.304 204.178 124.312 203.731C124.326 203.276 124.334 202.928 124.334 202.686L125.016 202.983C124.378 203.071 123.751 203.155 123.135 203.236C122.519 203.317 121.936 203.405 121.386 203.5C120.836 203.588 120.341 203.694 119.901 203.819C119.578 203.922 119.274 204.054 118.988 204.215C118.709 204.376 118.482 204.585 118.306 204.842C118.137 205.091 118.053 205.403 118.053 205.777C118.053 206.1 118.133 206.408 118.295 206.701C118.463 206.994 118.72 207.233 119.065 207.416C119.417 207.599 119.875 207.691 120.44 207.691ZM61.6774 239V227.12H71.4124V239H69.4544V228.979H63.6354V239H61.6774ZM80.0531 239.33C78.8725 239.33 77.8531 239.062 76.9951 238.527C76.1445 237.992 75.4881 237.251 75.0261 236.305C74.5641 235.359 74.3331 234.274 74.3331 233.049C74.3331 231.802 74.5678 230.71 75.0371 229.771C75.5065 228.832 76.1701 228.103 77.0281 227.582C77.8861 227.054 78.8945 226.79 80.0531 226.79C81.2411 226.79 82.2641 227.058 83.1221 227.593C83.9801 228.121 84.6365 228.858 85.0911 229.804C85.5531 230.743 85.7841 231.824 85.7841 233.049C85.7841 234.288 85.5531 235.381 85.0911 236.327C84.6291 237.266 83.9691 238.003 83.1111 238.538C82.2531 239.066 81.2338 239.33 80.0531 239.33ZM80.0531 237.471C81.2851 237.471 82.2018 237.06 82.8031 236.239C83.4045 235.418 83.7051 234.354 83.7051 233.049C83.7051 231.707 83.4008 230.64 82.7921 229.848C82.1835 229.049 81.2705 228.649 80.0531 228.649C79.2245 228.649 78.5425 228.836 78.0071 229.21C77.4718 229.584 77.0721 230.101 76.8081 230.761C76.5441 231.421 76.4121 232.184 76.4121 233.049C76.4121 234.384 76.7201 235.454 77.3361 236.261C77.9521 237.068 78.8578 237.471 80.0531 237.471ZM93.711 239.33C92.5083 239.33 91.4853 239.062 90.642 238.527C89.806 237.984 89.168 237.24 88.728 236.294C88.288 235.348 88.0607 234.27 88.046 233.06C88.0607 231.821 88.2917 230.732 88.739 229.793C89.1937 228.847 89.8427 228.11 90.686 227.582C91.5293 227.054 92.545 226.79 93.733 226.79C94.987 226.79 96.065 227.098 96.967 227.714C97.8763 228.33 98.485 229.173 98.793 230.244L96.857 230.827C96.6077 230.138 96.2007 229.602 95.636 229.221C95.0787 228.84 94.437 228.649 93.711 228.649C92.897 228.649 92.226 228.84 91.698 229.221C91.17 229.595 90.7777 230.116 90.521 230.783C90.2643 231.443 90.1323 232.202 90.125 233.06C90.1397 234.38 90.444 235.447 91.038 236.261C91.6393 237.068 92.5303 237.471 93.711 237.471C94.4883 237.471 95.1337 237.295 95.647 236.943C96.1603 236.584 96.549 236.067 96.813 235.392L98.793 235.909C98.3823 237.016 97.7407 237.863 96.868 238.45C95.9953 239.037 94.943 239.33 93.711 239.33ZM100.116 239V237.317C100.556 237.398 100.889 237.383 101.117 237.273C101.351 237.156 101.524 236.954 101.634 236.668C101.751 236.375 101.846 236.008 101.92 235.568C102.044 234.871 102.151 234.094 102.239 233.236C102.334 232.378 102.418 231.439 102.492 230.42C102.572 229.393 102.646 228.293 102.712 227.12H111.017V239H109.059V228.979H104.494C104.45 229.654 104.395 230.347 104.329 231.058C104.27 231.769 104.208 232.462 104.142 233.137C104.076 233.804 104.002 234.428 103.922 235.007C103.848 235.579 103.768 236.074 103.68 236.492C103.54 237.211 103.346 237.786 103.097 238.219C102.847 238.644 102.488 238.919 102.019 239.044C101.549 239.176 100.915 239.161 100.116 239ZM119.754 239.33C118.588 239.33 117.569 239.073 116.696 238.56C115.831 238.039 115.156 237.317 114.672 236.393C114.188 235.462 113.946 234.376 113.946 233.137C113.946 231.839 114.185 230.717 114.661 229.771C115.138 228.818 115.802 228.084 116.652 227.571C117.51 227.05 118.515 226.79 119.666 226.79C120.862 226.79 121.877 227.065 122.713 227.615C123.557 228.165 124.187 228.95 124.605 229.969C125.031 230.988 125.214 232.202 125.155 233.61H123.175V232.906C123.153 231.447 122.856 230.358 122.284 229.639C121.712 228.913 120.862 228.55 119.732 228.55C118.522 228.55 117.602 228.939 116.971 229.716C116.341 230.493 116.025 231.608 116.025 233.06C116.025 234.461 116.341 235.546 116.971 236.316C117.602 237.086 118.5 237.471 119.666 237.471C120.451 237.471 121.133 237.291 121.712 236.932C122.292 236.573 122.746 236.056 123.076 235.381L124.957 236.03C124.495 237.079 123.799 237.893 122.867 238.472C121.943 239.044 120.906 239.33 119.754 239.33ZM115.365 233.61V232.037H124.143V233.61H115.365ZM132.998 239V227.12H134.956V232.125H141.204V227.12H143.162V239H141.204V233.984H134.956V239H132.998ZM150.12 239.33C149.233 239.33 148.488 239.169 147.887 238.846C147.293 238.516 146.842 238.083 146.534 237.548C146.233 237.013 146.083 236.426 146.083 235.788C146.083 235.165 146.2 234.626 146.435 234.171C146.677 233.709 147.014 233.328 147.447 233.027C147.88 232.719 148.397 232.477 148.998 232.301C149.563 232.147 150.193 232.015 150.89 231.905C151.594 231.788 152.305 231.681 153.024 231.586C153.743 231.491 154.414 231.399 155.037 231.311L154.333 231.718C154.355 230.662 154.142 229.881 153.695 229.375C153.255 228.869 152.492 228.616 151.407 228.616C150.688 228.616 150.058 228.781 149.515 229.111C148.98 229.434 148.602 229.962 148.382 230.695L146.523 230.134C146.809 229.093 147.363 228.275 148.184 227.681C149.005 227.087 150.087 226.79 151.429 226.79C152.507 226.79 153.431 226.984 154.201 227.373C154.978 227.754 155.536 228.334 155.873 229.111C156.042 229.478 156.148 229.877 156.192 230.31C156.236 230.735 156.258 231.183 156.258 231.652V239H154.52V236.151L154.927 236.415C154.48 237.376 153.853 238.102 153.046 238.593C152.247 239.084 151.271 239.33 150.12 239.33ZM150.417 237.691C151.121 237.691 151.73 237.566 152.243 237.317C152.764 237.06 153.182 236.727 153.497 236.316C153.812 235.898 154.018 235.443 154.113 234.952C154.223 234.585 154.282 234.178 154.289 233.731C154.304 233.276 154.311 232.928 154.311 232.686L154.993 232.983C154.355 233.071 153.728 233.155 153.112 233.236C152.496 233.317 151.913 233.405 151.363 233.5C150.813 233.588 150.318 233.694 149.878 233.819C149.555 233.922 149.251 234.054 148.965 234.215C148.686 234.376 148.459 234.585 148.283 234.842C148.114 235.091 148.03 235.403 148.03 235.777C148.03 236.1 148.111 236.408 148.272 236.701C148.441 236.994 148.697 237.233 149.042 237.416C149.394 237.599 149.852 237.691 150.417 237.691ZM166.768 239V234.721C166.372 234.919 165.892 235.088 165.327 235.227C164.77 235.366 164.172 235.436 163.534 235.436C162.324 235.436 161.349 235.165 160.608 234.622C159.867 234.079 159.383 233.298 159.156 232.279C159.09 231.971 159.042 231.652 159.013 231.322C158.991 230.992 158.976 230.691 158.969 230.42C158.962 230.149 158.958 229.951 158.958 229.826V227.12H160.938V229.826C160.938 230.039 160.945 230.303 160.96 230.618C160.975 230.926 161.011 231.227 161.07 231.52C161.217 232.246 161.521 232.792 161.983 233.159C162.452 233.526 163.112 233.709 163.963 233.709C164.535 233.709 165.063 233.636 165.547 233.489C166.031 233.342 166.438 233.148 166.768 232.906V227.12H168.737V239H166.768ZM175.698 239.33C174.811 239.33 174.067 239.169 173.465 238.846C172.871 238.516 172.42 238.083 172.112 237.548C171.812 237.013 171.661 236.426 171.661 235.788C171.661 235.165 171.779 234.626 172.013 234.171C172.255 233.709 172.593 233.328 173.025 233.027C173.458 232.719 173.975 232.477 174.576 232.301C175.141 232.147 175.772 232.015 176.468 231.905C177.172 231.788 177.884 231.681 178.602 231.586C179.321 231.491 179.992 231.399 180.615 231.311L179.911 231.718C179.933 230.662 179.721 229.881 179.273 229.375C178.833 228.869 178.071 228.616 176.985 228.616C176.267 228.616 175.636 228.781 175.093 229.111C174.558 229.434 174.18 229.962 173.96 230.695L172.101 230.134C172.387 229.093 172.941 228.275 173.762 227.681C174.584 227.087 175.665 226.79 177.007 226.79C178.085 226.79 179.009 226.984 179.779 227.373C180.557 227.754 181.114 228.334 181.451 229.111C181.62 229.478 181.726 229.877 181.77 230.31C181.814 230.735 181.836 231.183 181.836 231.652V239H180.098V236.151L180.505 236.415C180.058 237.376 179.431 238.102 178.624 238.593C177.825 239.084 176.85 239.33 175.698 239.33ZM175.995 237.691C176.699 237.691 177.308 237.566 177.821 237.317C178.342 237.06 178.76 236.727 179.075 236.316C179.391 235.898 179.596 235.443 179.691 234.952C179.801 234.585 179.86 234.178 179.867 233.731C179.882 233.276 179.889 232.928 179.889 232.686L180.571 232.983C179.933 233.071 179.306 233.155 178.69 233.236C178.074 233.317 177.491 233.405 176.941 233.5C176.391 233.588 175.896 233.694 175.456 233.819C175.134 233.922 174.829 234.054 174.543 234.215C174.265 234.376 174.037 234.585 173.861 234.842C173.693 235.091 173.608 235.403 173.608 235.777C173.608 236.1 173.689 236.408 173.85 236.701C174.019 236.994 174.276 237.233 174.62 237.416C174.972 237.599 175.431 237.691 175.995 237.691ZM184.096 239V237.317C184.536 237.398 184.87 237.383 185.097 237.273C185.332 237.156 185.504 236.954 185.614 236.668C185.732 236.375 185.827 236.008 185.9 235.568C186.025 234.871 186.131 234.094 186.219 233.236C186.315 232.378 186.399 231.439 186.472 230.42C186.553 229.393 186.626 228.293 186.692 227.12H194.997V239H193.039V228.979H188.474C188.43 229.654 188.375 230.347 188.309 231.058C188.251 231.769 188.188 232.462 188.122 233.137C188.056 233.804 187.983 234.428 187.902 235.007C187.829 235.579 187.748 236.074 187.66 236.492C187.521 237.211 187.327 237.786 187.077 238.219C186.828 238.644 186.469 238.919 185.999 239.044C185.53 239.176 184.896 239.161 184.096 239ZM201.964 239.33C201.077 239.33 200.332 239.169 199.731 238.846C199.137 238.516 198.686 238.083 198.378 237.548C198.077 237.013 197.927 236.426 197.927 235.788C197.927 235.165 198.044 234.626 198.279 234.171C198.521 233.709 198.858 233.328 199.291 233.027C199.724 232.719 200.241 232.477 200.842 232.301C201.407 232.147 202.037 232.015 202.734 231.905C203.438 231.788 204.149 231.681 204.868 231.586C205.587 231.491 206.258 231.399 206.881 231.311L206.177 231.718C206.199 230.662 205.986 229.881 205.539 229.375C205.099 228.869 204.336 228.616 203.251 228.616C202.532 228.616 201.902 228.781 201.359 229.111C200.824 229.434 200.446 229.962 200.226 230.695L198.367 230.134C198.653 229.093 199.207 228.275 200.028 227.681C200.849 227.087 201.931 226.79 203.273 226.79C204.351 226.79 205.275 226.984 206.045 227.373C206.822 227.754 207.38 228.334 207.717 229.111C207.886 229.478 207.992 229.877 208.036 230.31C208.08 230.735 208.102 231.183 208.102 231.652V239H206.364V236.151L206.771 236.415C206.324 237.376 205.697 238.102 204.89 238.593C204.091 239.084 203.115 239.33 201.964 239.33ZM202.261 237.691C202.965 237.691 203.574 237.566 204.087 237.317C204.608 237.06 205.026 236.727 205.341 236.316C205.656 235.898 205.862 235.443 205.957 234.952C206.067 234.585 206.126 234.178 206.133 233.731C206.148 233.276 206.155 232.928 206.155 232.686L206.837 232.983C206.199 233.071 205.572 233.155 204.956 233.236C204.34 233.317 203.757 233.405 203.207 233.5C202.657 233.588 202.162 233.694 201.722 233.819C201.399 233.922 201.095 234.054 200.809 234.215C200.53 234.376 200.303 234.585 200.127 234.842C199.958 235.091 199.874 235.403 199.874 235.777C199.874 236.1 199.955 236.408 200.116 236.701C200.285 236.994 200.541 237.233 200.886 237.416C201.238 237.599 201.696 237.691 202.261 237.691ZM216.355 239V227.12H218.038L222.548 236.338L227.058 227.12H228.741V239H226.849V231.201L223.065 239H222.031L218.247 231.201V239H216.355ZM242.037 227.12V239H240.145V230.244L233.919 239H232.302V227.12H234.194V235.755L240.431 227.12H242.037ZM245.618 239V227.12H253.868V228.979H247.576V239H245.618ZM261.908 239.33C260.793 239.33 259.855 239.055 259.092 238.505C258.329 237.948 257.75 237.196 257.354 236.25C256.965 235.297 256.771 234.23 256.771 233.049C256.771 231.854 256.965 230.783 257.354 229.837C257.75 228.891 258.329 228.147 259.092 227.604C259.862 227.061 260.804 226.79 261.919 226.79C263.019 226.79 263.965 227.065 264.757 227.615C265.556 228.158 266.169 228.902 266.594 229.848C267.019 230.794 267.232 231.861 267.232 233.049C267.232 234.237 267.019 235.304 266.594 236.25C266.169 237.196 265.556 237.948 264.757 238.505C263.965 239.055 263.015 239.33 261.908 239.33ZM256.441 244.28V227.12H258.19V235.865H258.41V244.28H256.441ZM261.666 237.537C262.451 237.537 263.1 237.339 263.613 236.943C264.126 236.547 264.511 236.012 264.768 235.337C265.025 234.655 265.153 233.892 265.153 233.049C265.153 232.213 265.025 231.458 264.768 230.783C264.519 230.108 264.13 229.573 263.602 229.177C263.081 228.781 262.418 228.583 261.611 228.583C260.841 228.583 260.203 228.774 259.697 229.155C259.191 229.529 258.813 230.053 258.564 230.728C258.315 231.395 258.19 232.169 258.19 233.049C258.19 233.914 258.311 234.688 258.553 235.37C258.802 236.045 259.184 236.576 259.697 236.965C260.21 237.346 260.867 237.537 261.666 237.537ZM275.292 239.33C274.126 239.33 273.106 239.073 272.234 238.56C271.368 238.039 270.694 237.317 270.21 236.393C269.726 235.462 269.484 234.376 269.484 233.137C269.484 231.839 269.722 230.717 270.199 229.771C270.675 228.818 271.339 228.084 272.19 227.571C273.048 227.05 274.052 226.79 275.204 226.79C276.399 226.79 277.415 227.065 278.251 227.615C279.094 228.165 279.725 228.95 280.143 229.969C280.568 230.988 280.751 232.202 280.693 233.61H278.713V232.906C278.691 231.447 278.394 230.358 277.822 229.639C277.25 228.913 276.399 228.55 275.27 228.55C274.06 228.55 273.139 228.939 272.509 229.716C271.878 230.493 271.563 231.608 271.563 233.06C271.563 234.461 271.878 235.546 272.509 236.316C273.139 237.086 274.038 237.471 275.204 237.471C275.988 237.471 276.67 237.291 277.25 236.932C277.829 236.573 278.284 236.056 278.614 235.381L280.495 236.03C280.033 237.079 279.336 237.893 278.405 238.472C277.481 239.044 276.443 239.33 275.292 239.33ZM270.903 233.61V232.037H279.681V233.61H270.903ZM283.631 239V227.12H285.589V232.125H291.837V227.12H293.795V239H291.837V233.984H285.589V239H283.631ZM307.1 227.12V239H305.208V230.244L298.982 239H297.365V227.12H299.257V235.755L305.494 227.12H307.1ZM314.113 233.346C313.467 233.346 312.884 233.192 312.364 232.884C311.85 232.576 311.44 232.158 311.132 231.63C310.831 231.102 310.681 230.497 310.681 229.815V226.603C310.681 225.877 310.831 225.243 311.132 224.7C311.44 224.15 311.861 223.725 312.397 223.424C312.932 223.116 313.548 222.962 314.245 222.962C314.78 222.962 315.279 223.065 315.741 223.27C316.21 223.468 316.613 223.769 316.951 224.172L315.917 225.129C315.719 224.865 315.473 224.66 315.18 224.513C314.894 224.359 314.582 224.282 314.245 224.282C313.827 224.282 313.456 224.381 313.134 224.579C312.811 224.777 312.558 225.041 312.375 225.371C312.199 225.694 312.111 226.046 312.111 226.427V228.484L311.77 228.099C312.056 227.674 312.419 227.34 312.859 227.098C313.306 226.856 313.783 226.735 314.289 226.735C314.912 226.735 315.469 226.878 315.961 227.164C316.452 227.45 316.837 227.839 317.116 228.33C317.394 228.821 317.534 229.379 317.534 230.002C317.534 230.625 317.38 231.19 317.072 231.696C316.764 232.202 316.349 232.605 315.829 232.906C315.308 233.199 314.736 233.346 314.113 233.346ZM314.113 232.015C314.67 232.015 315.143 231.821 315.532 231.432C315.92 231.036 316.115 230.559 316.115 230.002C316.115 229.445 315.92 228.975 315.532 228.594C315.143 228.205 314.67 228.011 314.113 228.011C313.563 228.011 313.09 228.205 312.694 228.594C312.305 228.975 312.111 229.445 312.111 230.002C312.111 230.552 312.305 231.025 312.694 231.421C313.082 231.817 313.555 232.015 314.113 232.015Z" fill="#2E2E2E"/>
<path d="M134.523 209L134.545 197.12H137.229V202.84L141.574 197.12H144.885L140.276 203.06L145.281 209H141.772L137.229 203.28V209H134.523ZM150.205 209.33C149.347 209.33 148.621 209.169 148.027 208.846C147.433 208.516 146.982 208.08 146.674 207.537C146.373 206.994 146.223 206.397 146.223 205.744C146.223 205.172 146.318 204.659 146.509 204.204C146.699 203.742 146.993 203.346 147.389 203.016C147.785 202.679 148.298 202.404 148.929 202.191C149.405 202.037 149.963 201.898 150.601 201.773C151.246 201.648 151.943 201.535 152.691 201.432C153.446 201.322 154.234 201.205 155.056 201.08L154.11 201.619C154.117 200.798 153.934 200.193 153.56 199.804C153.186 199.415 152.555 199.221 151.668 199.221C151.132 199.221 150.615 199.346 150.117 199.595C149.618 199.844 149.27 200.273 149.072 200.882L146.652 200.123C146.945 199.118 147.502 198.312 148.324 197.703C149.152 197.094 150.267 196.79 151.668 196.79C152.724 196.79 153.651 196.962 154.451 197.307C155.257 197.652 155.855 198.216 156.244 199.001C156.456 199.419 156.585 199.848 156.629 200.288C156.673 200.721 156.695 201.194 156.695 201.707V209H154.374V206.426L154.759 206.844C154.223 207.702 153.596 208.333 152.878 208.736C152.166 209.132 151.275 209.33 150.205 209.33ZM150.733 207.218C151.334 207.218 151.847 207.112 152.273 206.899C152.698 206.686 153.035 206.426 153.285 206.118C153.541 205.81 153.714 205.52 153.802 205.249C153.941 204.912 154.018 204.527 154.033 204.094C154.055 203.654 154.066 203.298 154.066 203.027L154.88 203.269C154.08 203.394 153.395 203.504 152.823 203.599C152.251 203.694 151.759 203.786 151.349 203.874C150.938 203.955 150.575 204.046 150.26 204.149C149.952 204.259 149.691 204.387 149.479 204.534C149.266 204.681 149.101 204.849 148.984 205.04C148.874 205.231 148.819 205.454 148.819 205.711C148.819 206.004 148.892 206.265 149.039 206.492C149.185 206.712 149.398 206.888 149.677 207.02C149.963 207.152 150.315 207.218 150.733 207.218ZM160.037 209L160.059 197.12H162.743V202.84L167.088 197.12H170.399L165.79 203.06L170.795 209H167.286L162.743 203.28V209H160.037ZM177.279 209V197.12H179.457L183.714 205.326L187.982 197.12H190.149V209H187.619V202.455L184.242 209H183.197L179.82 202.455V209H177.279ZM198.968 209.33C197.78 209.33 196.742 209.062 195.855 208.527C194.967 207.992 194.278 207.255 193.787 206.316C193.303 205.37 193.061 204.285 193.061 203.06C193.061 201.813 193.31 200.721 193.809 199.782C194.307 198.843 195 198.11 195.888 197.582C196.775 197.054 197.802 196.79 198.968 196.79C200.163 196.79 201.204 197.058 202.092 197.593C202.979 198.128 203.668 198.869 204.16 199.815C204.651 200.754 204.897 201.835 204.897 203.06C204.897 204.292 204.647 205.381 204.149 206.327C203.657 207.266 202.968 208.003 202.081 208.538C201.193 209.066 200.156 209.33 198.968 209.33ZM198.968 206.844C200.024 206.844 200.808 206.492 201.322 205.788C201.835 205.084 202.092 204.175 202.092 203.06C202.092 201.909 201.831 200.992 201.311 200.31C200.79 199.621 200.009 199.276 198.968 199.276C198.256 199.276 197.67 199.437 197.208 199.76C196.753 200.075 196.416 200.519 196.196 201.091C195.976 201.656 195.866 202.312 195.866 203.06C195.866 204.211 196.126 205.132 196.647 205.821C197.175 206.503 197.948 206.844 198.968 206.844ZM206.114 209L210.47 203.06L206.378 197.12H209.282L213.143 202.873V197.12H215.497V202.873L219.358 197.12H222.251L218.159 203.06L222.515 209H219.457L215.497 203.247V209H213.143V203.247L209.172 209H206.114ZM224.755 209V197.12H227.406V201.806H232.741V197.12H235.392V209H232.741V204.292H227.406V209H224.755ZM244.21 209.33C243.022 209.33 241.984 209.062 241.097 208.527C240.21 207.992 239.52 207.255 239.029 206.316C238.545 205.37 238.303 204.285 238.303 203.06C238.303 201.813 238.552 200.721 239.051 199.782C239.55 198.843 240.243 198.11 241.13 197.582C242.017 197.054 243.044 196.79 244.21 196.79C245.405 196.79 246.447 197.058 247.334 197.593C248.221 198.128 248.911 198.869 249.402 199.815C249.893 200.754 250.139 201.835 250.139 203.06C250.139 204.292 249.89 205.381 249.391 206.327C248.9 207.266 248.21 208.003 247.323 208.538C246.436 209.066 245.398 209.33 244.21 209.33ZM244.21 206.844C245.266 206.844 246.051 206.492 246.564 205.788C247.077 205.084 247.334 204.175 247.334 203.06C247.334 201.909 247.074 200.992 246.553 200.31C246.032 199.621 245.251 199.276 244.21 199.276C243.499 199.276 242.912 199.437 242.45 199.76C241.995 200.075 241.658 200.519 241.438 201.091C241.218 201.656 241.108 202.312 241.108 203.06C241.108 204.211 241.368 205.132 241.889 205.821C242.417 206.503 243.191 206.844 244.21 206.844ZM263.676 209.33C262.517 209.33 261.545 209.055 260.761 208.505C259.976 207.955 259.386 207.207 258.99 206.261C258.594 205.308 258.396 204.241 258.396 203.06C258.396 201.865 258.594 200.794 258.99 199.848C259.386 198.902 259.965 198.158 260.728 197.615C261.498 197.065 262.447 196.79 263.577 196.79C264.699 196.79 265.67 197.065 266.492 197.615C267.32 198.158 267.962 198.902 268.417 199.848C268.871 200.787 269.099 201.857 269.099 203.06C269.099 204.248 268.875 205.315 268.428 206.261C267.98 207.207 267.35 207.955 266.536 208.505C265.722 209.055 264.768 209.33 263.676 209.33ZM257.945 214.28V197.12H260.288V205.458H260.618V214.28H257.945ZM263.269 206.954C263.958 206.954 264.526 206.782 264.974 206.437C265.421 206.092 265.751 205.627 265.964 205.04C266.184 204.446 266.294 203.786 266.294 203.06C266.294 202.341 266.184 201.689 265.964 201.102C265.744 200.508 265.403 200.039 264.941 199.694C264.479 199.342 263.892 199.166 263.181 199.166C262.506 199.166 261.956 199.331 261.531 199.661C261.105 199.984 260.79 200.438 260.585 201.025C260.387 201.604 260.288 202.283 260.288 203.06C260.288 203.83 260.387 204.508 260.585 205.095C260.79 205.682 261.109 206.14 261.542 206.47C261.982 206.793 262.557 206.954 263.269 206.954ZM275.345 209.33C274.487 209.33 273.761 209.169 273.167 208.846C272.573 208.516 272.122 208.08 271.814 207.537C271.514 206.994 271.363 206.397 271.363 205.744C271.363 205.172 271.459 204.659 271.649 204.204C271.84 203.742 272.133 203.346 272.529 203.016C272.925 202.679 273.439 202.404 274.069 202.191C274.546 202.037 275.103 201.898 275.741 201.773C276.387 201.648 277.083 201.535 277.831 201.432C278.587 201.322 279.375 201.205 280.196 201.08L279.25 201.619C279.258 200.798 279.074 200.193 278.7 199.804C278.326 199.415 277.696 199.221 276.808 199.221C276.273 199.221 275.756 199.346 275.257 199.595C274.759 199.844 274.41 200.273 274.212 200.882L271.792 200.123C272.086 199.118 272.643 198.312 273.464 197.703C274.293 197.094 275.408 196.79 276.808 196.79C277.864 196.79 278.792 196.962 279.591 197.307C280.398 197.652 280.996 198.216 281.384 199.001C281.597 199.419 281.725 199.848 281.769 200.288C281.813 200.721 281.835 201.194 281.835 201.707V209H279.514V206.426L279.899 206.844C279.364 207.702 278.737 208.333 278.018 208.736C277.307 209.132 276.416 209.33 275.345 209.33ZM275.873 207.218C276.475 207.218 276.988 207.112 277.413 206.899C277.839 206.686 278.176 206.426 278.425 206.118C278.682 205.81 278.854 205.52 278.942 205.249C279.082 204.912 279.159 204.527 279.173 204.094C279.195 203.654 279.206 203.298 279.206 203.027L280.02 203.269C279.221 203.394 278.535 203.504 277.963 203.599C277.391 203.694 276.9 203.786 276.489 203.874C276.079 203.955 275.716 204.046 275.4 204.149C275.092 204.259 274.832 204.387 274.619 204.534C274.407 204.681 274.242 204.849 274.124 205.04C274.014 205.231 273.959 205.454 273.959 205.711C273.959 206.004 274.033 206.265 274.179 206.492C274.326 206.712 274.539 206.888 274.817 207.02C275.103 207.152 275.455 207.218 275.873 207.218ZM285.177 209V197.12H287.828V201.806H293.163V197.12H295.814V209H293.163V204.292H287.828V209H285.177ZM299.374 209L299.363 197.12H302.014V201.08H304.148C304.478 201.08 304.848 201.087 305.259 201.102C305.677 201.117 306.025 201.15 306.304 201.201C306.971 201.348 307.539 201.582 308.009 201.905C308.485 202.228 308.848 202.649 309.098 203.17C309.347 203.691 309.472 204.318 309.472 205.051C309.472 206.1 309.2 206.939 308.658 207.57C308.122 208.193 307.367 208.619 306.392 208.846C306.098 208.912 305.739 208.956 305.314 208.978C304.896 208.993 304.518 209 304.181 209H299.374ZM302.014 206.921H304.412C304.573 206.921 304.753 206.914 304.951 206.899C305.149 206.884 305.339 206.851 305.523 206.8C305.853 206.712 306.142 206.514 306.392 206.206C306.648 205.891 306.777 205.506 306.777 205.051C306.777 204.574 306.648 204.182 306.392 203.874C306.135 203.566 305.82 203.364 305.446 203.269C305.277 203.225 305.101 203.196 304.918 203.181C304.734 203.166 304.566 203.159 304.412 203.159H302.014V206.921ZM312.044 209V197.12H314.585V206.646H317.94V197.12H320.481V206.646H323.836V197.12H326.377V209H312.044ZM335.348 209.33C334.146 209.33 333.09 209.07 332.18 208.549C331.271 208.028 330.56 207.306 330.046 206.382C329.54 205.458 329.287 204.395 329.287 203.192C329.287 201.894 329.537 200.768 330.035 199.815C330.534 198.854 331.227 198.11 332.114 197.582C333.002 197.054 334.028 196.79 335.194 196.79C336.426 196.79 337.471 197.08 338.329 197.659C339.195 198.231 339.836 199.041 340.254 200.09C340.672 201.139 340.83 202.374 340.727 203.797H338.098V202.829C338.091 201.538 337.864 200.596 337.416 200.002C336.969 199.408 336.265 199.111 335.304 199.111C334.219 199.111 333.412 199.448 332.884 200.123C332.356 200.79 332.092 201.769 332.092 203.06C332.092 204.263 332.356 205.194 332.884 205.854C333.412 206.514 334.182 206.844 335.194 206.844C335.847 206.844 336.408 206.701 336.877 206.415C337.354 206.122 337.721 205.7 337.977 205.15L340.595 205.942C340.141 207.013 339.437 207.845 338.483 208.439C337.537 209.033 336.492 209.33 335.348 209.33ZM331.256 203.797V201.795H339.429V203.797H331.256Z" fill="#703E97"/>
<circle cx="189.5" cy="44.5" r="43.75" fill="white" stroke="#D8B2FC" stroke-width="1.5"/>
<path d="M189.667 23.6667C195.678 23.6667 201.444 26.0548 205.694 30.3056C209.945 34.5564 212.333 40.3218 212.333 46.3333C212.333 52.3449 209.945 58.1103 205.694 62.3611C201.444 66.6119 195.678 69 189.667 69C183.655 69 177.89 66.6119 173.639 62.3611C169.388 58.1103 167 52.3449 167 46.3333C167 40.3218 169.388 34.5564 173.639 30.3056C177.89 26.0548 183.655 23.6667 189.667 23.6667ZM189.667 27.6667C184.716 27.6667 179.968 29.6333 176.467 33.134C172.967 36.6347 171 41.3826 171 46.3333C171 51.284 172.967 56.032 176.467 59.5327C179.968 63.0333 184.716 65 189.667 65C194.617 65 199.365 63.0333 202.866 59.5327C206.367 56.032 208.333 51.284 208.333 46.3333C208.333 41.3826 206.367 36.6347 202.866 33.134C199.365 29.6333 194.617 27.6667 189.667 27.6667ZM189.667 31.6667C190.15 31.6667 190.617 31.8417 190.981 32.1594C191.345 32.477 191.582 32.9159 191.648 33.3947L191.667 33.6667V45.6667C191.667 46.1734 191.474 46.6612 191.128 47.0314C190.782 47.4017 190.309 47.6269 189.803 47.6614C189.297 47.6959 188.798 47.5373 188.405 47.2175C188.011 46.8977 187.754 46.4407 187.685 45.9387L187.667 45.6667V33.6667C187.667 33.1362 187.877 32.6275 188.252 32.2525C188.628 31.8774 189.136 31.6667 189.667 31.6667ZM208.725 23.9707L208.947 24.1307L212.035 26.7013C212.421 27.0265 212.671 27.486 212.732 27.9874C212.794 28.4889 212.664 28.9951 212.368 29.4044C212.071 29.8137 211.631 30.0958 211.136 30.1939C210.64 30.292 210.126 30.1989 209.696 29.9333L209.477 29.7733L206.387 27.2027C206 26.8775 205.751 26.418 205.689 25.9166C205.627 25.4151 205.757 24.9089 206.054 24.4996C206.35 24.0903 206.79 23.8082 207.286 23.7101C207.781 23.612 208.296 23.7051 208.725 23.9707ZM195.667 17C196.173 17.0002 196.661 17.1927 197.031 17.5386C197.402 17.8845 197.627 18.3581 197.661 18.8637C197.696 19.3692 197.537 19.869 197.218 20.2621C196.898 20.6552 196.441 20.9123 195.939 20.9813L195.667 21H183.667C183.16 20.9998 182.672 20.8073 182.302 20.4614C181.932 20.1155 181.706 19.6419 181.672 19.1363C181.637 18.6308 181.796 18.131 182.116 17.7379C182.436 17.3448 182.893 17.0877 183.395 17.0187L183.667 17H195.667Z" fill="#703E97"/>
</svg>
