<svg width="824" height="232" viewBox="0 0 824 232" fill="none" xmlns="http://www.w3.org/2000/svg">
<path d="M42.1907 16.3126C47.2068 6.25622 57.4925 0 68.7305 0H794C810.569 0 824 13.4315 824 30V202C824 218.569 810.569 232 794 232H68.7304C57.4925 232 47.2068 225.744 42.1907 215.687C27.8939 187.025 0 129.387 0 116C0 102.613 27.8939 44.9751 42.1907 16.3126Z" fill="#703E97"/>
<path d="M117.584 67.14C116.128 67.14 114.803 66.86 113.608 66.3C112.432 65.7213 111.415 64.9653 110.556 64.032C109.716 63.08 109.063 61.9973 108.596 60.784C108.129 59.5707 107.896 58.3293 107.896 57.06C107.896 55.7347 108.139 54.4653 108.624 53.252C109.128 52.0387 109.809 50.9653 110.668 50.032C111.545 49.0987 112.581 48.3613 113.776 47.82C114.971 47.26 116.268 46.98 117.668 46.98C119.105 46.98 120.412 47.2787 121.588 47.876C122.783 48.4547 123.8 49.22 124.64 50.172C125.48 51.124 126.133 52.2067 126.6 53.42C127.067 54.6333 127.3 55.8653 127.3 57.116C127.3 58.4413 127.057 59.7107 126.572 60.924C126.087 62.1187 125.415 63.1827 124.556 64.116C123.697 65.0307 122.671 65.768 121.476 66.328C120.281 66.8693 118.984 67.14 117.584 67.14ZM111.816 57.06C111.816 57.9187 111.947 58.7493 112.208 59.552C112.469 60.3547 112.843 61.064 113.328 61.68C113.832 62.296 114.439 62.7907 115.148 63.164C115.876 63.5373 116.697 63.724 117.612 63.724C118.545 63.724 119.367 63.5373 120.076 63.164C120.804 62.772 121.411 62.2587 121.896 61.624C122.4 60.9893 122.773 60.28 123.016 59.496C123.277 58.6933 123.408 57.8813 123.408 57.06C123.408 56.2013 123.268 55.3707 122.988 54.568C122.727 53.7653 122.344 53.056 121.84 52.44C121.355 51.824 120.748 51.3387 120.02 50.984C119.311 50.6107 118.508 50.424 117.612 50.424C116.679 50.424 115.848 50.62 115.12 51.012C114.392 51.3853 113.785 51.8893 113.3 52.524C112.815 53.14 112.441 53.8493 112.18 54.652C111.937 55.436 111.816 56.2387 111.816 57.06ZM128.265 63.612H128.965C129.506 63.5933 129.982 63.4347 130.393 63.136C130.804 62.8373 131.168 62.2867 131.485 61.484C131.802 60.6813 132.082 59.58 132.325 58.18C132.568 56.7613 132.792 54.9413 132.997 52.72L133.501 47.12H145.541V63.612H148.481V71.956H144.869V67H131.905V71.956H128.265V63.612ZM141.677 63.612V50.508H137.001L136.721 53.532C136.497 56.1267 136.18 58.236 135.769 59.86C135.377 61.484 134.864 62.7347 134.229 63.612H141.677ZM168.352 47.12V67H164.516V58.516H155.5V67H151.636V47.12H155.5V55.156H164.516V47.12H168.352ZM181.592 67.14C180.136 67.14 178.81 66.86 177.616 66.3C176.44 65.7213 175.422 64.9653 174.564 64.032C173.724 63.08 173.07 61.9973 172.604 60.784C172.137 59.5707 171.904 58.3293 171.904 57.06C171.904 55.7347 172.146 54.4653 172.632 53.252C173.136 52.0387 173.817 50.9653 174.676 50.032C175.553 49.0987 176.589 48.3613 177.784 47.82C178.978 47.26 180.276 46.98 181.676 46.98C183.113 46.98 184.42 47.2787 185.596 47.876C186.79 48.4547 187.808 49.22 188.648 50.172C189.488 51.124 190.141 52.2067 190.608 53.42C191.074 54.6333 191.308 55.8653 191.308 57.116C191.308 58.4413 191.065 59.7107 190.58 60.924C190.094 62.1187 189.422 63.1827 188.564 64.116C187.705 65.0307 186.678 65.768 185.484 66.328C184.289 66.8693 182.992 67.14 181.592 67.14ZM175.824 57.06C175.824 57.9187 175.954 58.7493 176.216 59.552C176.477 60.3547 176.85 61.064 177.336 61.68C177.84 62.296 178.446 62.7907 179.156 63.164C179.884 63.5373 180.705 63.724 181.62 63.724C182.553 63.724 183.374 63.5373 184.084 63.164C184.812 62.772 185.418 62.2587 185.904 61.624C186.408 60.9893 186.781 60.28 187.024 59.496C187.285 58.6933 187.416 57.8813 187.416 57.06C187.416 56.2013 187.276 55.3707 186.996 54.568C186.734 53.7653 186.352 53.056 185.848 52.44C185.362 51.824 184.756 51.3387 184.028 50.984C183.318 50.6107 182.516 50.424 181.62 50.424C180.686 50.424 179.856 50.62 179.128 51.012C178.4 51.3853 177.793 51.8893 177.308 52.524C176.822 53.14 176.449 53.8493 176.188 54.652C175.945 55.436 175.824 56.2387 175.824 57.06ZM198.664 55.296H200.232L206.28 47.12H210.648L203.508 56.724L211.292 67H206.98L200.596 58.768H198.664V67H194.828V47.12H198.664V55.296ZM213.621 67V47.12H222.049C222.964 47.12 223.804 47.316 224.569 47.708C225.353 48.0813 226.025 48.5853 226.585 49.22C227.145 49.836 227.584 50.5453 227.901 51.348C228.218 52.132 228.377 52.9253 228.377 53.728C228.377 54.568 228.228 55.3893 227.929 56.192C227.63 56.976 227.21 57.676 226.669 58.292C226.128 58.908 225.474 59.4027 224.709 59.776C223.944 60.1493 223.104 60.336 222.189 60.336H217.485V67H213.621ZM217.485 56.948H221.965C222.674 56.948 223.262 56.6587 223.729 56.08C224.214 55.5013 224.457 54.7173 224.457 53.728C224.457 53.224 224.382 52.776 224.233 52.384C224.084 51.9733 223.888 51.628 223.645 51.348C223.402 51.068 223.113 50.8627 222.777 50.732C222.46 50.5827 222.133 50.508 221.797 50.508H217.485V56.948ZM235.962 47.12H239.378L246.938 67H242.962L241.114 62.044H234.17L232.35 67H228.374L235.962 47.12ZM240.414 59.328L237.67 51.516L234.814 59.328H240.414ZM262.518 50.508H256.162V67H252.326V50.508H245.97V47.12H262.518V50.508ZM282.286 47.12V67H278.45V58.516H269.434V67H265.57V47.12H269.434V55.156H278.45V47.12H282.286ZM287.097 47.12H290.933V54.12H294.741C295.749 54.12 296.673 54.26 297.513 54.54C298.372 54.82 299.109 55.2307 299.725 55.772C300.341 56.3133 300.817 56.9853 301.153 57.788C301.489 58.572 301.657 59.4773 301.657 60.504C301.657 61.5493 301.489 62.4733 301.153 63.276C300.817 64.0787 300.341 64.76 299.725 65.32C299.128 65.8613 298.409 66.2813 297.569 66.58C296.748 66.86 295.852 67 294.881 67H287.097V47.12ZM304.065 67V47.148H307.929V67H304.065ZM290.933 63.724H294.517C295.6 63.724 296.412 63.4347 296.953 62.856C297.495 62.2773 297.765 61.484 297.765 60.476C297.765 59.524 297.485 58.7493 296.925 58.152C296.365 57.536 295.563 57.228 294.517 57.228H290.933V63.724ZM326.642 41.352C326.642 41.9307 326.511 42.4627 326.25 42.948C326.007 43.4147 325.671 43.816 325.242 44.152C324.812 44.488 324.29 44.7493 323.674 44.936C323.076 45.104 322.414 45.188 321.686 45.188C320.958 45.188 320.286 45.104 319.67 44.936C319.054 44.7493 318.531 44.488 318.102 44.152C317.672 43.816 317.327 43.4147 317.066 42.948C316.823 42.4627 316.702 41.9307 316.702 41.352H318.998C318.998 41.5947 319.063 41.828 319.194 42.052C319.343 42.276 319.539 42.472 319.782 42.64C320.043 42.808 320.332 42.9387 320.65 43.032C320.967 43.1253 321.312 43.172 321.686 43.172C322.395 43.172 322.992 43.004 323.478 42.668C323.963 42.3133 324.252 41.8747 324.346 41.352H326.642ZM316.59 61.064L326.726 47.12H329.666V67H325.83V53.364L315.834 67H312.754V47.12H316.59V61.064ZM341.699 47.12H358.079V67H354.243V50.508H345.535V67H341.699V47.12ZM362.926 67V47.12H371.354C372.268 47.12 373.108 47.316 373.874 47.708C374.658 48.0813 375.33 48.5853 375.89 49.22C376.45 49.836 376.888 50.5453 377.206 51.348C377.523 52.132 377.682 52.9253 377.682 53.728C377.682 54.568 377.532 55.3893 377.234 56.192C376.935 56.976 376.515 57.676 375.974 58.292C375.432 58.908 374.779 59.4027 374.014 59.776C373.248 60.1493 372.408 60.336 371.494 60.336H366.79V67H362.926ZM366.79 56.948H371.27C371.979 56.948 372.567 56.6587 373.034 56.08C373.519 55.5013 373.762 54.7173 373.762 53.728C373.762 53.224 373.687 52.776 373.538 52.384C373.388 51.9733 373.192 51.628 372.95 51.348C372.707 51.068 372.418 50.8627 372.082 50.732C371.764 50.5827 371.438 50.508 371.102 50.508H366.79V56.948ZM384.789 61.064L394.925 47.12H397.865V67H394.029V53.364L384.033 67H380.953V47.12H384.789V61.064ZM416.476 63.612V67H402.672V47.12H416.224V50.508H406.536V55.296H414.908V58.432H406.536V63.612H416.476ZM436.282 67V53.84L431.158 63.64H429.058L423.934 53.84V67H420.07V47.12H424.214L430.094 58.432L436.03 47.12H440.146V67H436.282ZM108.65 106.036C108.87 106.241 109.09 106.381 109.31 106.454C109.53 106.527 109.765 106.564 110.014 106.564C110.205 106.564 110.388 106.505 110.564 106.388C110.755 106.285 110.938 106.095 111.114 105.816C111.305 105.552 111.495 105.193 111.686 104.738C111.877 104.283 112.089 103.704 112.324 103L107.33 91.538H108.87L113.116 101.614L117.054 91.538H118.484L113.138 104.892C112.918 105.464 112.691 105.941 112.456 106.322C112.236 106.703 112.001 107.011 111.752 107.246C111.517 107.481 111.261 107.642 110.982 107.73C110.718 107.833 110.425 107.884 110.102 107.884C109.442 107.884 108.936 107.708 108.584 107.356L108.65 106.036ZM126.75 91.538C127.16 91.538 127.534 91.6113 127.872 91.758C128.224 91.9047 128.524 92.11 128.774 92.374C129.038 92.6233 129.236 92.9167 129.368 93.254C129.514 93.5913 129.588 93.958 129.588 94.354C129.588 94.618 129.551 94.882 129.478 95.146C129.419 95.41 129.324 95.6667 129.192 95.916C129.06 96.1507 128.891 96.3707 128.686 96.576C128.48 96.7667 128.238 96.9207 127.96 97.038C128.605 97.214 129.111 97.5513 129.478 98.05C129.844 98.5487 130.028 99.15 130.028 99.854C130.028 100.323 129.94 100.749 129.764 101.13C129.602 101.511 129.368 101.841 129.06 102.12C128.766 102.399 128.414 102.619 128.004 102.78C127.593 102.927 127.146 103 126.662 103H121.14V91.538H126.75ZM126.156 96.598C126.757 96.598 127.234 96.4073 127.586 96.026C127.938 95.6447 128.114 95.1607 128.114 94.574C128.114 94.0607 127.967 93.6133 127.674 93.232C127.38 92.8507 126.926 92.66 126.31 92.66H122.592V96.598H126.156ZM126.508 101.878C126.816 101.878 127.094 101.819 127.344 101.702C127.608 101.585 127.828 101.431 128.004 101.24C128.18 101.035 128.319 100.807 128.422 100.558C128.524 100.309 128.576 100.045 128.576 99.766C128.576 99.238 128.392 98.7687 128.026 98.358C127.674 97.9473 127.182 97.742 126.552 97.742H122.592V101.878H126.508ZM138.039 103.22C137.203 103.22 136.433 103.066 135.729 102.758C135.04 102.435 134.439 102.003 133.925 101.46C133.412 100.903 133.009 100.265 132.715 99.546C132.437 98.8273 132.297 98.0573 132.297 97.236C132.297 96.4293 132.437 95.674 132.715 94.97C133.009 94.2513 133.405 93.628 133.903 93.1C134.417 92.5573 135.025 92.132 135.729 91.824C136.433 91.5013 137.196 91.34 138.017 91.34C138.853 91.34 139.616 91.5013 140.305 91.824C141.009 92.132 141.611 92.5573 142.109 93.1C142.608 93.6427 142.997 94.266 143.275 94.97C143.554 95.674 143.693 96.422 143.693 97.214C143.693 97.3313 143.693 97.4487 143.693 97.566C143.693 97.6833 143.686 97.764 143.671 97.808H133.859C133.903 98.424 134.043 98.996 134.277 99.524C134.527 100.037 134.842 100.485 135.223 100.866C135.605 101.247 136.037 101.548 136.521 101.768C137.02 101.973 137.548 102.076 138.105 102.076C138.472 102.076 138.839 102.025 139.205 101.922C139.572 101.819 139.909 101.68 140.217 101.504C140.525 101.328 140.804 101.115 141.053 100.866C141.303 100.602 141.493 100.316 141.625 100.008L142.923 100.36C142.747 100.785 142.498 101.174 142.175 101.526C141.853 101.863 141.479 102.164 141.053 102.428C140.628 102.677 140.159 102.868 139.645 103C139.132 103.147 138.597 103.22 138.039 103.22ZM142.263 96.664C142.219 96.048 142.073 95.4907 141.823 94.992C141.589 94.4787 141.281 94.0387 140.899 93.672C140.533 93.3053 140.1 93.0193 139.601 92.814C139.117 92.6087 138.597 92.506 138.039 92.506C137.482 92.506 136.954 92.6087 136.455 92.814C135.957 93.0193 135.517 93.3053 135.135 93.672C134.769 94.0387 134.468 94.4787 134.233 94.992C134.013 95.5053 133.881 96.0627 133.837 96.664H142.263ZM144.769 101.746C145.179 101.717 145.539 101.607 145.847 101.416C146.155 101.211 146.419 100.851 146.639 100.338C146.873 99.81 147.071 99.0913 147.233 98.182C147.409 97.2727 147.577 96.092 147.739 94.64L148.069 91.538H154.801V103H153.327V92.726H149.455L149.147 95.278C148.956 96.8033 148.743 98.0647 148.509 99.062C148.274 100.045 147.995 100.837 147.673 101.438C147.365 102.025 146.991 102.443 146.551 102.692C146.111 102.927 145.597 103.059 145.011 103.088L144.769 101.746ZM160.121 100.888L166.963 91.538H168.173V103H166.699V93.826L159.989 103H158.647V91.538H160.121V100.888ZM179.253 103H177.757V98.226C177.376 98.3727 176.98 98.4827 176.569 98.556C176.173 98.6147 175.638 98.644 174.963 98.644C174.274 98.644 173.695 98.5413 173.225 98.336C172.771 98.1307 172.397 97.852 172.103 97.5C171.81 97.148 171.597 96.73 171.465 96.246C171.348 95.7473 171.289 95.212 171.289 94.64V91.538H172.763V94.376C172.763 95.4613 172.976 96.2313 173.401 96.686C173.827 97.126 174.435 97.346 175.227 97.346C175.843 97.346 176.364 97.2873 176.789 97.17C177.215 97.038 177.537 96.884 177.757 96.708V91.538H179.253V103ZM184.582 100.888L191.424 91.538H192.634V103H191.16V93.826L184.45 103H183.108V91.538H184.582V100.888ZM202.152 91.538C202.563 91.538 202.937 91.6113 203.274 91.758C203.626 91.9047 203.927 92.11 204.176 92.374C204.44 92.6233 204.638 92.9167 204.77 93.254C204.917 93.5913 204.99 93.958 204.99 94.354C204.99 94.618 204.954 94.882 204.88 95.146C204.822 95.41 204.726 95.6667 204.594 95.916C204.462 96.1507 204.294 96.3707 204.088 96.576C203.883 96.7667 203.641 96.9207 203.362 97.038C204.008 97.214 204.514 97.5513 204.88 98.05C205.247 98.5487 205.43 99.15 205.43 99.854C205.43 100.323 205.342 100.749 205.166 101.13C205.005 101.511 204.77 101.841 204.462 102.12C204.169 102.399 203.817 102.619 203.406 102.78C202.996 102.927 202.548 103 202.064 103H196.542V91.538H202.152ZM201.558 96.598C202.16 96.598 202.636 96.4073 202.988 96.026C203.34 95.6447 203.516 95.1607 203.516 94.574C203.516 94.0607 203.37 93.6133 203.076 93.232C202.783 92.8507 202.328 92.66 201.712 92.66H197.994V96.598H201.558ZM201.91 101.878C202.218 101.878 202.497 101.819 202.746 101.702C203.01 101.585 203.23 101.431 203.406 101.24C203.582 101.035 203.722 100.807 203.824 100.558C203.927 100.309 203.978 100.045 203.978 99.766C203.978 99.238 203.795 98.7687 203.428 98.358C203.076 97.9473 202.585 97.742 201.954 97.742H197.994V101.878H201.91ZM211.374 103.22C210.831 103.22 210.325 103.132 209.856 102.956C209.401 102.765 208.998 102.509 208.646 102.186C208.308 101.863 208.044 101.489 207.854 101.064C207.663 100.624 207.568 100.155 207.568 99.656C207.568 99.1573 207.685 98.6953 207.92 98.27C208.154 97.8447 208.484 97.478 208.91 97.17C209.335 96.862 209.841 96.6273 210.428 96.466C211.014 96.29 211.66 96.202 212.364 96.202C212.95 96.202 213.544 96.2533 214.146 96.356C214.747 96.4587 215.282 96.6053 215.752 96.796V95.762C215.752 94.75 215.466 93.9507 214.894 93.364C214.322 92.7627 213.53 92.462 212.518 92.462C211.931 92.462 211.33 92.5793 210.714 92.814C210.098 93.0487 209.474 93.386 208.844 93.826L208.316 92.836C209.797 91.8387 211.234 91.34 212.628 91.34C214.065 91.34 215.194 91.7433 216.016 92.55C216.837 93.3567 217.248 94.4713 217.248 95.894V101.064C217.248 101.475 217.431 101.68 217.798 101.68V103C217.548 103.044 217.358 103.066 217.226 103.066C216.844 103.066 216.544 102.971 216.324 102.78C216.118 102.589 216.008 102.325 215.994 101.988L215.95 101.086C215.422 101.775 214.754 102.303 213.948 102.67C213.156 103.037 212.298 103.22 211.374 103.22ZM211.726 102.076C212.503 102.076 213.214 101.929 213.86 101.636C214.52 101.343 215.018 100.954 215.356 100.47C215.488 100.338 215.583 100.199 215.642 100.052C215.715 99.8907 215.752 99.744 215.752 99.612V97.742C215.253 97.5513 214.732 97.4047 214.19 97.302C213.662 97.1993 213.119 97.148 212.562 97.148C211.506 97.148 210.648 97.368 209.988 97.808C209.328 98.248 208.998 98.8273 208.998 99.546C208.998 99.898 209.064 100.228 209.196 100.536C209.342 100.844 209.533 101.115 209.768 101.35C210.017 101.57 210.31 101.746 210.648 101.878C210.985 102.01 211.344 102.076 211.726 102.076ZM225.952 103.22C225.116 103.22 224.346 103.066 223.642 102.758C222.952 102.435 222.351 102.003 221.838 101.46C221.324 100.903 220.921 100.265 220.628 99.546C220.349 98.8273 220.21 98.0573 220.21 97.236C220.21 96.4293 220.349 95.674 220.628 94.97C220.921 94.2513 221.317 93.628 221.816 93.1C222.329 92.5573 222.938 92.132 223.642 91.824C224.346 91.5013 225.108 91.34 225.93 91.34C226.766 91.34 227.528 91.5013 228.218 91.824C228.922 92.132 229.523 92.5573 230.022 93.1C230.52 93.6427 230.909 94.266 231.188 94.97C231.466 95.674 231.606 96.422 231.606 97.214C231.606 97.3313 231.606 97.4487 231.606 97.566C231.606 97.6833 231.598 97.764 231.584 97.808H221.772C221.816 98.424 221.955 98.996 222.19 99.524C222.439 100.037 222.754 100.485 223.136 100.866C223.517 101.247 223.95 101.548 224.434 101.768C224.932 101.973 225.46 102.076 226.018 102.076C226.384 102.076 226.751 102.025 227.118 101.922C227.484 101.819 227.822 101.68 228.13 101.504C228.438 101.328 228.716 101.115 228.966 100.866C229.215 100.602 229.406 100.316 229.538 100.008L230.836 100.36C230.66 100.785 230.41 101.174 230.088 101.526C229.765 101.863 229.391 102.164 228.966 102.428C228.54 102.677 228.071 102.868 227.558 103C227.044 103.147 226.509 103.22 225.952 103.22ZM230.176 96.664C230.132 96.048 229.985 95.4907 229.736 94.992C229.501 94.4787 229.193 94.0387 228.812 93.672C228.445 93.3053 228.012 93.0193 227.514 92.814C227.03 92.6087 226.509 92.506 225.952 92.506C225.394 92.506 224.866 92.6087 224.368 92.814C223.869 93.0193 223.429 93.3053 223.048 93.672C222.681 94.0387 222.38 94.4787 222.146 94.992C221.926 95.5053 221.794 96.0627 221.75 96.664H230.176ZM238.21 103H236.758V92.836H232.732V91.538H242.236V92.836H238.21V103ZM259.989 103H258.537V92.836H252.443V103H250.969V91.538H259.989V103ZM269.717 103.22C268.749 103.22 267.891 102.978 267.143 102.494C266.41 101.995 265.816 101.372 265.361 100.624V107.686H263.865V91.538H265.207V93.76C265.677 93.0413 266.285 92.462 267.033 92.022C267.781 91.5673 268.595 91.34 269.475 91.34C270.267 91.34 270.993 91.5087 271.653 91.846C272.313 92.1687 272.885 92.6087 273.369 93.166C273.853 93.7087 274.227 94.3393 274.491 95.058C274.77 95.7767 274.909 96.5173 274.909 97.28C274.909 98.0867 274.785 98.8493 274.535 99.568C274.286 100.287 273.927 100.917 273.457 101.46C273.003 102.003 272.453 102.435 271.807 102.758C271.177 103.066 270.48 103.22 269.717 103.22ZM269.299 101.9C269.915 101.9 270.473 101.768 270.971 101.504C271.485 101.24 271.917 100.895 272.269 100.47C272.636 100.03 272.915 99.5387 273.105 98.996C273.296 98.4387 273.391 97.8667 273.391 97.28C273.391 96.664 273.281 96.0773 273.061 95.52C272.841 94.9627 272.541 94.4713 272.159 94.046C271.778 93.6207 271.323 93.2833 270.795 93.034C270.282 92.7847 269.725 92.66 269.123 92.66C268.742 92.66 268.339 92.7407 267.913 92.902C267.503 93.0487 267.114 93.254 266.747 93.518C266.395 93.7673 266.087 94.068 265.823 94.42C265.574 94.7573 265.42 95.1167 265.361 95.498V99.018C265.537 99.4287 265.757 99.81 266.021 100.162C266.3 100.514 266.608 100.822 266.945 101.086C267.297 101.335 267.671 101.533 268.067 101.68C268.463 101.827 268.874 101.9 269.299 101.9ZM279.46 100.888L286.302 91.538H287.512V103H286.038V93.826L279.328 103H277.986V91.538H279.46V100.888ZM297.031 91.538C297.442 91.538 297.816 91.6113 298.153 91.758C298.505 91.9047 298.806 92.11 299.055 92.374C299.319 92.6233 299.517 92.9167 299.649 93.254C299.796 93.5913 299.869 93.958 299.869 94.354C299.869 94.618 299.832 94.882 299.759 95.146C299.7 95.41 299.605 95.6667 299.473 95.916C299.341 96.1507 299.172 96.3707 298.967 96.576C298.762 96.7667 298.52 96.9207 298.241 97.038C298.886 97.214 299.392 97.5513 299.759 98.05C300.126 98.5487 300.309 99.15 300.309 99.854C300.309 100.323 300.221 100.749 300.045 101.13C299.884 101.511 299.649 101.841 299.341 102.12C299.048 102.399 298.696 102.619 298.285 102.78C297.874 102.927 297.427 103 296.943 103H291.421V91.538H297.031ZM296.437 96.598C297.038 96.598 297.515 96.4073 297.867 96.026C298.219 95.6447 298.395 95.1607 298.395 94.574C298.395 94.0607 298.248 93.6133 297.955 93.232C297.662 92.8507 297.207 92.66 296.591 92.66H292.873V96.598H296.437ZM296.789 101.878C297.097 101.878 297.376 101.819 297.625 101.702C297.889 101.585 298.109 101.431 298.285 101.24C298.461 101.035 298.6 100.807 298.703 100.558C298.806 100.309 298.857 100.045 298.857 99.766C298.857 99.238 298.674 98.7687 298.307 98.358C297.955 97.9473 297.464 97.742 296.833 97.742H292.873V101.878H296.789ZM308.321 103.22C307.485 103.22 306.715 103.066 306.011 102.758C305.321 102.435 304.72 102.003 304.207 101.46C303.693 100.903 303.29 100.265 302.997 99.546C302.718 98.8273 302.579 98.0573 302.579 97.236C302.579 96.4293 302.718 95.674 302.997 94.97C303.29 94.2513 303.686 93.628 304.185 93.1C304.698 92.5573 305.307 92.132 306.011 91.824C306.715 91.5013 307.477 91.34 308.299 91.34C309.135 91.34 309.897 91.5013 310.587 91.824C311.291 92.132 311.892 92.5573 312.391 93.1C312.889 93.6427 313.278 94.266 313.557 94.97C313.835 95.674 313.975 96.422 313.975 97.214C313.975 97.3313 313.975 97.4487 313.975 97.566C313.975 97.6833 313.967 97.764 313.953 97.808H304.141C304.185 98.424 304.324 98.996 304.559 99.524C304.808 100.037 305.123 100.485 305.505 100.866C305.886 101.247 306.319 101.548 306.803 101.768C307.301 101.973 307.829 102.076 308.387 102.076C308.753 102.076 309.12 102.025 309.487 101.922C309.853 101.819 310.191 101.68 310.499 101.504C310.807 101.328 311.085 101.115 311.335 100.866C311.584 100.602 311.775 100.316 311.907 100.008L313.205 100.36C313.029 100.785 312.779 101.174 312.457 101.526C312.134 101.863 311.76 102.164 311.335 102.428C310.909 102.677 310.44 102.868 309.927 103C309.413 103.147 308.878 103.22 308.321 103.22ZM312.545 96.664C312.501 96.048 312.354 95.4907 312.105 94.992C311.87 94.4787 311.562 94.0387 311.181 93.672C310.814 93.3053 310.381 93.0193 309.883 92.814C309.399 92.6087 308.878 92.506 308.321 92.506C307.763 92.506 307.235 92.6087 306.737 92.814C306.238 93.0193 305.798 93.3053 305.417 93.672C305.05 94.0387 304.749 94.4787 304.515 94.992C304.295 95.5053 304.163 96.0627 304.119 96.664H312.545ZM322.657 103.22C321.689 103.22 320.831 102.978 320.083 102.494C319.349 101.995 318.755 101.372 318.301 100.624V107.686H316.805V91.538H318.147V93.76C318.616 93.0413 319.225 92.462 319.973 92.022C320.721 91.5673 321.535 91.34 322.415 91.34C323.207 91.34 323.933 91.5087 324.593 91.846C325.253 92.1687 325.825 92.6087 326.309 93.166C326.793 93.7087 327.167 94.3393 327.431 95.058C327.709 95.7767 327.849 96.5173 327.849 97.28C327.849 98.0867 327.724 98.8493 327.475 99.568C327.225 100.287 326.866 100.917 326.397 101.46C325.942 102.003 325.392 102.435 324.747 102.758C324.116 103.066 323.419 103.22 322.657 103.22ZM322.239 101.9C322.855 101.9 323.412 101.768 323.911 101.504C324.424 101.24 324.857 100.895 325.209 100.47C325.575 100.03 325.854 99.5387 326.045 98.996C326.235 98.4387 326.331 97.8667 326.331 97.28C326.331 96.664 326.221 96.0773 326.001 95.52C325.781 94.9627 325.48 94.4713 325.099 94.046C324.717 93.6207 324.263 93.2833 323.735 93.034C323.221 92.7847 322.664 92.66 322.063 92.66C321.681 92.66 321.278 92.7407 320.853 92.902C320.442 93.0487 320.053 93.254 319.687 93.518C319.335 93.7673 319.027 94.068 318.763 94.42C318.513 94.7573 318.359 95.1167 318.301 95.498V99.018C318.477 99.4287 318.697 99.81 318.961 100.162C319.239 100.514 319.547 100.822 319.885 101.086C320.237 101.335 320.611 101.533 321.007 101.68C321.403 101.827 321.813 101.9 322.239 101.9ZM331.286 91.538L334.278 96.686H336.478V91.538H337.974V96.686H340.174L343.166 91.538H344.816L341.428 97.082L345.212 103H343.518L340.394 97.83H337.974V103H336.478V97.83H334.036L330.912 103H329.218L332.98 97.082L329.592 91.538H331.286ZM352.252 103.22C351.416 103.22 350.646 103.066 349.942 102.758C349.253 102.435 348.652 102.003 348.138 101.46C347.625 100.903 347.222 100.265 346.928 99.546C346.65 98.8273 346.51 98.0573 346.51 97.236C346.51 96.4293 346.65 95.674 346.928 94.97C347.222 94.2513 347.618 93.628 348.116 93.1C348.63 92.5573 349.238 92.132 349.942 91.824C350.646 91.5013 351.409 91.34 352.23 91.34C353.066 91.34 353.829 91.5013 354.518 91.824C355.222 92.132 355.824 92.5573 356.322 93.1C356.821 93.6427 357.21 94.266 357.488 94.97C357.767 95.674 357.906 96.422 357.906 97.214C357.906 97.3313 357.906 97.4487 357.906 97.566C357.906 97.6833 357.899 97.764 357.884 97.808H348.072C348.116 98.424 348.256 98.996 348.49 99.524C348.74 100.037 349.055 100.485 349.436 100.866C349.818 101.247 350.25 101.548 350.734 101.768C351.233 101.973 351.761 102.076 352.318 102.076C352.685 102.076 353.052 102.025 353.418 101.922C353.785 101.819 354.122 101.68 354.43 101.504C354.738 101.328 355.017 101.115 355.266 100.866C355.516 100.602 355.706 100.316 355.838 100.008L357.136 100.36C356.96 100.785 356.711 101.174 356.388 101.526C356.066 101.863 355.692 102.164 355.266 102.428C354.841 102.677 354.372 102.868 353.858 103C353.345 103.147 352.81 103.22 352.252 103.22ZM356.476 96.664C356.432 96.048 356.286 95.4907 356.036 94.992C355.802 94.4787 355.494 94.0387 355.112 93.672C354.746 93.3053 354.313 93.0193 353.814 92.814C353.33 92.6087 352.81 92.506 352.252 92.506C351.695 92.506 351.167 92.6087 350.668 92.814C350.17 93.0193 349.73 93.3053 349.348 93.672C348.982 94.0387 348.681 94.4787 348.446 94.992C348.226 95.5053 348.094 96.0627 348.05 96.664H356.476ZM362.21 96.488H368.634V91.538H370.108V103H368.634V97.742H362.21V103H360.736V91.538H362.21V96.488ZM375.429 96.488H381.853V91.538H383.327V103H381.853V97.742H375.429V103H373.955V91.538H375.429V96.488ZM392.036 103.22C391.2 103.22 390.437 103.066 389.748 102.758C389.059 102.435 388.457 102.003 387.944 101.46C387.445 100.917 387.057 100.287 386.778 99.568C386.499 98.8493 386.36 98.094 386.36 97.302C386.36 96.4953 386.499 95.7327 386.778 95.014C387.071 94.2953 387.467 93.6647 387.966 93.122C388.479 92.5793 389.081 92.1467 389.77 91.824C390.459 91.5013 391.215 91.34 392.036 91.34C392.857 91.34 393.613 91.5013 394.302 91.824C395.006 92.1467 395.607 92.5793 396.106 93.122C396.619 93.6647 397.015 94.2953 397.294 95.014C397.587 95.7327 397.734 96.4953 397.734 97.302C397.734 98.094 397.595 98.8493 397.316 99.568C397.037 100.287 396.641 100.917 396.128 101.46C395.629 102.003 395.028 102.435 394.324 102.758C393.635 103.066 392.872 103.22 392.036 103.22ZM387.878 97.324C387.878 97.9693 387.988 98.5707 388.208 99.128C388.428 99.6707 388.721 100.155 389.088 100.58C389.469 100.991 389.909 101.313 390.408 101.548C390.921 101.783 391.464 101.9 392.036 101.9C392.608 101.9 393.143 101.783 393.642 101.548C394.155 101.299 394.603 100.969 394.984 100.558C395.365 100.133 395.666 99.6413 395.886 99.084C396.106 98.5267 396.216 97.9253 396.216 97.28C396.216 96.6493 396.106 96.0553 395.886 95.498C395.666 94.926 395.365 94.4347 394.984 94.024C394.603 93.5987 394.155 93.2687 393.642 93.034C393.143 92.7847 392.608 92.66 392.036 92.66C391.464 92.66 390.929 92.7847 390.43 93.034C389.931 93.2687 389.491 93.5987 389.11 94.024C388.729 94.4493 388.428 94.948 388.208 95.52C387.988 96.0773 387.878 96.6787 387.878 97.324ZM399.944 97.236C399.944 96.4293 400.083 95.6667 400.362 94.948C400.641 94.2293 401.029 93.606 401.528 93.078C402.041 92.5353 402.65 92.11 403.354 91.802C404.058 91.494 404.835 91.34 405.686 91.34C406.771 91.34 407.717 91.5893 408.524 92.088C409.331 92.572 409.939 93.232 410.35 94.068L408.898 94.53C408.575 93.9433 408.121 93.4887 407.534 93.166C406.962 92.8287 406.324 92.66 405.62 92.66C405.033 92.66 404.483 92.7773 403.97 93.012C403.471 93.2467 403.031 93.5693 402.65 93.98C402.283 94.376 401.99 94.8527 401.77 95.41C401.565 95.9673 401.462 96.576 401.462 97.236C401.462 97.8813 401.572 98.49 401.792 99.062C402.012 99.634 402.313 100.133 402.694 100.558C403.075 100.969 403.515 101.299 404.014 101.548C404.527 101.783 405.07 101.9 405.642 101.9C406.009 101.9 406.368 101.849 406.72 101.746C407.087 101.643 407.424 101.504 407.732 101.328C408.04 101.137 408.304 100.925 408.524 100.69C408.744 100.455 408.898 100.206 408.986 99.942L410.46 100.382C410.299 100.793 410.064 101.174 409.756 101.526C409.448 101.863 409.081 102.164 408.656 102.428C408.245 102.677 407.783 102.868 407.27 103C406.771 103.147 406.251 103.22 405.708 103.22C404.872 103.22 404.102 103.066 403.398 102.758C402.694 102.435 402.085 102.003 401.572 101.46C401.059 100.903 400.655 100.265 400.362 99.546C400.083 98.8273 399.944 98.0573 399.944 97.236ZM417.6 103H416.148V92.836H412.122V91.538H421.626V92.836H417.6V103ZM424.252 91.538H425.726V95.608H428.212C428.74 95.608 429.239 95.6887 429.708 95.85C430.177 96.0113 430.588 96.246 430.94 96.554C431.292 96.862 431.571 97.2507 431.776 97.72C431.981 98.1747 432.084 98.7027 432.084 99.304C432.084 99.9053 431.981 100.441 431.776 100.91C431.571 101.365 431.292 101.746 430.94 102.054C430.588 102.362 430.177 102.597 429.708 102.758C429.239 102.919 428.74 103 428.212 103H424.252V91.538ZM428.212 101.724C428.975 101.724 429.561 101.511 429.972 101.086C430.397 100.646 430.61 100.052 430.61 99.304C430.61 98.556 430.397 97.9693 429.972 97.544C429.547 97.104 428.96 96.884 428.212 96.884H425.726V101.724H428.212ZM450.02 103H448.568V92.836H442.474V103H441V91.538H450.02V103ZM456.757 103.22C456.214 103.22 455.708 103.132 455.239 102.956C454.784 102.765 454.381 102.509 454.029 102.186C453.691 101.863 453.427 101.489 453.237 101.064C453.046 100.624 452.951 100.155 452.951 99.656C452.951 99.1573 453.068 98.6953 453.303 98.27C453.537 97.8447 453.867 97.478 454.293 97.17C454.718 96.862 455.224 96.6273 455.811 96.466C456.397 96.29 457.043 96.202 457.747 96.202C458.333 96.202 458.927 96.2533 459.529 96.356C460.13 96.4587 460.665 96.6053 461.135 96.796V95.762C461.135 94.75 460.849 93.9507 460.277 93.364C459.705 92.7627 458.913 92.462 457.901 92.462C457.314 92.462 456.713 92.5793 456.097 92.814C455.481 93.0487 454.857 93.386 454.227 93.826L453.699 92.836C455.18 91.8387 456.617 91.34 458.011 91.34C459.448 91.34 460.577 91.7433 461.399 92.55C462.22 93.3567 462.631 94.4713 462.631 95.894V101.064C462.631 101.475 462.814 101.68 463.181 101.68V103C462.931 103.044 462.741 103.066 462.609 103.066C462.227 103.066 461.927 102.971 461.707 102.78C461.501 102.589 461.391 102.325 461.377 101.988L461.333 101.086C460.805 101.775 460.137 102.303 459.331 102.67C458.539 103.037 457.681 103.22 456.757 103.22ZM457.109 102.076C457.886 102.076 458.597 101.929 459.243 101.636C459.903 101.343 460.401 100.954 460.739 100.47C460.871 100.338 460.966 100.199 461.025 100.052C461.098 99.8907 461.135 99.744 461.135 99.612V97.742C460.636 97.5513 460.115 97.4047 459.573 97.302C459.045 97.1993 458.502 97.148 457.945 97.148C456.889 97.148 456.031 97.368 455.371 97.808C454.711 98.248 454.381 98.8273 454.381 99.546C454.381 99.898 454.447 100.228 454.579 100.536C454.725 100.844 454.916 101.115 455.151 101.35C455.4 101.57 455.693 101.746 456.031 101.878C456.368 102.01 456.727 102.076 457.109 102.076ZM466.406 91.538H467.88V101.702H473.49V91.538H474.942V101.702H476.856V106.542H475.558V103H466.406V91.538ZM480.906 100.888L487.748 91.538H488.958V103H487.484V93.826L480.774 103H479.432V91.538H480.906V100.888ZM497.75 103.22C496.914 103.22 496.144 103.066 495.44 102.758C494.751 102.435 494.15 102.003 493.636 101.46C493.123 100.903 492.72 100.265 492.426 99.546C492.148 98.8273 492.008 98.0573 492.008 97.236C492.008 96.4293 492.148 95.674 492.426 94.97C492.72 94.2513 493.116 93.628 493.614 93.1C494.128 92.5573 494.736 92.132 495.44 91.824C496.144 91.5013 496.907 91.34 497.728 91.34C498.564 91.34 499.327 91.5013 500.016 91.824C500.72 92.132 501.322 92.5573 501.82 93.1C502.319 93.6427 502.708 94.266 502.986 94.97C503.265 95.674 503.404 96.422 503.404 97.214C503.404 97.3313 503.404 97.4487 503.404 97.566C503.404 97.6833 503.397 97.764 503.382 97.808H493.57C493.614 98.424 493.754 98.996 493.988 99.524C494.238 100.037 494.553 100.485 494.934 100.866C495.316 101.247 495.748 101.548 496.232 101.768C496.731 101.973 497.259 102.076 497.816 102.076C498.183 102.076 498.55 102.025 498.916 101.922C499.283 101.819 499.62 101.68 499.928 101.504C500.236 101.328 500.515 101.115 500.764 100.866C501.014 100.602 501.204 100.316 501.336 100.008L502.634 100.36C502.458 100.785 502.209 101.174 501.886 101.526C501.564 101.863 501.19 102.164 500.764 102.428C500.339 102.677 499.87 102.868 499.356 103C498.843 103.147 498.308 103.22 497.75 103.22ZM501.974 96.664C501.93 96.048 501.784 95.4907 501.534 94.992C501.3 94.4787 500.992 94.0387 500.61 93.672C500.244 93.3053 499.811 93.0193 499.312 92.814C498.828 92.6087 498.308 92.506 497.75 92.506C497.193 92.506 496.665 92.6087 496.166 92.814C495.668 93.0193 495.228 93.3053 494.846 93.672C494.48 94.0387 494.179 94.4787 493.944 94.992C493.724 95.5053 493.592 96.0627 493.548 96.664H501.974ZM507.709 96.488H514.133V91.538H515.607V103H514.133V97.742H507.709V103H506.235V91.538H507.709V96.488ZM523.721 103H522.269V92.836H518.243V91.538H527.747V92.836H523.721V103ZM534.677 103.22C533.841 103.22 533.078 103.066 532.389 102.758C531.699 102.435 531.098 102.003 530.585 101.46C530.086 100.917 529.697 100.287 529.419 99.568C529.14 98.8493 529.001 98.094 529.001 97.302C529.001 96.4953 529.14 95.7327 529.419 95.014C529.712 94.2953 530.108 93.6647 530.607 93.122C531.12 92.5793 531.721 92.1467 532.411 91.824C533.1 91.5013 533.855 91.34 534.677 91.34C535.498 91.34 536.253 91.5013 536.943 91.824C537.647 92.1467 538.248 92.5793 538.747 93.122C539.26 93.6647 539.656 94.2953 539.935 95.014C540.228 95.7327 540.375 96.4953 540.375 97.302C540.375 98.094 540.235 98.8493 539.957 99.568C539.678 100.287 539.282 100.917 538.769 101.46C538.27 102.003 537.669 102.435 536.965 102.758C536.275 103.066 535.513 103.22 534.677 103.22ZM530.519 97.324C530.519 97.9693 530.629 98.5707 530.849 99.128C531.069 99.6707 531.362 100.155 531.729 100.58C532.11 100.991 532.55 101.313 533.049 101.548C533.562 101.783 534.105 101.9 534.677 101.9C535.249 101.9 535.784 101.783 536.283 101.548C536.796 101.299 537.243 100.969 537.625 100.558C538.006 100.133 538.307 99.6413 538.527 99.084C538.747 98.5267 538.857 97.9253 538.857 97.28C538.857 96.6493 538.747 96.0553 538.527 95.498C538.307 94.926 538.006 94.4347 537.625 94.024C537.243 93.5987 536.796 93.2687 536.283 93.034C535.784 92.7847 535.249 92.66 534.677 92.66C534.105 92.66 533.569 92.7847 533.071 93.034C532.572 93.2687 532.132 93.5987 531.751 94.024C531.369 94.4493 531.069 94.948 530.849 95.52C530.629 96.0773 530.519 96.6787 530.519 97.324ZM549.053 91.538C549.463 91.538 549.837 91.6113 550.175 91.758C550.527 91.9047 550.827 92.11 551.077 92.374C551.341 92.6233 551.539 92.9167 551.671 93.254C551.817 93.5913 551.891 93.958 551.891 94.354C551.891 94.618 551.854 94.882 551.781 95.146C551.722 95.41 551.627 95.6667 551.495 95.916C551.363 96.1507 551.194 96.3707 550.989 96.576C550.783 96.7667 550.541 96.9207 550.263 97.038C550.908 97.214 551.414 97.5513 551.781 98.05C552.147 98.5487 552.331 99.15 552.331 99.854C552.331 100.323 552.243 100.749 552.067 101.13C551.905 101.511 551.671 101.841 551.363 102.12C551.069 102.399 550.717 102.619 550.307 102.78C549.896 102.927 549.449 103 548.965 103H543.443V91.538H549.053ZM548.459 96.598C549.06 96.598 549.537 96.4073 549.889 96.026C550.241 95.6447 550.417 95.1607 550.417 94.574C550.417 94.0607 550.27 93.6133 549.977 93.232C549.683 92.8507 549.229 92.66 548.613 92.66H544.895V96.598H548.459ZM548.811 101.878C549.119 101.878 549.397 101.819 549.647 101.702C549.911 101.585 550.131 101.431 550.307 101.24C550.483 101.035 550.622 100.807 550.725 100.558C550.827 100.309 550.879 100.045 550.879 99.766C550.879 99.238 550.695 98.7687 550.329 98.358C549.977 97.9473 549.485 97.742 548.855 97.742H544.895V101.878H548.811ZM559.982 101.746C560.392 101.717 560.752 101.607 561.06 101.416C561.368 101.211 561.632 100.851 561.852 100.338C562.086 99.81 562.284 99.0913 562.446 98.182C562.622 97.2727 562.79 96.092 562.952 94.64L563.282 91.538H570.014V103H568.54V92.726H564.668L564.36 95.278C564.169 96.8033 563.956 98.0647 563.722 99.062C563.487 100.045 563.208 100.837 562.886 101.438C562.578 102.025 562.204 102.443 561.764 102.692C561.324 102.927 560.81 103.059 560.224 103.088L559.982 101.746ZM578.788 103.22C577.952 103.22 577.182 103.066 576.478 102.758C575.788 102.435 575.187 102.003 574.674 101.46C574.16 100.903 573.757 100.265 573.464 99.546C573.185 98.8273 573.046 98.0573 573.046 97.236C573.046 96.4293 573.185 95.674 573.464 94.97C573.757 94.2513 574.153 93.628 574.652 93.1C575.165 92.5573 575.774 92.132 576.478 91.824C577.182 91.5013 577.944 91.34 578.766 91.34C579.602 91.34 580.364 91.5013 581.054 91.824C581.758 92.132 582.359 92.5573 582.858 93.1C583.356 93.6427 583.745 94.266 584.024 94.97C584.302 95.674 584.442 96.422 584.442 97.214C584.442 97.3313 584.442 97.4487 584.442 97.566C584.442 97.6833 584.434 97.764 584.42 97.808H574.608C574.652 98.424 574.791 98.996 575.026 99.524C575.275 100.037 575.59 100.485 575.972 100.866C576.353 101.247 576.786 101.548 577.27 101.768C577.768 101.973 578.296 102.076 578.854 102.076C579.22 102.076 579.587 102.025 579.954 101.922C580.32 101.819 580.658 101.68 580.966 101.504C581.274 101.328 581.552 101.115 581.802 100.866C582.051 100.602 582.242 100.316 582.374 100.008L583.672 100.36C583.496 100.785 583.246 101.174 582.924 101.526C582.601 101.863 582.227 102.164 581.802 102.428C581.376 102.677 580.907 102.868 580.394 103C579.88 103.147 579.345 103.22 578.788 103.22ZM583.012 96.664C582.968 96.048 582.821 95.4907 582.572 94.992C582.337 94.4787 582.029 94.0387 581.648 93.672C581.281 93.3053 580.848 93.0193 580.35 92.814C579.866 92.6087 579.345 92.506 578.788 92.506C578.23 92.506 577.702 92.6087 577.204 92.814C576.705 93.0193 576.265 93.3053 575.884 93.672C575.517 94.0387 575.216 94.4787 574.982 94.992C574.762 95.5053 574.63 96.0627 574.586 96.664H583.012ZM594.488 103H592.992V98.226C592.61 98.3727 592.214 98.4827 591.804 98.556C591.408 98.6147 590.872 98.644 590.198 98.644C589.508 98.644 588.929 98.5413 588.46 98.336C588.005 98.1307 587.631 97.852 587.338 97.5C587.044 97.148 586.832 96.73 586.7 96.246C586.582 95.7473 586.524 95.212 586.524 94.64V91.538H587.998V94.376C587.998 95.4613 588.21 96.2313 588.636 96.686C589.061 97.126 589.67 97.346 590.462 97.346C591.078 97.346 591.598 97.2873 592.024 97.17C592.449 97.038 592.772 96.884 592.992 96.708V91.538H594.488V103ZM603.27 103.22C602.434 103.22 601.664 103.066 600.96 102.758C600.271 102.435 599.669 102.003 599.156 101.46C598.643 100.903 598.239 100.265 597.946 99.546C597.667 98.8273 597.528 98.0573 597.528 97.236C597.528 96.4293 597.667 95.674 597.946 94.97C598.239 94.2513 598.635 93.628 599.134 93.1C599.647 92.5573 600.256 92.132 600.96 91.824C601.664 91.5013 602.427 91.34 603.248 91.34C604.084 91.34 604.847 91.5013 605.536 91.824C606.24 92.132 606.841 92.5573 607.34 93.1C607.839 93.6427 608.227 94.266 608.506 94.97C608.785 95.674 608.924 96.422 608.924 97.214C608.924 97.3313 608.924 97.4487 608.924 97.566C608.924 97.6833 608.917 97.764 608.902 97.808H599.09C599.134 98.424 599.273 98.996 599.508 99.524C599.757 100.037 600.073 100.485 600.454 100.866C600.835 101.247 601.268 101.548 601.752 101.768C602.251 101.973 602.779 102.076 603.336 102.076C603.703 102.076 604.069 102.025 604.436 101.922C604.803 101.819 605.14 101.68 605.448 101.504C605.756 101.328 606.035 101.115 606.284 100.866C606.533 100.602 606.724 100.316 606.856 100.008L608.154 100.36C607.978 100.785 607.729 101.174 607.406 101.526C607.083 101.863 606.709 102.164 606.284 102.428C605.859 102.677 605.389 102.868 604.876 103C604.363 103.147 603.827 103.22 603.27 103.22ZM607.494 96.664C607.45 96.048 607.303 95.4907 607.054 94.992C606.819 94.4787 606.511 94.0387 606.13 93.672C605.763 93.3053 605.331 93.0193 604.832 92.814C604.348 92.6087 603.827 92.506 603.27 92.506C602.713 92.506 602.185 92.6087 601.686 92.814C601.187 93.0193 600.747 93.3053 600.366 93.672C599.999 94.0387 599.699 94.4787 599.464 94.992C599.244 95.5053 599.112 96.0627 599.068 96.664H607.494ZM613.228 96.488H619.652V91.538H621.126V103H619.652V97.742H613.228V103H611.754V91.538H613.228V96.488ZM626.447 100.888L633.289 91.538H634.499V103H633.025V93.826L626.315 103H624.973V91.538H626.447V100.888ZM641.707 96.576C641.766 95.784 641.935 95.0653 642.213 94.42C642.507 93.76 642.881 93.2027 643.335 92.748C643.79 92.2933 644.318 91.9413 644.919 91.692C645.521 91.4427 646.166 91.318 646.855 91.318C647.647 91.318 648.366 91.472 649.011 91.78C649.671 92.0733 650.229 92.4913 650.683 93.034C651.153 93.562 651.512 94.1927 651.761 94.926C652.025 95.6593 652.157 96.4513 652.157 97.302C652.157 98.2113 652.018 99.0327 651.739 99.766C651.475 100.485 651.101 101.101 650.617 101.614C650.148 102.127 649.591 102.523 648.945 102.802C648.3 103.081 647.596 103.22 646.833 103.22C646.1 103.22 645.433 103.095 644.831 102.846C644.23 102.582 643.702 102.223 643.247 101.768C642.807 101.299 642.455 100.734 642.191 100.074C641.927 99.414 641.766 98.688 641.707 97.896H639.815V103H638.363V91.538H639.815V96.576H641.707ZM643.159 97.28C643.159 98.7467 643.497 99.8833 644.171 100.69C644.846 101.497 645.741 101.9 646.855 101.9C647.442 101.9 647.97 101.79 648.439 101.57C648.923 101.35 649.327 101.042 649.649 100.646C649.972 100.235 650.221 99.7513 650.397 99.194C650.573 98.622 650.661 97.984 650.661 97.28C650.661 95.828 650.309 94.6987 649.605 93.892C648.901 93.0707 647.985 92.66 646.855 92.66C646.283 92.66 645.77 92.77 645.315 92.99C644.861 93.21 644.472 93.5253 644.149 93.936C643.827 94.332 643.577 94.816 643.401 95.388C643.24 95.96 643.159 96.5907 643.159 97.28ZM662.794 100.888L669.636 91.538H670.846V103H669.372V93.826L662.662 103H661.32V91.538H662.794V100.888ZM109.156 135.12H125.536V155H121.7V138.508H112.992V155H109.156V135.12ZM138.811 155.14C137.355 155.14 136.029 154.86 134.835 154.3C133.659 153.721 132.641 152.965 131.783 152.032C130.943 151.08 130.289 149.997 129.823 148.784C129.356 147.571 129.123 146.329 129.123 145.06C129.123 143.735 129.365 142.465 129.851 141.252C130.355 140.039 131.036 138.965 131.895 138.032C132.772 137.099 133.808 136.361 135.003 135.82C136.197 135.26 137.495 134.98 138.895 134.98C140.332 134.98 141.639 135.279 142.815 135.876C144.009 136.455 145.027 137.22 145.867 138.172C146.707 139.124 147.36 140.207 147.827 141.42C148.293 142.633 148.527 143.865 148.527 145.116C148.527 146.441 148.284 147.711 147.799 148.924C147.313 150.119 146.641 151.183 145.783 152.116C144.924 153.031 143.897 153.768 142.703 154.328C141.508 154.869 140.211 155.14 138.811 155.14ZM133.043 145.06C133.043 145.919 133.173 146.749 133.435 147.552C133.696 148.355 134.069 149.064 134.555 149.68C135.059 150.296 135.665 150.791 136.375 151.164C137.103 151.537 137.924 151.724 138.839 151.724C139.772 151.724 140.593 151.537 141.303 151.164C142.031 150.772 142.637 150.259 143.123 149.624C143.627 148.989 144 148.28 144.243 147.496C144.504 146.693 144.635 145.881 144.635 145.06C144.635 144.201 144.495 143.371 144.215 142.568C143.953 141.765 143.571 141.056 143.067 140.44C142.581 139.824 141.975 139.339 141.247 138.984C140.537 138.611 139.735 138.424 138.839 138.424C137.905 138.424 137.075 138.62 136.347 139.012C135.619 139.385 135.012 139.889 134.527 140.524C134.041 141.14 133.668 141.849 133.407 142.652C133.164 143.436 133.043 144.239 133.043 145.06ZM167.755 149.876C167.755 150.716 167.587 151.453 167.251 152.088C166.915 152.723 166.448 153.255 165.851 153.684C165.272 154.113 164.591 154.44 163.807 154.664C163.041 154.888 162.22 155 161.343 155H151.739V135.12H162.379C163.069 135.12 163.695 135.269 164.255 135.568C164.815 135.867 165.291 136.259 165.683 136.744C166.075 137.211 166.373 137.752 166.579 138.368C166.803 138.965 166.915 139.572 166.915 140.188C166.915 141.159 166.672 142.073 166.187 142.932C165.701 143.772 164.992 144.397 164.059 144.808C165.197 145.144 166.093 145.751 166.747 146.628C167.419 147.487 167.755 148.569 167.755 149.876ZM163.863 149.148C163.863 148.793 163.797 148.457 163.667 148.14C163.555 147.804 163.396 147.515 163.191 147.272C162.985 147.029 162.743 146.843 162.463 146.712C162.183 146.563 161.875 146.488 161.539 146.488H155.603V151.724H161.343C161.697 151.724 162.024 151.659 162.323 151.528C162.64 151.397 162.911 151.22 163.135 150.996C163.359 150.753 163.536 150.473 163.667 150.156C163.797 149.839 163.863 149.503 163.863 149.148ZM155.603 138.424V143.436H160.755C161.408 143.436 161.959 143.212 162.407 142.764C162.873 142.316 163.107 141.7 163.107 140.916C163.107 140.151 162.892 139.544 162.463 139.096C162.052 138.648 161.539 138.424 160.923 138.424H155.603ZM171.633 135.12H175.469V142.12H179.277C180.285 142.12 181.209 142.26 182.049 142.54C182.907 142.82 183.645 143.231 184.261 143.772C184.877 144.313 185.353 144.985 185.689 145.788C186.025 146.572 186.193 147.477 186.193 148.504C186.193 149.549 186.025 150.473 185.689 151.276C185.353 152.079 184.877 152.76 184.261 153.32C183.663 153.861 182.945 154.281 182.105 154.58C181.283 154.86 180.387 155 179.417 155H171.633V135.12ZM188.601 155V135.148H192.465V155H188.601ZM175.469 151.724H179.053C180.135 151.724 180.947 151.435 181.489 150.856C182.03 150.277 182.301 149.484 182.301 148.476C182.301 147.524 182.021 146.749 181.461 146.152C180.901 145.536 180.098 145.228 179.053 145.228H175.469V151.724ZM220.557 135.12V155H197.289V135.12H201.125V151.612H207.005V135.12H210.841V151.612H216.721V135.12H220.557ZM230.951 135.12H234.367L241.927 155H237.951L236.103 150.044H229.159L227.339 155H223.363L230.951 135.12ZM235.403 147.328L232.659 139.516L229.803 147.328H235.403ZM258.495 151.612V155H244.691V135.12H258.243V138.508H248.555V143.296H256.927V146.432H248.555V151.612H258.495ZM276.874 138.508H270.518V155H266.682V138.508H260.326V135.12H276.874V138.508ZM293.872 155.168C292.976 155.168 292.099 155.065 291.24 154.86C290.381 154.655 289.579 154.356 288.832 153.964C288.085 153.572 287.423 153.096 286.844 152.536C286.284 151.957 285.845 151.295 285.528 150.548L288.692 148.728C288.935 149.269 289.243 149.736 289.616 150.128C290.008 150.501 290.428 150.809 290.876 151.052C291.343 151.295 291.819 151.472 292.304 151.584C292.808 151.696 293.293 151.752 293.76 151.752C294.563 151.752 295.291 151.612 295.944 151.332C296.616 151.052 297.195 150.669 297.68 150.184C298.184 149.699 298.595 149.129 298.912 148.476C299.248 147.823 299.472 147.132 299.584 146.404H291.52V143.296H299.5C299.369 142.661 299.155 142.055 298.856 141.476C298.557 140.879 298.175 140.356 297.708 139.908C297.241 139.46 296.681 139.105 296.028 138.844C295.393 138.564 294.656 138.424 293.816 138.424C293.368 138.424 292.901 138.48 292.416 138.592C291.931 138.685 291.464 138.844 291.016 139.068C290.568 139.292 290.148 139.6 289.756 139.992C289.364 140.365 289.047 140.832 288.804 141.392L285.836 139.348C286.489 138.06 287.469 137.015 288.776 136.212C290.101 135.409 291.744 135.008 293.704 135.008C295.309 135.008 296.728 135.297 297.96 135.876C299.192 136.455 300.228 137.211 301.068 138.144C301.908 139.077 302.543 140.141 302.972 141.336C303.42 142.512 303.644 143.707 303.644 144.92C303.644 146.189 303.411 147.44 302.944 148.672C302.477 149.885 301.815 150.977 300.956 151.948C300.097 152.9 299.071 153.675 297.876 154.272C296.681 154.869 295.347 155.168 293.872 155.168ZM314.203 153.488C311.422 153.208 309.322 152.303 307.903 150.772C306.484 149.223 305.775 147.244 305.775 144.836C305.775 142.447 306.466 140.468 307.847 138.9C309.247 137.332 311.366 136.389 314.203 136.072V133.468H317.927V136.072C320.708 136.389 322.78 137.332 324.143 138.9C325.524 140.468 326.215 142.447 326.215 144.836C326.215 147.263 325.515 149.241 324.115 150.772C322.734 152.284 320.671 153.189 317.927 153.488V155.98H314.203V153.488ZM317.927 149.988C319.476 149.745 320.615 149.185 321.343 148.308C322.09 147.412 322.463 146.227 322.463 144.752C322.463 143.277 322.09 142.111 321.343 141.252C320.615 140.375 319.476 139.833 317.927 139.628V149.988ZM314.203 139.628C312.598 139.833 311.412 140.365 310.647 141.224C309.9 142.064 309.527 143.24 309.527 144.752C309.527 146.245 309.9 147.431 310.647 148.308C311.412 149.185 312.598 149.745 314.203 149.988V139.628ZM336.633 153.488C333.851 153.208 331.751 152.303 330.333 150.772C328.914 149.223 328.205 147.244 328.205 144.836C328.205 142.447 328.895 140.468 330.277 138.9C331.677 137.332 333.795 136.389 336.633 136.072V133.468H340.357V136.072C343.138 136.389 345.21 137.332 346.573 138.9C347.954 140.468 348.645 142.447 348.645 144.836C348.645 147.263 347.945 149.241 346.545 150.772C345.163 152.284 343.101 153.189 340.357 153.488V155.98H336.633V153.488ZM340.357 149.988C341.906 149.745 343.045 149.185 343.773 148.308C344.519 147.412 344.893 146.227 344.893 144.752C344.893 143.277 344.519 142.111 343.773 141.252C343.045 140.375 341.906 139.833 340.357 139.628V149.988ZM336.633 139.628C335.027 139.833 333.842 140.365 333.077 141.224C332.33 142.064 331.957 143.24 331.957 144.752C331.957 146.245 332.33 147.431 333.077 148.308C333.842 149.185 335.027 149.745 336.633 149.988V139.628ZM365.866 151.612V155H352.062V135.12H365.614V138.508H355.926V143.296H364.298V146.432H355.926V151.612H365.866ZM373.297 143.296H374.865L380.913 135.12H385.281L378.141 144.724L385.925 155H381.613L375.229 146.768H373.297V155H369.461V135.12H373.297V143.296ZM403.038 138.508H396.682V155H392.846V138.508H386.49V135.12H403.038V138.508ZM409.926 149.064L420.062 135.12H423.002V155H419.166V141.364L409.17 155H406.09V135.12H409.926V149.064ZM443.516 149.876C443.516 150.716 443.348 151.453 443.012 152.088C442.676 152.723 442.21 153.255 441.612 153.684C441.034 154.113 440.352 154.44 439.568 154.664C438.803 154.888 437.982 155 437.104 155H427.5V135.12H438.14C438.831 135.12 439.456 135.269 440.016 135.568C440.576 135.867 441.052 136.259 441.444 136.744C441.836 137.211 442.135 137.752 442.34 138.368C442.564 138.965 442.676 139.572 442.676 140.188C442.676 141.159 442.434 142.073 441.948 142.932C441.463 143.772 440.754 144.397 439.82 144.808C440.959 145.144 441.855 145.751 442.508 146.628C443.18 147.487 443.516 148.569 443.516 149.876ZM439.624 149.148C439.624 148.793 439.559 148.457 439.428 148.14C439.316 147.804 439.158 147.515 438.952 147.272C438.747 147.029 438.504 146.843 438.224 146.712C437.944 146.563 437.636 146.488 437.3 146.488H431.364V151.724H437.104C437.459 151.724 437.786 151.659 438.084 151.528C438.402 151.397 438.672 151.22 438.896 150.996C439.12 150.753 439.298 150.473 439.428 150.156C439.559 149.839 439.624 149.503 439.624 149.148ZM431.364 138.424V143.436H436.516C437.17 143.436 437.72 143.212 438.168 142.764C438.635 142.316 438.868 141.7 438.868 140.916C438.868 140.151 438.654 139.544 438.224 139.096C437.814 138.648 437.3 138.424 436.684 138.424H431.364ZM464.11 135.12V155H460.274V146.516H451.258V155H447.394V135.12H451.258V143.156H460.274V135.12H464.11ZM477.35 155.14C475.894 155.14 474.568 154.86 473.374 154.3C472.198 153.721 471.18 152.965 470.322 152.032C469.482 151.08 468.828 149.997 468.362 148.784C467.895 147.571 467.662 146.329 467.662 145.06C467.662 143.735 467.904 142.465 468.39 141.252C468.894 140.039 469.575 138.965 470.434 138.032C471.311 137.099 472.347 136.361 473.542 135.82C474.736 135.26 476.034 134.98 477.434 134.98C478.871 134.98 480.178 135.279 481.354 135.876C482.548 136.455 483.566 137.22 484.406 138.172C485.246 139.124 485.899 140.207 486.366 141.42C486.832 142.633 487.066 143.865 487.066 145.116C487.066 146.441 486.823 147.711 486.338 148.924C485.852 150.119 485.18 151.183 484.322 152.116C483.463 153.031 482.436 153.768 481.242 154.328C480.047 154.869 478.75 155.14 477.35 155.14ZM471.582 145.06C471.582 145.919 471.712 146.749 471.974 147.552C472.235 148.355 472.608 149.064 473.094 149.68C473.598 150.296 474.204 150.791 474.914 151.164C475.642 151.537 476.463 151.724 477.378 151.724C478.311 151.724 479.132 151.537 479.842 151.164C480.57 150.772 481.176 150.259 481.662 149.624C482.166 148.989 482.539 148.28 482.782 147.496C483.043 146.693 483.174 145.881 483.174 145.06C483.174 144.201 483.034 143.371 482.754 142.568C482.492 141.765 482.11 141.056 481.606 140.44C481.12 139.824 480.514 139.339 479.786 138.984C479.076 138.611 478.274 138.424 477.378 138.424C476.444 138.424 475.614 138.62 474.886 139.012C474.158 139.385 473.551 139.889 473.066 140.524C472.58 141.14 472.207 141.849 471.946 142.652C471.703 143.436 471.582 144.239 471.582 145.06ZM489.298 144.92C489.298 143.707 489.512 142.512 489.942 141.336C490.39 140.141 491.034 139.077 491.874 138.144C492.714 137.211 493.74 136.455 494.954 135.876C496.167 135.297 497.548 135.008 499.098 135.008C500.927 135.008 502.504 135.409 503.83 136.212C505.174 137.015 506.172 138.06 506.826 139.348L503.858 141.392C503.596 140.832 503.279 140.365 502.906 139.992C502.532 139.6 502.131 139.292 501.702 139.068C501.272 138.844 500.824 138.685 500.358 138.592C499.891 138.48 499.434 138.424 498.986 138.424C498.015 138.424 497.166 138.62 496.438 139.012C495.728 139.404 495.131 139.917 494.646 140.552C494.179 141.168 493.824 141.877 493.582 142.68C493.339 143.464 493.218 144.248 493.218 145.032C493.218 145.909 493.358 146.759 493.638 147.58C493.918 148.383 494.31 149.092 494.814 149.708C495.336 150.324 495.952 150.819 496.662 151.192C497.39 151.565 498.183 151.752 499.042 151.752C499.49 151.752 499.956 151.696 500.442 151.584C500.927 151.472 501.384 151.295 501.814 151.052C502.262 150.809 502.672 150.501 503.046 150.128C503.419 149.736 503.718 149.269 503.942 148.728L507.106 150.548C506.788 151.295 506.331 151.957 505.734 152.536C505.155 153.096 504.492 153.572 503.746 153.964C503.018 154.356 502.234 154.655 501.394 154.86C500.554 155.065 499.732 155.168 498.93 155.168C497.511 155.168 496.214 154.869 495.038 154.272C493.862 153.675 492.844 152.9 491.986 151.948C491.146 150.977 490.483 149.885 489.998 148.672C489.531 147.44 489.298 146.189 489.298 144.92ZM524.874 138.508H518.518V155H514.682V138.508H508.326V135.12H524.874V138.508ZM527.926 135.12H531.762V142.12H535.57C536.578 142.12 537.502 142.26 538.342 142.54C539.2 142.82 539.938 143.231 540.554 143.772C541.17 144.313 541.646 144.985 541.982 145.788C542.318 146.572 542.486 147.477 542.486 148.504C542.486 149.549 542.318 150.473 541.982 151.276C541.646 152.079 541.17 152.76 540.554 153.32C539.956 153.861 539.238 154.281 538.398 154.58C537.576 154.86 536.68 155 535.71 155H527.926V135.12ZM531.762 151.724H535.346C536.428 151.724 537.24 151.435 537.782 150.856C538.323 150.277 538.594 149.484 538.594 148.476C538.594 147.524 538.314 146.749 537.754 146.152C537.194 145.536 536.391 145.228 535.346 145.228H531.762V151.724ZM110.146 184.488H116.57V179.538H118.044V191H116.57V185.742H110.146V191H108.672V179.538H110.146V184.488ZM124.751 191.22C124.208 191.22 123.702 191.132 123.233 190.956C122.778 190.765 122.375 190.509 122.023 190.186C121.685 189.863 121.421 189.489 121.231 189.064C121.04 188.624 120.945 188.155 120.945 187.656C120.945 187.157 121.062 186.695 121.297 186.27C121.531 185.845 121.861 185.478 122.287 185.17C122.712 184.862 123.218 184.627 123.805 184.466C124.391 184.29 125.037 184.202 125.741 184.202C126.327 184.202 126.921 184.253 127.523 184.356C128.124 184.459 128.659 184.605 129.129 184.796V183.762C129.129 182.75 128.843 181.951 128.271 181.364C127.699 180.763 126.907 180.462 125.895 180.462C125.308 180.462 124.707 180.579 124.091 180.814C123.475 181.049 122.851 181.386 122.221 181.826L121.693 180.836C123.174 179.839 124.611 179.34 126.005 179.34C127.442 179.34 128.571 179.743 129.393 180.55C130.214 181.357 130.625 182.471 130.625 183.894V189.064C130.625 189.475 130.808 189.68 131.175 189.68V191C130.925 191.044 130.735 191.066 130.603 191.066C130.221 191.066 129.921 190.971 129.701 190.78C129.495 190.589 129.385 190.325 129.371 189.988L129.327 189.086C128.799 189.775 128.131 190.303 127.325 190.67C126.533 191.037 125.675 191.22 124.751 191.22ZM125.103 190.076C125.88 190.076 126.591 189.929 127.237 189.636C127.897 189.343 128.395 188.954 128.733 188.47C128.865 188.338 128.96 188.199 129.019 188.052C129.092 187.891 129.129 187.744 129.129 187.612V185.742C128.63 185.551 128.109 185.405 127.567 185.302C127.039 185.199 126.496 185.148 125.939 185.148C124.883 185.148 124.025 185.368 123.365 185.808C122.705 186.248 122.375 186.827 122.375 187.546C122.375 187.898 122.441 188.228 122.573 188.536C122.719 188.844 122.91 189.115 123.145 189.35C123.394 189.57 123.687 189.746 124.025 189.878C124.362 190.01 124.721 190.076 125.103 190.076ZM133.741 180.748C134.151 180.279 134.628 179.927 135.171 179.692C135.728 179.457 136.329 179.34 136.975 179.34C137.987 179.34 138.786 179.589 139.373 180.088C139.959 180.587 140.253 181.254 140.253 182.09C140.253 182.765 140.069 183.329 139.703 183.784C139.351 184.239 138.867 184.517 138.251 184.62C139.072 184.737 139.717 185.075 140.187 185.632C140.656 186.175 140.891 186.857 140.891 187.678C140.891 188.206 140.795 188.69 140.605 189.13C140.414 189.555 140.143 189.922 139.791 190.23C139.439 190.538 139.013 190.78 138.515 190.956C138.016 191.132 137.466 191.22 136.865 191.22C136.073 191.22 135.398 191.081 134.841 190.802C134.283 190.509 133.792 190.091 133.367 189.548L134.203 188.514C134.54 188.983 134.921 189.335 135.347 189.57C135.787 189.79 136.315 189.9 136.931 189.9C137.737 189.9 138.353 189.702 138.779 189.306C139.219 188.895 139.439 188.345 139.439 187.656C139.439 186.893 139.175 186.307 138.647 185.896C138.119 185.485 137.363 185.28 136.381 185.28H135.611V184.114H136.381C137.158 184.114 137.767 183.953 138.207 183.63C138.647 183.293 138.867 182.816 138.867 182.2C138.867 181.687 138.691 181.283 138.339 180.99C137.987 180.697 137.503 180.55 136.887 180.55C136.447 180.55 136.029 180.631 135.633 180.792C135.251 180.953 134.87 181.225 134.489 181.606L133.741 180.748ZM145.376 184.488H151.8V179.538H153.274V191H151.8V185.742H145.376V191H143.902V179.538H145.376V184.488ZM159.981 191.22C159.439 191.22 158.933 191.132 158.463 190.956C158.009 190.765 157.605 190.509 157.253 190.186C156.916 189.863 156.652 189.489 156.461 189.064C156.271 188.624 156.175 188.155 156.175 187.656C156.175 187.157 156.293 186.695 156.527 186.27C156.762 185.845 157.092 185.478 157.517 185.17C157.943 184.862 158.449 184.627 159.035 184.466C159.622 184.29 160.267 184.202 160.971 184.202C161.558 184.202 162.152 184.253 162.753 184.356C163.355 184.459 163.89 184.605 164.359 184.796V183.762C164.359 182.75 164.073 181.951 163.501 181.364C162.929 180.763 162.137 180.462 161.125 180.462C160.539 180.462 159.937 180.579 159.321 180.814C158.705 181.049 158.082 181.386 157.451 181.826L156.923 180.836C158.405 179.839 159.842 179.34 161.235 179.34C162.673 179.34 163.802 179.743 164.623 180.55C165.445 181.357 165.855 182.471 165.855 183.894V189.064C165.855 189.475 166.039 189.68 166.405 189.68V191C166.156 191.044 165.965 191.066 165.833 191.066C165.452 191.066 165.151 190.971 164.931 190.78C164.726 190.589 164.616 190.325 164.601 189.988L164.557 189.086C164.029 189.775 163.362 190.303 162.555 190.67C161.763 191.037 160.905 191.22 159.981 191.22ZM160.333 190.076C161.111 190.076 161.822 189.929 162.467 189.636C163.127 189.343 163.626 188.954 163.963 188.47C164.095 188.338 164.191 188.199 164.249 188.052C164.323 187.891 164.359 187.744 164.359 187.612V185.742C163.861 185.551 163.34 185.405 162.797 185.302C162.269 185.199 161.727 185.148 161.169 185.148C160.113 185.148 159.255 185.368 158.595 185.808C157.935 186.248 157.605 186.827 157.605 187.546C157.605 187.898 157.671 188.228 157.803 188.536C157.95 188.844 158.141 189.115 158.375 189.35C158.625 189.57 158.918 189.746 159.255 189.878C159.593 190.01 159.952 190.076 160.333 190.076ZM176.847 191H175.351V186.226C174.97 186.373 174.574 186.483 174.163 186.556C173.767 186.615 173.232 186.644 172.557 186.644C171.868 186.644 171.288 186.541 170.819 186.336C170.364 186.131 169.99 185.852 169.697 185.5C169.404 185.148 169.191 184.73 169.059 184.246C168.942 183.747 168.883 183.212 168.883 182.64V179.538H170.357V182.376C170.357 183.461 170.57 184.231 170.995 184.686C171.42 185.126 172.029 185.346 172.821 185.346C173.437 185.346 173.958 185.287 174.383 185.17C174.808 185.038 175.131 184.884 175.351 184.708V179.538H176.847V191ZM185.629 191.22C184.793 191.22 184.023 191.066 183.319 190.758C182.63 190.435 182.029 190.003 181.515 189.46C181.002 188.903 180.599 188.265 180.305 187.546C180.027 186.827 179.887 186.057 179.887 185.236C179.887 184.429 180.027 183.674 180.305 182.97C180.599 182.251 180.995 181.628 181.493 181.1C182.007 180.557 182.615 180.132 183.319 179.824C184.023 179.501 184.786 179.34 185.607 179.34C186.443 179.34 187.206 179.501 187.895 179.824C188.599 180.132 189.201 180.557 189.699 181.1C190.198 181.643 190.587 182.266 190.865 182.97C191.144 183.674 191.283 184.422 191.283 185.214C191.283 185.331 191.283 185.449 191.283 185.566C191.283 185.683 191.276 185.764 191.261 185.808H181.449C181.493 186.424 181.633 186.996 181.867 187.524C182.117 188.037 182.432 188.485 182.813 188.866C183.195 189.247 183.627 189.548 184.111 189.768C184.61 189.973 185.138 190.076 185.695 190.076C186.062 190.076 186.429 190.025 186.795 189.922C187.162 189.819 187.499 189.68 187.807 189.504C188.115 189.328 188.394 189.115 188.643 188.866C188.893 188.602 189.083 188.316 189.215 188.008L190.513 188.36C190.337 188.785 190.088 189.174 189.765 189.526C189.443 189.863 189.069 190.164 188.643 190.428C188.218 190.677 187.749 190.868 187.235 191C186.722 191.147 186.187 191.22 185.629 191.22ZM189.853 184.664C189.809 184.048 189.663 183.491 189.413 182.992C189.179 182.479 188.871 182.039 188.489 181.672C188.123 181.305 187.69 181.019 187.191 180.814C186.707 180.609 186.187 180.506 185.629 180.506C185.072 180.506 184.544 180.609 184.045 180.814C183.547 181.019 183.107 181.305 182.725 181.672C182.359 182.039 182.058 182.479 181.823 182.992C181.603 183.505 181.471 184.063 181.427 184.664H189.853ZM195.587 184.488H202.011V179.538H203.485V191H202.011V185.742H195.587V191H194.113V179.538H195.587V184.488ZM208.806 184.488H215.23V179.538H216.704V191H215.23V185.742H208.806V191H207.332V179.538H208.806V184.488ZM225.413 191.22C224.577 191.22 223.814 191.066 223.125 190.758C222.436 190.435 221.834 190.003 221.321 189.46C220.822 188.917 220.434 188.287 220.155 187.568C219.876 186.849 219.737 186.094 219.737 185.302C219.737 184.495 219.876 183.733 220.155 183.014C220.448 182.295 220.844 181.665 221.343 181.122C221.856 180.579 222.458 180.147 223.147 179.824C223.836 179.501 224.592 179.34 225.413 179.34C226.234 179.34 226.99 179.501 227.679 179.824C228.383 180.147 228.984 180.579 229.483 181.122C229.996 181.665 230.392 182.295 230.671 183.014C230.964 183.733 231.111 184.495 231.111 185.302C231.111 186.094 230.972 186.849 230.693 187.568C230.414 188.287 230.018 188.917 229.505 189.46C229.006 190.003 228.405 190.435 227.701 190.758C227.012 191.066 226.249 191.22 225.413 191.22ZM221.255 185.324C221.255 185.969 221.365 186.571 221.585 187.128C221.805 187.671 222.098 188.155 222.465 188.58C222.846 188.991 223.286 189.313 223.785 189.548C224.298 189.783 224.841 189.9 225.413 189.9C225.985 189.9 226.52 189.783 227.019 189.548C227.532 189.299 227.98 188.969 228.361 188.558C228.742 188.133 229.043 187.641 229.263 187.084C229.483 186.527 229.593 185.925 229.593 185.28C229.593 184.649 229.483 184.055 229.263 183.498C229.043 182.926 228.742 182.435 228.361 182.024C227.98 181.599 227.532 181.269 227.019 181.034C226.52 180.785 225.985 180.66 225.413 180.66C224.841 180.66 224.306 180.785 223.807 181.034C223.308 181.269 222.868 181.599 222.487 182.024C222.106 182.449 221.805 182.948 221.585 183.52C221.365 184.077 221.255 184.679 221.255 185.324ZM242.121 175.248C242.092 175.937 241.806 176.465 241.263 176.832C240.735 177.184 240.002 177.36 239.063 177.36C238.11 177.36 237.369 177.184 236.841 176.832C236.313 176.465 236.027 175.937 235.983 175.248H236.929C236.958 175.747 237.149 176.099 237.501 176.304C237.853 176.495 238.374 176.59 239.063 176.59C239.752 176.59 240.266 176.495 240.603 176.304C240.955 176.113 241.153 175.761 241.197 175.248H242.121ZM235.609 188.888L242.451 179.538H243.661V191H242.187V181.826L235.477 191H234.135V179.538H235.609V188.888ZM265.359 186.974C265.359 187.561 265.242 188.103 265.007 188.602C264.773 189.086 264.457 189.511 264.061 189.878C263.665 190.23 263.203 190.509 262.675 190.714C262.147 190.905 261.583 191 260.981 191H253.611V175.38H261.135C261.678 175.38 262.169 175.497 262.609 175.732C263.049 175.967 263.423 176.275 263.731 176.656C264.039 177.023 264.274 177.448 264.435 177.932C264.611 178.401 264.699 178.878 264.699 179.362C264.699 180.154 264.501 180.88 264.105 181.54C263.709 182.185 263.159 182.669 262.455 182.992C263.35 183.256 264.054 183.747 264.567 184.466C265.095 185.185 265.359 186.021 265.359 186.974ZM263.819 186.71C263.819 186.329 263.753 185.962 263.621 185.61C263.489 185.243 263.299 184.928 263.049 184.664C262.815 184.385 262.529 184.165 262.191 184.004C261.869 183.828 261.517 183.74 261.135 183.74H255.151V189.658H260.981C261.377 189.658 261.744 189.577 262.081 189.416C262.433 189.255 262.734 189.042 262.983 188.778C263.247 188.499 263.453 188.184 263.599 187.832C263.746 187.465 263.819 187.091 263.819 186.71ZM255.151 176.722V182.486H260.519C260.901 182.486 261.253 182.405 261.575 182.244C261.913 182.083 262.199 181.87 262.433 181.606C262.668 181.342 262.851 181.041 262.983 180.704C263.115 180.352 263.181 179.985 263.181 179.604C263.181 179.208 263.115 178.834 262.983 178.482C262.866 178.13 262.69 177.829 262.455 177.58C262.235 177.316 261.971 177.111 261.663 176.964C261.355 176.803 261.018 176.722 260.651 176.722H255.151ZM271.667 191.22C271.124 191.22 270.618 191.132 270.149 190.956C269.694 190.765 269.291 190.509 268.939 190.186C268.601 189.863 268.337 189.489 268.147 189.064C267.956 188.624 267.861 188.155 267.861 187.656C267.861 187.157 267.978 186.695 268.213 186.27C268.447 185.845 268.777 185.478 269.203 185.17C269.628 184.862 270.134 184.627 270.721 184.466C271.307 184.29 271.953 184.202 272.657 184.202C273.243 184.202 273.837 184.253 274.439 184.356C275.04 184.459 275.575 184.605 276.045 184.796V183.762C276.045 182.75 275.759 181.951 275.187 181.364C274.615 180.763 273.823 180.462 272.811 180.462C272.224 180.462 271.623 180.579 271.007 180.814C270.391 181.049 269.767 181.386 269.137 181.826L268.609 180.836C270.09 179.839 271.527 179.34 272.921 179.34C274.358 179.34 275.487 179.743 276.309 180.55C277.13 181.357 277.541 182.471 277.541 183.894V189.064C277.541 189.475 277.724 189.68 278.091 189.68V191C277.841 191.044 277.651 191.066 277.519 191.066C277.137 191.066 276.837 190.971 276.617 190.78C276.411 190.589 276.301 190.325 276.287 189.988L276.243 189.086C275.715 189.775 275.047 190.303 274.241 190.67C273.449 191.037 272.591 191.22 271.667 191.22ZM272.019 190.076C272.796 190.076 273.507 189.929 274.153 189.636C274.813 189.343 275.311 188.954 275.649 188.47C275.781 188.338 275.876 188.199 275.935 188.052C276.008 187.891 276.045 187.744 276.045 187.612V185.742C275.546 185.551 275.025 185.405 274.483 185.302C273.955 185.199 273.412 185.148 272.855 185.148C271.799 185.148 270.941 185.368 270.281 185.808C269.621 186.248 269.291 186.827 269.291 187.546C269.291 187.898 269.357 188.228 269.489 188.536C269.635 188.844 269.826 189.115 270.061 189.35C270.31 189.57 270.603 189.746 270.941 189.878C271.278 190.01 271.637 190.076 272.019 190.076ZM287.103 187.26L291.393 179.538H292.845V191H291.393V182.2L287.543 189.086H286.663L282.791 182.2V191H281.317V179.538H282.813L287.103 187.26ZM298.158 188.888L305 179.538H306.21V191H304.736V181.826L298.026 191H296.684V179.538H298.158V188.888ZM320.45 191H318.998V180.836H314.972V179.538H324.476V180.836H320.45V191ZM331.471 191.22C330.635 191.22 329.865 191.066 329.161 190.758C328.472 190.435 327.87 190.003 327.357 189.46C326.844 188.903 326.44 188.265 326.147 187.546C325.868 186.827 325.729 186.057 325.729 185.236C325.729 184.429 325.868 183.674 326.147 182.97C326.44 182.251 326.836 181.628 327.335 181.1C327.848 180.557 328.457 180.132 329.161 179.824C329.865 179.501 330.628 179.34 331.449 179.34C332.285 179.34 333.048 179.501 333.737 179.824C334.441 180.132 335.042 180.557 335.541 181.1C336.04 181.643 336.428 182.266 336.707 182.97C336.986 183.674 337.125 184.422 337.125 185.214C337.125 185.331 337.125 185.449 337.125 185.566C337.125 185.683 337.118 185.764 337.103 185.808H327.291C327.335 186.424 327.474 186.996 327.709 187.524C327.958 188.037 328.274 188.485 328.655 188.866C329.036 189.247 329.469 189.548 329.953 189.768C330.452 189.973 330.98 190.076 331.537 190.076C331.904 190.076 332.27 190.025 332.637 189.922C333.004 189.819 333.341 189.68 333.649 189.504C333.957 189.328 334.236 189.115 334.485 188.866C334.734 188.602 334.925 188.316 335.057 188.008L336.355 188.36C336.179 188.785 335.93 189.174 335.607 189.526C335.284 189.863 334.91 190.164 334.485 190.428C334.06 190.677 333.59 190.868 333.077 191C332.564 191.147 332.028 191.22 331.471 191.22ZM335.695 184.664C335.651 184.048 335.504 183.491 335.255 182.992C335.02 182.479 334.712 182.039 334.331 181.672C333.964 181.305 333.532 181.019 333.033 180.814C332.549 180.609 332.028 180.506 331.471 180.506C330.914 180.506 330.386 180.609 329.887 180.814C329.388 181.019 328.948 181.305 328.567 181.672C328.2 182.039 327.9 182.479 327.665 182.992C327.445 183.505 327.313 184.063 327.269 184.664H335.695ZM345.807 191.22C344.839 191.22 343.981 190.978 343.233 190.494C342.5 189.995 341.906 189.372 341.451 188.624V195.686H339.955V179.538H341.297V181.76C341.767 181.041 342.375 180.462 343.123 180.022C343.871 179.567 344.685 179.34 345.565 179.34C346.357 179.34 347.083 179.509 347.743 179.846C348.403 180.169 348.975 180.609 349.459 181.166C349.943 181.709 350.317 182.339 350.581 183.058C350.86 183.777 350.999 184.517 350.999 185.28C350.999 186.087 350.875 186.849 350.625 187.568C350.376 188.287 350.017 188.917 349.547 189.46C349.093 190.003 348.543 190.435 347.897 190.758C347.267 191.066 346.57 191.22 345.807 191.22ZM345.389 189.9C346.005 189.9 346.563 189.768 347.061 189.504C347.575 189.24 348.007 188.895 348.359 188.47C348.726 188.03 349.005 187.539 349.195 186.996C349.386 186.439 349.481 185.867 349.481 185.28C349.481 184.664 349.371 184.077 349.151 183.52C348.931 182.963 348.631 182.471 348.249 182.046C347.868 181.621 347.413 181.283 346.885 181.034C346.372 180.785 345.815 180.66 345.213 180.66C344.832 180.66 344.429 180.741 344.003 180.902C343.593 181.049 343.204 181.254 342.837 181.518C342.485 181.767 342.177 182.068 341.913 182.42C341.664 182.757 341.51 183.117 341.451 183.498V187.018C341.627 187.429 341.847 187.81 342.111 188.162C342.39 188.514 342.698 188.822 343.035 189.086C343.387 189.335 343.761 189.533 344.157 189.68C344.553 189.827 344.964 189.9 345.389 189.9ZM356.936 191.22C356.394 191.22 355.888 191.132 355.418 190.956C354.964 190.765 354.56 190.509 354.208 190.186C353.871 189.863 353.607 189.489 353.416 189.064C353.226 188.624 353.13 188.155 353.13 187.656C353.13 187.157 353.248 186.695 353.482 186.27C353.717 185.845 354.047 185.478 354.472 185.17C354.898 184.862 355.404 184.627 355.99 184.466C356.577 184.29 357.222 184.202 357.926 184.202C358.513 184.202 359.107 184.253 359.708 184.356C360.31 184.459 360.845 184.605 361.314 184.796V183.762C361.314 182.75 361.028 181.951 360.456 181.364C359.884 180.763 359.092 180.462 358.08 180.462C357.494 180.462 356.892 180.579 356.276 180.814C355.66 181.049 355.037 181.386 354.406 181.826L353.878 180.836C355.36 179.839 356.797 179.34 358.19 179.34C359.628 179.34 360.757 179.743 361.578 180.55C362.4 181.357 362.81 182.471 362.81 183.894V189.064C362.81 189.475 362.994 189.68 363.36 189.68V191C363.111 191.044 362.92 191.066 362.788 191.066C362.407 191.066 362.106 190.971 361.886 190.78C361.681 190.589 361.571 190.325 361.556 189.988L361.512 189.086C360.984 189.775 360.317 190.303 359.51 190.67C358.718 191.037 357.86 191.22 356.936 191.22ZM357.288 190.076C358.066 190.076 358.777 189.929 359.422 189.636C360.082 189.343 360.581 188.954 360.918 188.47C361.05 188.338 361.146 188.199 361.204 188.052C361.278 187.891 361.314 187.744 361.314 187.612V185.742C360.816 185.551 360.295 185.405 359.752 185.302C359.224 185.199 358.682 185.148 358.124 185.148C357.068 185.148 356.21 185.368 355.55 185.808C354.89 186.248 354.56 186.827 354.56 187.546C354.56 187.898 354.626 188.228 354.758 188.536C354.905 188.844 355.096 189.115 355.33 189.35C355.58 189.57 355.873 189.746 356.21 189.878C356.548 190.01 356.907 190.076 357.288 190.076ZM375.606 191H374.154V180.836H368.06V191H366.586V179.538H375.606V191ZM380.957 188.888L387.799 179.538H389.009V191H387.535V181.826L380.825 191H379.483V179.538H380.957V188.888ZM394.347 188.888L401.189 179.538H402.399V191H400.925V181.826L394.215 191H392.873V179.538H394.347V188.888ZM411.698 173.862V172.938H405.318V174.016H410.224L406.572 181.738H408.046L411.698 173.862Z" fill="white"/>
</svg>
