<svg width="13" height="25" viewBox="0 0 13 25" fill="none" xmlns="http://www.w3.org/2000/svg">
<path d="M11.2357 11.9565H1.07006V6.15942C1.07006 3.26087 3.38854 1.08696 6.06369 1.08696C8.9172 1.08696 11.0573 3.44203 11.0573 6.15942V11.9565H11.2357ZM2.31847 15.3986H3.38854V16.4855H2.31847V15.3986ZM6.06369 22.6449C3.92357 22.6449 2.14013 20.8333 2.14013 18.6594V17.5725H3.21019V18.6594C3.21019 20.2899 4.4586 21.558 6.06369 21.558V22.6449ZM6.06369 0C2.67516 0 0 2.71739 0 6.15942V18.6594C0 22.1014 2.67516 24.8188 6.06369 24.8188C9.45223 24.8188 12.1274 22.1014 12.1274 18.6594V6.15942C12.3057 2.71739 9.63057 0 6.06369 0Z" fill="#1F1C6B"/>
</svg>
