<svg width="110" height="25" viewBox="0 0 110 25" fill="none" xmlns="http://www.w3.org/2000/svg">
<path d="M42.9 17.991H51.666V16.2H45.807L49.56 12.852C50.028 12.438 50.418 12.054 50.73 11.7C51.042 11.346 51.276 10.962 51.432 10.548C51.588 10.128 51.666 9.624 51.666 9.036C51.666 8.214 51.477 7.482 51.099 6.84C50.727 6.198 50.217 5.694 49.569 5.328C48.921 4.956 48.189 4.77 47.373 4.77C46.515 4.77 45.75 4.95 45.078 5.31C44.412 5.664 43.89 6.159 43.512 6.795C43.134 7.425 42.945 8.16 42.945 9H44.871C44.865 8.562 44.967 8.16 45.177 7.794C45.393 7.422 45.687 7.125 46.059 6.903C46.431 6.675 46.857 6.561 47.337 6.561C48.033 6.561 48.606 6.795 49.056 7.263C49.506 7.731 49.731 8.313 49.731 9.009C49.731 9.375 49.647 9.741 49.479 10.107C49.317 10.467 49.008 10.851 48.552 11.259L42.909 16.317L42.9 17.991ZM58.8425 18.27C59.7245 18.27 60.5045 18.078 61.1825 17.694C61.8605 17.304 62.3915 16.77 62.7755 16.092C63.1655 15.408 63.3605 14.628 63.3605 13.752V9.288C63.3605 8.406 63.1655 7.626 62.7755 6.948C62.3915 6.27 61.8605 5.739 61.1825 5.355C60.5045 4.965 59.7245 4.77 58.8425 4.77C57.9665 4.77 57.1865 4.965 56.5025 5.355C55.8245 5.739 55.2905 6.27 54.9005 6.948C54.5165 7.626 54.3245 8.406 54.3245 9.288V13.752C54.3245 14.628 54.5165 15.408 54.9005 16.092C55.2905 16.77 55.8245 17.304 56.5025 17.694C57.1865 18.078 57.9665 18.27 58.8425 18.27ZM58.8425 16.47C58.3625 16.47 57.9245 16.356 57.5285 16.128C57.1325 15.894 56.8175 15.579 56.5835 15.183C56.3555 14.787 56.2415 14.349 56.2415 13.869V9.153C56.2415 8.673 56.3555 8.238 56.5835 7.848C56.8175 7.452 57.1325 7.14 57.5285 6.912C57.9245 6.678 58.3625 6.561 58.8425 6.561C59.3285 6.561 59.7665 6.678 60.1565 6.912C60.5525 7.14 60.8645 7.452 61.0925 7.848C61.3265 8.238 61.4435 8.673 61.4435 9.153V13.869C61.4435 14.349 61.3265 14.787 61.0925 15.183C60.8645 15.579 60.5525 15.894 60.1565 16.128C59.7665 16.356 59.3285 16.47 58.8425 16.47ZM70.8913 18.27C71.7733 18.27 72.5533 18.078 73.2313 17.694C73.9093 17.304 74.4403 16.77 74.8243 16.092C75.2143 15.408 75.4093 14.628 75.4093 13.752V9.288C75.4093 8.406 75.2143 7.626 74.8243 6.948C74.4403 6.27 73.9093 5.739 73.2313 5.355C72.5533 4.965 71.7733 4.77 70.8913 4.77C70.0153 4.77 69.2353 4.965 68.5513 5.355C67.8733 5.739 67.3393 6.27 66.9493 6.948C66.5653 7.626 66.3733 8.406 66.3733 9.288V13.752C66.3733 14.628 66.5653 15.408 66.9493 16.092C67.3393 16.77 67.8733 17.304 68.5513 17.694C69.2353 18.078 70.0153 18.27 70.8913 18.27ZM70.8913 16.47C70.4113 16.47 69.9733 16.356 69.5773 16.128C69.1813 15.894 68.8663 15.579 68.6323 15.183C68.4043 14.787 68.2903 14.349 68.2903 13.869V9.153C68.2903 8.673 68.4043 8.238 68.6323 7.848C68.8663 7.452 69.1813 7.14 69.5773 6.912C69.9733 6.678 70.4113 6.561 70.8913 6.561C71.3773 6.561 71.8153 6.678 72.2053 6.912C72.6013 7.14 72.9133 7.452 73.1413 7.848C73.3753 8.238 73.4923 8.673 73.4923 9.153V13.869C73.4923 14.349 73.3753 14.787 73.1413 15.183C72.9133 15.579 72.6013 15.894 72.2053 16.128C71.8153 16.356 71.3773 16.47 70.8913 16.47ZM82.5166 18H84.3256V12.132L87.2506 18H88.1056L91.0306 12.132V18H92.8486V8.28H91.2646L87.6826 15.408L84.0916 8.28H82.5166V18ZM95.8752 18H97.7562V10.053H102.715V8.28H95.8752V18Z" fill="#2A276E"/>
<path d="M26.93 11.9565H16.7644V6.15942C16.7644 3.26087 19.0829 1.08696 21.758 1.08696C24.6115 1.08696 26.7517 3.44203 26.7517 6.15942V11.9565H26.93ZM17.8345 15.3986H18.9045V16.4855H17.8345V15.3986ZM21.758 22.6449C19.6179 22.6449 17.8345 20.8333 17.8345 18.6594V17.5725H18.9045V18.6594C18.9045 20.2899 20.1529 21.558 21.758 21.558V22.6449ZM21.758 0C18.3695 0 15.6943 2.71739 15.6943 6.15942V18.6594C15.6943 22.1014 18.3695 24.8188 21.758 24.8188C25.1466 24.8188 27.8217 22.1014 27.8217 18.6594V6.15942C28.0001 2.71739 25.1466 0 21.758 0Z" fill="#1F1C6B"/>
</svg>
