<svg width="110" height="25" viewBox="0 0 110 25" fill="none" xmlns="http://www.w3.org/2000/svg">
<path d="M48.75 18H50.658V15.741H51.945V13.959H50.658V10.449H48.75V13.959H45.051L49.263 5.04H47.112L42.9 13.959V15.741H48.75V18ZM59.1237 18.27C60.0057 18.27 60.7857 18.078 61.4637 17.694C62.1417 17.304 62.6727 16.77 63.0567 16.092C63.4467 15.408 63.6417 14.628 63.6417 13.752V9.288C63.6417 8.406 63.4467 7.626 63.0567 6.948C62.6727 6.27 62.1417 5.739 61.4637 5.355C60.7857 4.965 60.0057 4.77 59.1237 4.77C58.2477 4.77 57.4677 4.965 56.7837 5.355C56.1057 5.739 55.5717 6.27 55.1817 6.948C54.7977 7.626 54.6057 8.406 54.6057 9.288V13.752C54.6057 14.628 54.7977 15.408 55.1817 16.092C55.5717 16.77 56.1057 17.304 56.7837 17.694C57.4677 18.078 58.2477 18.27 59.1237 18.27ZM59.1237 16.47C58.6437 16.47 58.2057 16.356 57.8097 16.128C57.4137 15.894 57.0987 15.579 56.8647 15.183C56.6367 14.787 56.5227 14.349 56.5227 13.869V9.153C56.5227 8.673 56.6367 8.238 56.8647 7.848C57.0987 7.452 57.4137 7.14 57.8097 6.912C58.2057 6.678 58.6437 6.561 59.1237 6.561C59.6097 6.561 60.0477 6.678 60.4377 6.912C60.8337 7.14 61.1457 7.452 61.3737 7.848C61.6077 8.238 61.7247 8.673 61.7247 9.153V13.869C61.7247 14.349 61.6077 14.787 61.3737 15.183C61.1457 15.579 60.8337 15.894 60.4377 16.128C60.0477 16.356 59.6097 16.47 59.1237 16.47ZM71.1725 18.27C72.0545 18.27 72.8345 18.078 73.5125 17.694C74.1905 17.304 74.7215 16.77 75.1055 16.092C75.4955 15.408 75.6905 14.628 75.6905 13.752V9.288C75.6905 8.406 75.4955 7.626 75.1055 6.948C74.7215 6.27 74.1905 5.739 73.5125 5.355C72.8345 4.965 72.0545 4.77 71.1725 4.77C70.2965 4.77 69.5165 4.965 68.8325 5.355C68.1545 5.739 67.6205 6.27 67.2305 6.948C66.8465 7.626 66.6545 8.406 66.6545 9.288V13.752C66.6545 14.628 66.8465 15.408 67.2305 16.092C67.6205 16.77 68.1545 17.304 68.8325 17.694C69.5165 18.078 70.2965 18.27 71.1725 18.27ZM71.1725 16.47C70.6925 16.47 70.2545 16.356 69.8585 16.128C69.4625 15.894 69.1475 15.579 68.9135 15.183C68.6855 14.787 68.5715 14.349 68.5715 13.869V9.153C68.5715 8.673 68.6855 8.238 68.9135 7.848C69.1475 7.452 69.4625 7.14 69.8585 6.912C70.2545 6.678 70.6925 6.561 71.1725 6.561C71.6585 6.561 72.0965 6.678 72.4865 6.912C72.8825 7.14 73.1945 7.452 73.4225 7.848C73.6565 8.238 73.7735 8.673 73.7735 9.153V13.869C73.7735 14.349 73.6565 14.787 73.4225 15.183C73.1945 15.579 72.8825 15.894 72.4865 16.128C72.0965 16.356 71.6585 16.47 71.1725 16.47ZM82.7979 18H84.6069V12.132L87.5319 18H88.3869L91.3119 12.132V18H93.1299V8.28H91.5459L87.9639 15.408L84.3729 8.28H82.7979V18ZM96.1565 18H98.0375V10.053H102.996V8.28H96.1565V18Z" fill="#2A276E"/>
<path d="M26.93 11.9565H16.7644V6.15942C16.7644 3.26087 19.0829 1.08696 21.758 1.08696C24.6115 1.08696 26.7517 3.44203 26.7517 6.15942V11.9565H26.93ZM17.8345 15.3986H18.9045V16.4855H17.8345V15.3986ZM21.758 22.6449C19.6179 22.6449 17.8345 20.8333 17.8345 18.6594V17.5725H18.9045V18.6594C18.9045 20.2899 20.1529 21.558 21.758 21.558V22.6449ZM21.758 0C18.3695 0 15.6943 2.71739 15.6943 6.15942V18.6594C15.6943 22.1014 18.3695 24.8188 21.758 24.8188C25.1466 24.8188 27.8217 22.1014 27.8217 18.6594V6.15942C28.0001 2.71739 25.1466 0 21.758 0Z" fill="#1F1C6B"/>
<path d="M11.2357 11.9565H1.07006V6.15942C1.07006 3.26087 3.38854 1.08696 6.06369 1.08696C8.9172 1.08696 11.0573 3.44203 11.0573 6.15942V11.9565H11.2357ZM2.31847 15.3986H3.38854V16.4855H2.31847V15.3986ZM6.06369 22.6449C3.92357 22.6449 2.14013 20.8333 2.14013 18.6594V17.5725H3.21019V18.6594C3.21019 20.2899 4.4586 21.558 6.06369 21.558V22.6449ZM6.06369 0C2.67516 0 0 2.71739 0 6.15942V18.6594C0 22.1014 2.67516 24.8188 6.06369 24.8188C9.45223 24.8188 12.1274 22.1014 12.1274 18.6594V6.15942C12.3057 2.71739 9.63057 0 6.06369 0Z" fill="#1F1C6B"/>
</svg>
