<svg width="1920" height="1040" viewBox="0 0 1920 1040" fill="none" xmlns="http://www.w3.org/2000/svg">
<path d="M503.851 41.05L2554.27 1.11995C2543.56 78.7499 2589.95 389.17 2554.27 462.27C2470.77 631.7 2303.05 793.19 2076.1 819.26C1978.32 830.59 1881.98 815.29 1789.2 788.09C1655.74 748.99 1505.86 780.73 1414.51 867.42C1349.57 928.62 1266.78 977.36 1173.29 1006.82C1000.58 1061.22 795.748 1048.19 636.596 971.69C589.493 949.02 545.958 921.82 503.851 892.36C384.666 809.06 277.613 711.6 127.739 675.33C-28.5577 637.93 -199.128 675.33 -358.993 649.83C-593.082 612.43 -564.178 183.01 -631.978 1.11995C-636.26 -7.95005 -24.4167 41.05 503.851 41.05Z" fill="white"/>
</svg>
